<?xml version="1.0" encoding="UTF-8"?>
<!DOCTYPE svg PUBLIC "-//W3C//DTD SVG 1.1//EN" "http://www.w3.org/Graphics/SVG/1.1/DTD/svg11.dtd">
<!-- Creator: CorelDRAW 2018 (64-Bit) -->
<svg xmlns="http://www.w3.org/2000/svg" xml:space="preserve" width="79.8401mm" height="114.86mm" version="1.1" style="shape-rendering:geometricPrecision; text-rendering:geometricPrecision; image-rendering:optimizeQuality; fill-rule:evenodd; clip-rule:evenodd"
viewBox="0 0 438.18 630.38"
 xmlns:xlink="http://www.w3.org/1999/xlink">
 <defs>
  <style type="text/css">
   <![CDATA[
    .str0 {stroke:#17A135;stroke-width:2.2;stroke-miterlimit:22.9256}
    .fil0 {fill:none}
   ]]>
  </style>
 </defs>
 <g id="Layer_x0020_1">
  <metadata id="CorelCorpID_0Corel-Layer"/>
  <g>
   <path class="fil0 str0" d="M113.96 579.42c-1.57,3.68 -1.49,3.19 -5.16,1.52 3.08,-2.55 -0.92,-1.93 5.16,-1.52zm117.52 -3.83c3.73,-2.36 0.99,-2.06 4.89,0.13 -5.7,3.81 -1.51,2.54 -4.89,-0.13zm-118.62 3.05c-1.36,-2.03 -1.51,1.69 -1.08,-1.94 0.38,-3.21 -0.41,-0.65 1.23,-2.72 2.14,3.72 2.94,-0.43 -0.15,4.66zm130.54 -15.08c2.92,4.65 2.29,2.72 -0.16,5.94 -0.4,-0.76 -1.48,1.25 -1.09,-2.95 0.26,-2.81 0.16,-1.3 1.24,-2.99zm-14.2 -9.74c2.47,3.45 2.04,6.45 -0.04,10.2 -1.81,-3.2 -1.62,-7.09 0.04,-10.2zm31.57 5.6c1.06,-3.7 0.61,-2.82 3.09,-5.56 2.04,3.83 1.13,4.94 -3.09,5.56zm-66.06 -5.71c4.76,1.08 4.8,2.11 4.85,6.78 -5.44,-2.41 -3.01,-3.33 -4.85,-6.78zm-24.12 14.73c-3.72,-6.27 -0.66,-14.73 3.66,-19.91 1.78,3.89 -0.07,3.93 -1.53,8.73 -1.45,4.77 -0.46,7 -2.13,11.18zm70.15 -9.66c-2.09,-3.81 -0.77,-8 1.31,-11.41 4.69,3.7 2.59,1.38 1.26,5.03 -0.63,1.72 -1.51,4.75 -2.57,6.39zm18.96 -6.15c-2.1,-3.58 -0.93,-3.75 1.65,-6.54 2.91,5.05 -0.29,3.51 -1.65,6.54zm44.21 -7.78c-3.84,2.43 -0.05,3.21 -4.65,0.23 1.05,-0.99 -0.87,-4.5 4.65,-0.23zm-72.06 3.55l-2.96 -3.15c3.62,-2.34 4.42,-3.57 8.16,-4.39 -0.69,4.11 -1.82,6.17 -5.2,7.54zm70.58 -10.25c0.22,0.07 0.58,-0.04 0.66,0.23l5.1 2.7 -1.69 9.34c-3.61,-5.01 -0.75,-2.24 -2.79,-7.3 -0.14,-0.36 -0.84,-1.18 -0.96,-1.51 -0.74,-1.94 -1.57,1.44 -0.31,-3.46zm-29.71 -0.43l8.44 -1.5c1.04,6.07 -2.61,8.27 -7.53,9.77 -0.83,-1.9 -1.73,-2.4 -0.91,-8.27zm-80.35 1.04c4.68,0.9 7.24,8.08 7.24,12.61 -4.99,-3.21 -4.95,-8.75 -7.24,-12.61zm71.07 -6.64c1.82,-1.39 -0.3,-5.15 5.64,0.07 -3.4,2.14 -1.51,2.42 -5.64,-0.07zm-3.81 -5.38c2.97,0.96 0.22,-2.39 2.97,2 0.12,0.2 0.1,0.79 0.23,1.17 -2.93,-0.78 0.83,3.54 -2.78,-1.86 -0.16,-0.24 -0.09,-0.99 -0.42,-1.3zm92.23 -7.66c2.98,3.28 2.93,2.17 1.24,5.36 -2.42,-2.11 -3.43,-2.36 -1.24,-5.36zm-98.12 3.01c4.92,-2.7 1.14,-2.49 5.26,-0.22 -2.42,1.57 -0.36,3.61 -5.26,0.22zm57.6 -4.9c10.01,3.67 5.24,2.15 11.07,-0.08 3.19,5.6 0.25,2.71 7.6,3.76 -3.92,2.04 -2.26,-0.45 -5.68,2.92 -4.92,4.85 1.22,2.49 -3.95,4.05 0.7,-3.71 1.72,-3.77 -0.84,-7.26l-2.7 7.78 -5.49 -11.17zm17.75 -1.41c4.38,0.75 2.43,1.21 7.13,2.45l2.72 8.57c-5.86,-0.48 -6.55,-5.61 -9.84,-11.02zm-106.31 -0.14c4.44,-0.85 8.01,-1.32 10.27,2.46 -4.71,2.82 -6.36,0.62 -10.27,-2.46zm116.57 -2c2.81,3.12 2.34,2.33 2.69,7.08 -0.08,-0.03 -3.82,1.9 -3.77,-4.46 0,-0.26 0.17,-0.69 0.21,-0.93l0.87 -1.7zm-80.83 -2.71l4.49 6.67c-3.58,-0.33 -6.2,-4.76 -4.49,-6.67zm-76.95 4.77c-3.05,1.18 -3.75,0.02 -7.01,-1.84 1.91,-0.78 2.44,-1.44 7.01,1.84zm181.09 0.05c-2.31,-3.95 -0.27,-4.84 1.95,-6.34l-1.95 6.34zm-153.86 -8.9c4.89,2.29 16.28,18.19 13.07,23.89l-5.01 -10.55c-0.61,6.16 1.81,10.67 -0.43,14.58 -5.58,-7.13 -2.11,-13.18 -3.24,-20.05 -1.6,3.43 -0.5,2.52 -4.97,1.59 -0.79,-2.5 -0.7,-8.19 0.58,-9.46zm132.62 -10.51c4.36,-3.38 11.08,-4.73 13.02,1.72 -4.17,1.38 -9.78,0.98 -13.02,-1.72zm-28.81 -2.5c3.65,3.71 7.23,12.54 7.05,17.71 -2.08,-2.6 -7.76,-14.52 -7.05,-17.71zm43.3 3.16c2.73,-2.17 5.86,-3.28 9.53,-2.8 -2.68,2.67 -5.68,3.4 -9.53,2.8zm-65.3 -4.79c2.83,0.71 2.8,2.65 5,5.54l7.9 -2.77c-2.1,4.06 -9.28,7.49 -13.9,7.25l4.28 -4.39 -3.3 -5.63zm-44.63 -12.19c3.69,3.31 6.26,6.56 7.24,11.61 -3.11,-2.37 -6.98,-7.74 -7.24,-11.61zm88.18 4.72l-4.3 -3.16 12.58 -0.37c1.6,6.39 -0.59,6.49 -5.62,10.3 -4.48,3.39 -5.49,6.5 -10.38,7.49 5.2,-10.49 15,-7.5 13.34,-16.24 -3.07,-0.02 -1.5,0.32 -5.62,1.98zm-112.11 14.93c0.52,-3.74 4.97,-8.75 7.77,-11.65 5.09,-5.27 4.59,-9.82 10.83,-11.08 -1.18,4.18 -15.65,21.6 -18.6,22.73zm7.75 -33.4c4.97,-0.04 5.35,1.78 3.15,5.82 -2.73,-1.81 -2.53,-1.72 -3.15,-5.82zm101.7 -12.12c3.27,-2.24 1.66,-2.14 5.32,0.01 -5.22,3.26 -3.24,1.52 -5.32,-0.01zm-294.26 -11.35c3.89,3.98 2.44,0.72 0.37,4.28 -0.74,-1.79 -2.39,-0.71 -0.37,-4.28zm222.9 3.99c-5.93,-7.12 7.79,-11.02 16.21,-13.63 1.91,2.63 2.53,2.44 2.19,6.33 -4.41,-0.57 -0.47,0.87 -4.61,-2.45l-6.17 14.44 -4.83 -1.08c-1.15,-8.36 4.85,-7.43 8.09,-12.29 -1.96,1.25 -4.04,1.5 -6.22,3.07 -4.13,2.98 -0.67,1.94 -4.66,5.61zm53.78 -26.54c2.95,-2.69 3.07,-2.72 6.78,-0.61l-6.78 0.61zm-13.8 -0.03c0.23,-3.11 -0.33,-2.54 4.12,-2.56 -2.46,2.96 -0.83,1.36 -4.12,2.56zm-280.71 -15.64c3.11,3.99 2.59,2.4 -0,6.3 -1.85,-2.65 -4.15,-4.59 0,-6.3zm78.29 -41.14c4.23,-1.97 3.97,-0.9 5.58,3.15 -6.34,0.13 -5.03,-2.74 -5.58,-3.15zm-93.38 3.77c-0.69,-5.87 0.13,-8.49 5.69,-8.37 1.92,5.41 -1.11,7.51 -5.69,8.37zm84.24 5.54c-1.6,-3.83 0.56,-9.39 2.59,-13.08l4.44 1.36c-0.22,6.46 -0.86,1.64 -2.53,5.47 -2.2,5.07 2.01,3.87 -4.51,6.25zm293.85 -20.43c1.78,2.69 3.78,5.31 0.34,6.7 -1.96,-3.41 -1.82,-3.94 -0.34,-6.7zm-279.48 0.86c3.87,-1.91 2.2,-0.42 5.13,-0.38 5.09,0.06 1.89,-0.44 7.35,-1.5 6.07,3 8.88,4.42 9.03,10.72l-6.31 -0.03 2.32 -4.36 -6.37 -0.43c-0.92,3.11 2.03,-1.2 -1.01,3.48l-3 -0.83c-1.67,-6.51 1.68,0.03 0.31,-4l-7.45 -2.67zm25.41 1.94c-5.61,-0.23 -3.37,0.98 -6.73,-2.4 -0.49,-2.84 0.35,-5.62 2.08,-7.91l3.84 6.22c0.02,0.3 0.02,0.68 0.05,0.98 0.15,1.31 0.44,1.06 0.75,3.11zm9.82 -12.23c1.68,3.67 1.77,1.74 0.32,5.27 -2.24,-4.02 -2.21,-2.37 -0.32,-5.27zm-43.25 6.49l3.79 -5.27c1.74,3.5 1.02,5.08 -1.13,8.08l-2.66 -2.81zm299.05 -7.86l0.75 4.01c-2.18,-2.8 -3.4,-0.77 -0.75,-4.01zm-143.07 -1.25c4.65,0.48 3.12,-0.42 5.85,4.83 -4.18,0.08 -5.09,-0.38 -5.85,-4.83zm-146.09 -1.33c3.76,-2.59 1.92,-2.75 5.87,0.06 -4.33,6.96 -4.13,1.58 -5.87,-0.06zm-9.89 10.43l-3.33 0.17c-0.29,-7.06 -2.18,-14.68 1.04,-20.12l4.81 9.98c-3.09,4.09 -2.69,4.06 -2.52,9.97zm65.39 -12.63c5.65,-0.51 4.71,0.32 7.19,6.58 1.25,3.15 3.32,7.53 3.76,10.6 -7.05,2.11 -5.37,-0.9 -9.28,-11.55 -0.13,-0.36 -1.32,-5.39 -1.68,-5.63zm-34.29 -0.69l3.98 -0.26c0.39,4.25 0.96,3.82 -0.62,6.92 -2.47,-1.55 -2.95,-3.7 -3.35,-6.65zm31.24 -4.83c4.59,0.67 4.28,-0.87 5.36,3.92 -4.09,-0.02 -4.33,0.49 -5.36,-3.92zm229.36 -2.02c-0.19,-5.98 0.03,-0.89 1.2,-2.76 2.27,3.35 2.92,0.81 -0.22,5.03 -1.37,-1.46 -0.82,2.93 -0.98,-2.27zm-123.7 9.11c-3.87,0.08 -5.53,-1.51 -8.02,-4.22 -3.93,-4.27 -3.4,-2.57 -7.82,-5.53 2.89,-2.12 -0.24,-3.25 5.26,0.37 3,-2.71 0.03,-0.02 1.62,-2.51 0.12,-0.19 0.47,-0.4 0.56,-0.9 0.09,-0.51 0.38,-0.61 0.62,-1l4.09 2.62c-0.06,2.41 -0.4,2.2 -1.89,3.83l6.5 3.08 -0.92 4.26zm-181.7 35.32c-0.69,6.15 0.89,8.44 4.29,13.27 3.36,4.77 4.07,8.42 6.25,11.52 7.99,3.23 8.62,0.71 16.01,1.1 6.96,0.37 8.22,2.98 14.03,4.76 9.19,2.82 19.03,-4.26 22.58,-12.27 -0.41,-9.08 2.28,-13.04 2.02,-22.21l5.24 -4.93 -1 -5.9c-1.92,-5.68 0.43,-5.02 -4.37,-13.62 -1.78,-3.18 -2.08,-15.35 -1.58,-19.02 4.61,0.69 18.88,13.9 15.5,27.83 6.68,3.38 6.48,4.43 9.54,11.14 7.78,17.03 6.35,6.57 7.23,22.59 0.54,9.79 2.53,9.76 1.36,29.17 -1.09,18.19 1.55,8.53 -9.25,30.77 -2.18,4.5 -4.07,7.89 -8.17,10.79 -7.49,5.3 -6.64,6.85 -9.13,11.52 -4.97,3.6 -12.08,4.91 -17.48,1.98l-1.52 4.03c-28.32,-3.14 -9.06,0.28 -29.6,-11.09 -26.23,-14.52 -42.36,-33.18 -54.81,-60.36 -4.74,-10.33 -10.18,-23.7 -12,-34.92 -7.47,-18.96 -5.59,-104.68 52.52,-91.97 0.35,10.72 5.21,44.35 1.02,52.65 -6.48,12.85 4.9,36.21 -8.66,43.16zm158.25 -42.26c-4.59,-2.38 -5.64,-8.41 -2.35,-12.59 4.54,3.76 5.41,7.86 2.35,12.59zm-90.75 -19.1c2.78,1.13 7.03,8.55 7.3,11.52l2.17 5.05 -4.09 -2.11c-3.33,-3.97 -7.8,-9.95 -8.57,-14.75 -1.71,-1.53 -1.94,2.21 -1.49,-2.87 5.04,-0.43 3.39,-0.51 4.68,3.17zm84.31 -4.9l3.63 4.1c-4.57,1.09 -2.05,0.15 -3.6,-1.03 -4.45,-0.45 -4.86,-0.63 -7.11,-4.47 1.33,-0.77 -0.82,-3.03 5.26,-0.9 2.44,0.86 1.7,2.03 1.82,2.31zm-126.11 18.8c-0.66,-3.31 -1.27,-9.83 -1.37,-12.67l-0.19 -10.04c-0.25,-6.63 0.48,-19.75 9.17,-13.34 8.33,6.14 8.36,8.25 9.31,18.26 0.68,7.15 2.29,16.12 -1.85,22.56 -11.58,0.71 3.08,-2.86 -15.06,-4.77zm94.88 -45.03c-7.04,-1.17 -12.95,-4.51 -13.92,-11.4l4.52 -0.26c0.84,1.77 4.7,0.76 -1.23,4.18l7.61 0.61 -0.28 2.84c7.6,1.88 4.31,2.17 8.85,6.01 2.16,1.83 2.61,0.92 4.69,2.97 3.37,3.31 -0.15,0.77 2.3,3.98 2.71,3.53 11.97,8.65 13.75,13.02l-7.88 -0.98c-6.85,-9.15 -8.85,-4.09 -8.74,-12.43 -8.35,-0.99 -3.47,0.98 -7.49,-3.35 -3.52,-3.8 -4.57,0.04 -2.18,-5.18zm63.9 -33.39c4.88,-3.13 11.93,-4.08 17.62,-2.41 8.11,2.39 3.88,7.91 8.39,12.99 4.84,-3.51 5.83,-8.05 12.46,-10.42 8.56,-3.06 12.26,-0.49 19.89,0.95 11.83,2.22 19.75,11.54 28.43,19.4 9.67,8.76 14.52,14.22 19.38,26.86 4.52,11.76 12.93,21.93 12.41,35.33 -2.32,4.06 -2.08,1.89 -4.52,6.15 -1.94,3.4 -0.99,2.91 -4.44,5.57 -2.94,2.27 -2.92,2.23 -5.33,4.95 -4.75,5.35 -1.47,1.1 -6.38,3.68 -4.57,2.4 -6.4,8.03 -10.32,10.21 -1.76,0.98 -5,1.84 -7.15,3.01 -11.29,6.2 -3.37,10 -23.38,-8.53 -5.33,-4.94 -12.38,-9.96 -12.72,-17.32 7.51,-7.32 13.77,-14.03 24.02,-18.24 4.33,-1.78 7.98,-0.14 12.37,0.66 0.01,0.01 3.36,10.16 18.09,6.88 8.18,-1.82 7.19,-11.04 8.67,-17.66 -3.48,-4.38 -4.21,-3.88 -6.25,-10.25 -1.87,-5.85 -3.94,-5.25 -6.65,-11.16 -3.16,-6.88 -11.25,-12.53 -17.35,-17.68 -4.95,4.15 -3.47,2.77 -10.22,2.94 -8.91,0.23 -4.76,0.35 -10.01,4.47l-28.41 -10.56c-1.72,-1.09 -6.68,-10.85 -12.2,-7.76 9.5,4.98 7.16,3.12 10.21,13.47 11.78,3.86 22.38,8.61 31.79,15.66 4.18,3.13 3.04,0.47 7.21,3.05 4.43,2.73 1.47,2.16 4.02,4.97 3.38,3.72 4.14,-0.65 3.43,5.83 -1.24,2.84 -14.75,4.17 -17.61,4.22 -3.31,0.05 -13.45,-3.41 -16.79,-4.71l-6.23 -14.7c-12.24,-4.14 -6.4,-4.35 -15.91,-10.43 -7.67,-4.9 -14.19,-2.93 -18.38,-8.81 -0.08,-5.95 2.28,-4.12 2.09,-9.55 -0.2,-5.76 -2.29,-3.95 -0.23,-11.07zm-163.44 7.5c-0.47,-6.86 -1.08,-16.01 3.84,-21.31 4.33,-4.65 10.09,-8.12 16.42,-5.35 2.05,5.96 0.47,9.62 0.48,15.95 0.04,23.99 0.3,18.58 -20.74,10.71zm62.93 -5.46l3.46 1.2c-4.24,1.75 -1.78,2.92 -3.46,-1.2zm10.32 13.47l5.7 -0.68c1.13,-1.66 -2.98,-1.25 3.02,-1.5 3.97,-0.16 1.87,0.8 2.15,1.09 3.57,1.71 3.85,1.38 5.68,5.12l-6.32 2.03 -0.01 -0.52c-3.84,-0.14 -3.1,-1.11 -2.58,2.57 2.14,0.52 49.97,40.64 51.3,49.86 1.25,8.7 0.32,26.44 14.03,36.98 8.08,6.21 6.92,7.72 17.76,8.19 12.15,0.53 10.24,4.85 17.75,6.88 4.82,-3.12 7.5,-11.63 9.18,-16.32 6.08,-0.58 4.66,-0.93 7.63,3.95 3.01,4.95 2.98,2.76 6.48,6.2 2.28,2.24 2.87,4.64 4.78,6.74 2.96,3.24 4.27,2.03 7.11,4.92l-0.95 4.6 -12.16 5.49c0.5,8.59 0.94,3.59 2.91,8.7 -3.68,4.31 -1.38,0.96 -5.16,3.38 -14.06,8.96 -7.15,11.86 -7.06,18.33 -3.49,-0.45 -10.77,-2.51 -12.89,-4.79 -12.07,4.82 -14.57,7.47 -24.13,14.15l1.31 4.65c-5.93,5.9 -2.68,2.19 -6.89,8.73 -2.8,4.35 -5.55,3.14 -9.48,3.28l-10.93 9.65 -0.15 4.62 -5.76 0.33c-2.61,5.29 -3.62,9.22 -8.41,11.84 0.2,5.48 -5.02,4.1 -10.58,6.8 -4.39,11.05 -2.5,15.64 -16.93,19.56 -4.82,-3.36 -7.87,-3.13 -10.69,-8.78 -3.42,-6.85 -5.19,-3.22 -7.02,-12.28 1.99,-2.64 4.87,-6.85 6.12,-8.27 2.93,-5.25 8.49,-12.13 9.99,-18.46 1.64,-6.91 3.12,-18.24 3.91,-25.42 2.12,-19.19 -1.54,-35.93 -2.41,-55.08 -3.58,-6.44 -7.55,-16.08 -9.23,-23.99 -1.11,-5.23 -4.06,-7.3 -5.99,-11.65 -3.12,-7.07 0.45,-5.04 -5.2,-12.71 -7.84,-10.65 -20.4,-32.11 -30.53,-39.16l-0.31 -19.72c-7.01,-5.69 -4.74,-9.62 -6.11,-30.37 8.42,-2.61 8.01,-0.08 13.1,4.52 3.54,3.19 6.81,5.6 10.1,9.02 3.29,3.42 4.61,6.71 8.43,9.39 2.74,1.92 8.74,6.01 9.42,8.13zm67.66 -23.84c0.03,-6.06 1.97,-9.33 7.89,-10.27 4.25,3.27 6.97,9.87 5.96,14.97 -7,1.02 -1.12,0.95 -13.86,-4.7zm-77.98 10.36c-3.59,-1.49 -10.46,-7.55 -11.07,-11.03 3.61,0.2 11.44,6.5 11.07,11.03zm-12.31 -12.77c-4.55,0.32 -2.38,1.59 -2.83,-2.67 3.21,1.57 0.94,-0.84 2.83,2.67zm-40.52 -24.43c2,-1.38 -2.61,-1.73 4.21,-1.5 4.24,0.14 1.66,0.63 3.06,1.53 -3.95,2.61 -2.98,2.61 -7.26,-0.03zm52.91 5.26c3.09,0.66 9.46,3.53 12.58,5.12 3.05,1.55 7.59,7.32 9.11,10.08 -3.58,2.15 -0.14,1.21 -4.44,0.23 -1.57,4.59 -0.44,3.43 -4.67,4.97 -4.18,-2.14 -14.29,-12.41 -15.59,-16.99 -7.85,-1.11 -4.79,-2.28 -11.02,-6.1 -4.34,-2.66 -5.28,-2.64 -8.46,-6.83 7.68,-3.33 12.36,8.81 22.49,9.51zm-60.25 -10.03c1.9,-1.62 -1.04,-3.9 4.61,-0.24 -3.44,1.79 0.64,2.59 -4.61,0.24zm5.79 -6.94c-1.9,4.15 -2.71,6.41 -5.62,0.21 4.7,-3.38 2.39,-2.08 5.62,-0.21zm-1.44 -2.85c-4.41,-4.25 -5.25,-8.02 -0.42,-11.48 2.81,3.98 2.69,7.14 0.42,11.48zm-20.93 -4.8c-6.13,-1.11 -14.95,-8.86 -16.23,-14.62l9.08 -1.36 7.14 15.98zm-18.65 -15.42c-3.76,0.08 -2.82,1.54 -5.31,-3.44 4.01,0.59 3.18,0.01 5.31,3.44zm18.94 -13.99c8.01,0.53 10.36,-1.85 15.23,1.62 0.49,5.29 -2.92,10.31 -4.4,16.09 -2.37,9.26 -0.38,10.58 0.68,18.17 -8.36,-1.07 -10,-8.98 -13.24,-16.11 -3.55,-7.81 -4.07,-11.86 1.72,-19.76zm-44.02 11.9c0.97,-6.72 7.25,-12.25 13.35,-14.89 1.25,3.08 5.14,8.88 3.56,11.48 -5.06,-0.96 -0.5,-0.13 -5.11,-3.34 -5.16,3.7 -3.19,7.09 -11.8,6.75zm17.12 -10.47c4.22,-1.44 5.15,-0.56 9.88,0.39 -1.06,0.57 -1.99,0.91 -3.07,1.5 -4.03,2.23 -5.54,3.99 -6.82,-1.89zm10.51 -21.68c0.31,-1.96 1.33,-2.49 1.64,-0.14 0.26,2.02 -1.86,1.53 -1.64,0.14zm218.15 8.94c-0.02,4.65 1.97,4.52 0.79,11.72l6.9 3.67c-1.43,3.04 -0.45,2.57 -2.66,3.14 -5.79,1.48 1.3,-1.52 -2.53,-0.69l0.4 9 -1.62 4.08c-3.41,-2.15 -4.77,-8.73 -6.46,-12.99 -3.66,-9.19 -20.95,-19.7 -28.43,-24.04l-6.77 -0.98c0.22,-9.74 13.7,-17.25 21.52,-22.03 7.52,-4.58 9.98,-2.87 14.55,2.84 11.03,13.8 4.81,7.94 10.93,10.88 -0.07,8.84 -3.32,7.85 -6.6,15.4zm15.37 -9.18c-3.08,1.56 -3.03,1.51 -4.69,-2.05 4.25,-0.05 2.51,-1.1 4.69,2.05zm-228.57 -3.32c1.91,-1.23 -0.46,-2.9 3.34,0.23l-3.34 -0.23zm135.14 -10.98l-1.52 6.31c-4.01,-0.08 -4.01,-0.29 -6.69,-2.97 1.97,-3.14 2.66,-3.86 8.21,-3.34zm87.35 8.28c-4.54,-3.77 -4,-8.66 0.69,-11.92 9.11,-6.34 2.46,-2.31 6.71,-9.59l6.14 5.08c-3.22,4.6 -2.45,2.55 -6.44,3.5 3.53,5.87 11.92,8.9 11.5,17.69 -3,4.21 -6.62,5.46 -10.14,8.73l-6.94 5.13c-2.89,2.93 -0.02,2.36 -2.89,3.99 -2.63,-3 -2.89,-6.21 -2.82,-10.11 5.81,1.1 1.33,-0.98 4.96,3.88l11.1 -13.79c-1.73,-5.3 -2.44,-2.99 -0.99,-7.79 -5.58,1.43 -1.77,4.11 -7.19,0.78 1.02,-4.1 0.08,-0.78 3.76,-5.19l-6.54 1.98c-0.07,5.77 1.65,3.37 -0.91,7.62zm-237.82 17.57c15.57,1.26 50.13,-23.49 62.98,-32.5 6.22,-4.36 13.62,-6.97 20.76,-4.38 -0.55,4.78 -3.6,5.14 -8.25,6.46l-5.43 -2.39 -16.01 13.1c-3.9,2.69 -6.42,2.18 -9.78,4.37 -7.7,5.02 2.5,1.23 -12.86,9.09 -0.8,0.41 -3.21,2.2 -4.43,2.95 -12.49,7.7 -15.39,4.56 -20.92,5.25 -4.63,0.58 -1.36,3.35 -9.93,3.46 0.34,-2 -1.92,-1.68 1.51,-3.33l-9.24 0.75c3.37,-3.93 10.27,-7.67 15.03,-7.42 -1.63,5.09 -0.6,-0.66 -3.43,4.58zm101.23 -24.15c2.05,-2.76 8.58,-5.72 12.15,-7.73 6.71,-3.78 6.06,-7.32 12.63,-7.09 -1.32,4.21 -19.06,18.11 -24.78,14.82zm-13.45 -20.39c4.59,-2.07 1.26,-1.47 4.17,0.01 -5.18,3.69 -2.79,1.07 -4.17,-0.01zm143.11 3.16c0.56,-6.16 0.93,-6.42 6.67,-5.25l-3.46 2.97 5.79 0.42c-3.59,2.34 -4.79,2.41 -9,1.86zm-38.67 -10.08l4.09 -2.57 -3.9 -1.37c5.11,-4.66 3.13,-1.18 2.44,-7.55 4.36,-1.29 5.87,-2.02 9.87,0.11 4.18,2.23 5.55,1.85 10.67,3.43 8.45,2.62 11.37,3.37 16.76,10.86 -8.17,7.96 -11.71,4.58 -21.61,6.73l-2.39 -5.68c-3.16,3.27 -1.62,2.96 -5.67,2.25 -1,-3.89 -0.21,-2.7 0.69,-7.13 -5.31,2 -4.17,6.49 -10.95,0.91zm-0.74 -8.36c-4.66,1.84 -7.24,-1.28 -8.96,-5.22 3.38,0.57 6.13,2.49 8.96,5.22zm-4.43 -9.01c1.92,-1.29 -0.91,-3.99 5.08,0.07 -3.71,2.4 0.41,3.59 -5.08,-0.07zm-76.05 67c7.98,1.08 11.52,7.28 18.11,10.71 8.51,4.42 15.88,0.93 25.71,3.69 0.67,7.84 -7.65,5.51 -13.15,10.94l0.17 5.6 1.62 2.38 8.42 1.84 10.66 -1 2.13 6.35c3.25,2.28 4.71,2.11 6.5,4.97 -3.68,2.18 -0.99,1.18 -2.99,-0.3l-4.73 0.79 8.4 4.05c0.66,6.66 5.14,13.25 -0.79,15.78 -3.62,-6.42 3.18,-13.67 -5.91,-13.64 1.37,4.52 1.33,0.54 2.3,6.33 -3.73,-0.95 -4.95,-1.26 -7.26,-4.2l-3.53 -1.89 -0.8 3.32c3.82,0.46 7.3,3.57 10.09,6.28 -0.28,5.05 0.72,9.89 0.13,13.87 -6.06,1.19 -31.22,-10.25 -37.62,-13.67 0.66,-4.86 2.72,-8.45 6.54,-11.6l0.64 -4.37 -2.37 -1.09c-0.44,4.63 -3.2,9.09 -5.48,13.43 -11.91,-0.68 -55.07,-21.19 -65.6,-28.33 1.16,-7.9 -0.92,-20.04 -0.69,-27.72l-3.34 -1.6c0.29,-7.1 8.42,-20.75 14.51,-24.79 17.78,3.72 29.98,20.12 56.27,-4.66 9.11,-8.59 18.7,-21.28 25.43,-32.15 3.92,-6.33 5.05,-5.71 8.84,-10.55 5.71,1.34 3.62,2.37 9.58,0.54 1.1,4.53 -0.8,0.63 2.4,4.32l4.47 -1.21 -2.19 5.52c3.1,4.41 6.73,4.41 10.99,8.82l-6.7 -0.71c-2.75,8.15 -6.87,12.52 -8.65,19.55 -2.02,7.95 -3.09,13.77 -9.3,19 -7.29,6.13 -26.82,21.88 -36.09,19.71 1.18,-5.17 5.71,-4.25 11.51,-7.26 8.55,-4.44 28.59,-18.37 27.73,-28.02 -6.95,-0.16 -1.58,2.02 -12.62,11.09 -1.46,-4.06 0.7,-2.85 -2.51,-7.22 -6.6,-0.73 -7.76,2.65 -15.4,2.64 -1.02,-5.37 1.83,0.89 0.14,-4.31 -8.25,0.55 -5.03,3.82 -11.09,8.17 -3.21,2.31 -7.89,4.57 -10.56,7 4.45,3.48 4.58,1.94 5.83,7.53 4.47,-0.88 5.86,0.2 6.89,4.27 -7.11,4.52 -19.39,-1.38 -26.06,-5.81 3.38,1.74 7.19,4.53 9.38,7.63zm-6.67 -67c1.63,-1.17 -0.97,-3.57 4.5,-0.06 -3.17,1.57 0.17,2.32 -4.5,0.06zm10.49 -14.12c5.85,-3.05 9.91,-6.2 15.92,-5.85 -0.5,6.43 -9.69,11.35 -15.22,11.55l-0.69 -5.7zm-25 4.7c0.77,-1.94 1.85,-2.8 2.46,-4.28 2.23,-5.39 0.19,-1.38 0.49,-4.26 0.33,-3.15 9.11,-13.21 14.83,-16.04 0.05,-0.02 6.08,-6.09 5.32,5.19 -4.06,-0.08 -2.67,-1.79 -7.01,1.86 -6.58,5.54 -10.87,15.56 -16.08,17.53zm12.72 -36.02c0.23,-4.32 -1.45,-2.29 3.1,-3.02 -0.76,2.82 1.39,2.39 -3.1,3.02zm14.17 5.46c-1.72,-6.71 1.41,-8.96 7.37,-9.98 -0.91,3.78 -3.94,8.66 -7.37,9.98zm-46.76 6.87c-1.02,-6.13 -3.17,-4.54 -4.5,-9l4.74 -0.34c3.03,-0.23 0.16,-0.98 4.32,-0.32 3.21,4.86 0.03,3.95 4.56,9.52 2.64,-1.17 3.66,-2.75 6.36,-5.3l-3.29 -10.5c-5.77,-0.35 -28.63,6.8 -33.71,10.19l10.16 19.09c-13.5,-2.2 -5.33,-6.59 -14.11,-12 -0.29,-10.88 5.89,-11.92 14.21,-16.74 7.5,-4.34 15.12,-7.52 24.12,-6.36 1.53,3.08 1.79,5.92 3.54,9.29 1.64,3.15 3.09,4.34 4.4,7.15 -2.79,4.6 -10.2,9.01 -14.21,11.88l-11.51 -3.39c-0.26,0.32 -0.55,0.74 -0.7,1.03 -0.14,0.27 -0.45,0.71 -0.6,1.04l-2.27 -6.31c7.67,0.47 1.35,1.9 8.5,1.09zm22.12 -11.11c-3.03,-1.21 -7.12,-2.78 -4.38,-10.24l4.2 -0.8c3.44,5.66 2.66,5.96 0.18,11.05zm7.25 -15.91c4.55,1.1 6.17,2.06 7.64,6.31 -13.18,-0.24 -5.8,2.42 -11.65,0.31 -0.15,-2.19 2.17,-3.94 4.01,-6.61zm60.89 4.2c3.02,-2.42 3.28,-1.55 7.73,-2.19 -0.38,5.11 -6.6,8.06 -7.73,2.19zm-70.77 -7.94c2.53,-4.42 3.91,-1.31 4.79,1.83l-4.79 -1.83zm-9.37 0.17c-1.84,-3.45 -1.84,-4.51 1.59,-6.88 1.78,3.67 1.42,3.1 -1.59,6.88zm-3.6 -14.11c0.65,2.9 0.47,1.13 -1.5,1.71 -0.36,8.32 -0.41,8.81 -3.13,16.27l-14.54 6.01c-3.01,4.91 -9.56,6.51 -14.9,5.12 -0.33,5.32 0.76,3.07 -1.61,6.83 -13.22,-6.99 -7.11,-8.72 -11.15,-15.73 -3.1,2.81 -3.33,3.81 -4.37,8.24 9.83,7.28 18.14,6.23 14.84,21.31 2.05,1.73 1.15,0.47 2.54,3.13 4.83,9.18 1.95,3.58 8.31,6.78 4.78,2.41 -0.89,1.37 11.39,8.61l4.61 -3.44 -1.1 -3.89c6.08,-2.45 13.25,-1.13 18.55,-3.38 6.78,-2.88 4.26,-7.39 10.04,-11.81 -0.84,5.36 -4.24,10.81 -7.26,15.93 -4,6.78 -0.06,9.16 -3.82,15.07 -4.26,6.71 -9.5,3.97 -16.21,5.58 -8.34,2.01 -10.47,2.5 -19.14,2.77 -5.43,7.46 -0.2,1.06 -8.08,5.56l2.16 5.91c-6.29,0.92 -3.16,-1.38 -7.91,1.5 3.46,5.51 4.24,1.95 10.32,0.85l17.54 13.51c-9.91,16.97 -23.81,-1.6 -34.01,-4.56 -3.96,3.84 -2.76,3.56 -0.07,7.38 -6.78,1.75 -0.23,0.54 -6.57,3.5l0.48 -9.43c-3.26,5.02 -4.97,17.22 -7.92,19.73 -5.25,4.47 -12.87,5.23 -19.29,7.63 -1.04,2.39 -1.5,1.03 -3.32,5.31 -1.69,3.96 1.05,2.18 -3.95,5.14 -3.97,2.35 -9.02,3.92 -13.41,4.08 -1,3.29 -0.72,2.57 -0.21,5.69 -5.09,-0.05 -4.44,-0.24 -8.92,1.56 0.11,5.46 -1.87,5.87 0.36,14l3.07 10.88c5.68,1.29 5.7,-0.92 11.22,-3.13 4.47,-1.79 8.85,-1.67 13.38,-2.11 4.43,-3.72 4.92,-6.35 10.65,-7.76 5.99,2.25 12.02,11.89 20.99,16.89 5.78,3.22 17.05,12.86 17.69,18.75l-2.83 1.47c1.23,1.25 -0.27,1.04 3.48,3.11 -2.86,4.98 -3.32,5.75 -8.88,7.46 -1.4,-4.39 -1.41,-0.71 0.48,-5.26 -2.24,2.79 -2.21,2.24 -5.17,2.58 2.45,5.05 1.3,0.67 1.45,5.78 -5.48,-0.07 -0.64,1.58 -5.91,-1.62 1.43,7.08 4.33,19.44 -0.14,25.16 -3.73,-0.26 -2.91,-1.62 -6.93,-1.63l-34.3 9.93c-4.22,4.67 -4.67,5.4 -11.39,7.24l2.03 4.43 -8.35 0.73c2.59,2.48 2.32,-0.35 4.6,3.88l-10.69 3.37c5.09,0.81 3.5,-0.51 5.76,3.27 -5.14,5.87 -6.54,-0.42 -10.93,5.19 3.34,1.42 2.29,-1.38 6.55,1.24 -2.42,5.77 -7,2.3 -11.36,7.24 4.31,-0.61 2.9,-1.67 6.5,0.45 -1.54,4.91 -3.74,3.62 -8.33,6.83 4.88,1.28 2.63,-0.33 5.42,3.13 -4.28,5.83 -6.22,2.55 -9.32,7.31 5.53,-0.6 4.09,-2.46 8.64,1.52l-7.64 8.15c3.49,2.82 2.45,0.7 4.11,4.65 -4.59,5.84 -8.63,3.19 -8.96,8.82 5.14,-0.7 1.12,-2.27 6.98,-1.73 1.53,5.53 -1.69,7.89 -7.19,8.57l-0.24 6.27c3.85,-3.93 0.28,-2.45 4.99,-5.51l3.95 4.15c-2.8,4.29 -5.54,4.44 -9.31,6.55l3.87 17.17 3.53 -4.54 4.67 5.76 -7.11 4.2 1.06 5.34 5.02 -2.39c1.16,7.34 -0.06,2.54 -2.41,7.37l1.23 3.55c5.39,-1.33 2.03,-1.84 5.92,0.82 -0.44,6.93 -0.19,2.62 -4.23,7.41 1.71,9.73 5.86,8.46 7.69,17.35l5.37 -0.74c0.03,7.47 -2.07,2.14 -2.05,8.39 3.73,-1.92 0.79,-2.41 4.77,-1.03l-3.76 4.77c4.14,0.3 1.15,0.98 4.73,-1.48 0.68,6.6 -1.77,5.75 2.14,11.46l4.05 -2.67c0.94,6.67 -0.49,0.67 -1.86,7.37 4.25,6.22 3.05,5.67 9.23,5.46 1.84,7.42 0.51,2.8 4.21,8.3l3.5 5.82 4.4 0.38c2,3.99 -0.01,2.11 3.72,4.45l-1.11 3.3c4.8,2.15 5.04,5.39 11.02,8.9 4.21,2.47 7.65,4.58 11.72,7.37 7.04,4.81 3.3,5.34 12.53,6.58 6.22,0.84 9.51,1.42 12.41,7.21 -4.06,5.74 -7.48,4.47 -6.25,13.84 5.46,2.94 6.48,2.46 13.61,3.44l2.74 -5.03 1.13 5.23c11.05,0.36 8.69,-4.32 18.03,4.51 -2.1,4.45 -2.35,0.49 -3.75,5.56l-2.79 -0.13c0.09,0.42 0.15,0.63 0.25,1.27 0.1,0.6 0.22,0.92 0.35,1.17 0.46,0.82 1.45,2.11 1.94,2.6l1.09 1.97c-0.86,1.53 -1.68,2.66 -2.47,4.84 -5.69,-0.89 -0.86,-0.6 -4.19,-1.37 -4.62,5.08 -1.09,6.13 -7.34,8.31 -2,-4.4 0.02,-1.46 -0.36,-7.76l-3.94 8.49c3.9,1.19 5.42,0.74 6.47,3.5l-5.19 0.01c2.85,3.9 1.06,2.59 4.5,4.27 10.19,4.98 -5.22,-4.05 2.97,1.33 -3.21,2.53 -4.61,2.33 -7.68,3.63 10.53,10.02 -1.52,9 -7.42,12.96 0.96,7.86 -3.3,23.63 -2.71,34.07l9.71 0.27c4.32,-4.53 -0.2,-1.58 5.88,-3.96 11.67,-4.58 4.06,-1.33 13.68,0.95l4.64 -5.69c-6.42,-4.25 -3.65,-2.64 -7.36,-9.26l3.06 -1.85 2.63 -5.12 -3.44 2.37 -6.9 1.77c-0.21,0.07 -0.53,0.33 -0.75,0.42 -0.24,0.1 -0.54,0.37 -0.79,0.48 -0.26,0.12 -0.58,0.33 -0.85,0.45l-9.5 4.25 1.15 -7.07c4.88,-0.45 3.5,0.83 6.66,-0.64 -3.57,-1.87 -1.74,-1.08 -6.82,-1.49 -0.31,-3.14 -0.53,-0.5 1.73,-2.54 -0.02,-1.23 -1.93,-1.72 0.79,-0.97l-0.73 -2.9 -3.34 0.34 2.17 -3.38c5.24,1.67 5.03,2.73 6.19,7.23 6.42,-1.8 2.01,-0.82 6.03,0.45l3.95 -2.35c-2.99,-4.22 0.95,0.34 -4.5,-3.22 1.38,-2.33 2.69,-2.57 0.4,-5.96l-4.73 -0.75 -3.2 -8.6 1.2 -1.79 4.18 1.78 3.62 3.14 0.22 -0.56c3.49,-0.32 5.72,-1.17 8.86,-0.9 5.14,0.44 4.13,1.16 5.1,3.49l-6.3 2.29 -3.59 2.72c1.61,5.35 5.21,5.2 9.19,9.15l-3.94 6.23c4.08,1.08 1.11,-3.68 4.68,2.57 3.73,-1.22 2.74,-1.58 6.4,0.07l-1.11 3.99c-0.47,2.84 -0.23,1.31 0.07,3.17 4.28,1.8 1.21,1.27 5.92,-0.75 -0.08,4.8 1.8,1.5 -2.31,5.2l2.82 0.94c-0.24,5.91 -1.12,3.17 0.87,6.96l3.75 5.97 0.01 -1.27c0.26,0.4 0.59,0.5 0.76,1.2 0.17,0.68 0.55,0.85 0.77,1.13 0.29,0.37 2.16,2.52 2.4,2.77l-0.07 0.01 -2.38 4.25 0.9 2.65c20.45,-0.3 48.26,2.67 69.15,0.56 -1.02,-5.41 -3.08,-5.72 -2.99,-11.47l-3.81 1.41c-0.64,-4.95 -1.15,-6.03 0.63,-10.11l3.26 5.59c-2.37,-14.36 6.38,-28.68 16.33,-37.27 1.47,-1.27 3.34,-2.51 5.05,-3.9 4.54,-3.69 0.49,-1.88 5.14,-2.23l0.03 -4.03c3.85,0.54 2.41,0.77 6,-1.83 3.45,1.74 3.4,1.21 7.37,-1.35 -0.32,-5.82 -4.5,-6.98 2.9,-8.65 2.62,4.17 0.98,2.54 0.66,7.25l38.98 -11.32 0.84 -8.29c0.61,-5.29 -0.18,-6.56 4.2,-8.04 1.87,4.28 0.4,9.58 0.9,11.44 1.12,4.18 -0.9,1.55 2.95,3.59 3.3,-0.67 3.46,-0.35 6.35,-2.52 6.53,-4.92 2.66,-1.1 5.67,-2.39 0.63,-0.27 8.4,-7.67 9.89,-9.21 -3.66,-4.73 -2.14,0.29 -3.73,-4.66 13.01,-1.02 -2.11,11.87 26.29,-13.33 10.93,-9.69 8.63,-3.22 11.77,-19.83 -7.35,1.62 -2.69,1.59 -7.79,3.77 -0.01,-8.22 2.14,0.67 5.38,-8.05l-5.24 0.23c-3.09,-5.99 -6.75,-5.93 -12.88,-6.92 -1.53,1.17 0.53,2.47 -3.59,0.54l3.68 -1.23 1.42 -0.13 -1.18 -4.12c-5.65,1.57 -1.3,1.59 -6.32,1.26l3.76 -4.82 -6.34 -0.41 2.82 -3.1c-3.46,-3.81 -2.49,-1.88 -2.34,-7.25l-6.1 -0.2c0.46,-5.19 1.07,-3.31 -0.16,-7.44 -1.35,-4.49 1.1,-8.94 -2.29,-14.7l-7.93 3.42c-0.44,-7.65 4.98,-0.45 5.18,-9.39 -5.97,1.18 -5.72,4.15 -9.5,7.8 -4.53,-1.08 -8.8,-2.81 -11.41,-7.11 1.99,-5.52 2.5,-0.42 2.49,-7.87 -17.24,6.74 -1.6,0.93 -14.37,3.96 1.31,-6.81 14.95,-10.76 24.84,-14.62 7.37,-2.88 17.97,-11.71 23.4,-17.44 5.42,-5.72 2.59,-7.7 7.24,-13.24l32.86 -28.2 -1.53 -4.61 4.55 1.67c0.36,-6.06 -1.2,-2.2 -0.04,-8.63l6.27 -0.79 4.45 -6.05 -0.76 -3.88 6.57 -8.85c-3.44,-4.52 0.21,-0.72 -4.41,-1.51l-5.48 2.42c4.94,-9.58 24.28,-15.93 27.5,-21.48 -7.08,-4.47 -18.83,9.65 -27.62,7 -2.2,-4.44 -4.11,-14.23 -6.35,-19.35l-20.07 -30.97c-3.42,-5.27 -8.08,-7.65 -11.74,-13.85 -2.74,-4.63 -9.1,-7.81 -13.74,-11.69 -8.62,-7.2 -23.53,-14.18 -35.09,-15.9 -11.01,-1.63 -12.65,5.33 -20.88,2.67 -1.72,-5.43 0.77,-19.2 -0.93,-28.42 -1.77,-9.6 -0.38,-14.34 6.67,-20.18 16.77,-13.9 16.88,-8.8 23.39,-31.59 0.45,-11.08 -0.45,-25.28 -10.33,-31.89 -9.25,-6.19 -4.02,-0.54 -10.01,-10.35 -2.99,-4.89 -22.48,-13.55 -26.11,-14.83 -9.78,-3.43 -35.05,-14.84 -36.18,-24.33 3.85,-2.89 7.84,-3.21 11.26,-5.31 4.93,-3.02 1.84,-6.04 7.01,-9.85 0.59,-2.33 14.14,-22.49 -8.19,-30.25 -5.84,-2.03 -14.37,-2.05 -19.63,1.37 -16.27,10.57 -9.81,-5.87 -22.44,9.16l7.39 -2.02 -0.8 6.32 -2.29 1.62 0.04 4.84 1.17 -0.7c5.24,-3.76 6.3,-7.43 12.82,-2.26 -4.14,5.6 -4.42,3.22 -9.94,1.93l-3.71 2.42c-3.8,0.56 -4.11,-0.26 -7.37,-2.44l-0.03 8.97c4.33,-3.27 0.96,-2.49 6.2,-3.15 0.13,6.54 -4.86,13.08 -11.64,13.76l0.77 -1.7c0.11,-0.22 0.36,-0.57 0.48,-0.83 0.13,-0.26 0.4,-0.56 0.51,-0.83 1.99,-4.66 1.1,-1.88 0.25,-5.41l-7.1 6.7c-3.48,-5.79 -5.3,-16.35 -2.46,-23.2 5.23,1.38 -3.68,-4.87 2.04,1.34 0.18,0.19 0.36,0.59 0.53,0.8 2.35,2.84 -2.4,-0.41 2.81,3.11l0.07 -8.64c-8.87,-2.14 1.03,-3.94 -14.9,1.48 -14.91,5.07 -4.2,-3.14 -17.51,-17.47l-12.76 -12.81c-5.61,3.45 0.07,-3.13 -3.27,4.64 2.48,-0.74 2.95,-1.49 5.47,0.62 -0.95,2.43 0.01,1.21 -7.42,6.71l-3.58 -6.76 -5.24 0.09zm-49.04 584.15c5.62,-2.89 1.14,1.6 5.47,-2.79 2.68,-2.72 1.21,-3.1 5.69,-3.01l-8.62 10.64 -2.54 -4.84zm-9.69 -24.48c0.81,8.83 2.42,5.41 7.45,4.17 -0.16,4.4 -0.99,5.2 -4.13,8.52l-0.03 11.22c5.96,-3.37 3.78,-9.69 11.96,-13.73l1.44 -2.94 5.02 3.15c0.73,3.52 0.9,1.43 -0.93,1.98 -2.47,2.06 -0.48,1.15 -4.16,1.9 -0.16,0.03 -3.03,-0.02 -3.62,0.02 -1.32,4.25 -5.9,11.38 -9.76,13.78l-0.03 2.7c3.44,2.97 3.17,1.41 4.34,6.27 0.46,4.42 -0.59,3.68 3.91,5.14 4.41,-2.58 0.05,0.18 2.32,-2.71l2.45 -2.84c2.69,-3.48 0.03,-1.02 1.3,-5.1l5.11 -2.14c-0.13,-7.57 -1.56,-7.15 1.37,-15.65 2.69,-7.79 -4.13,-10.74 -0.03,-11.87 0,-2.71 0.61,-1.88 -2.33,-1.98l-1.29 -0.39c-1.59,2.99 -0.65,2.77 -5.1,3.3 -0.3,2.94 1.38,0.84 -2.48,2.76 -1.71,-2.26 -2.82,0.31 -1.36,-5.56l-5.1 0.15c-4.28,-0.85 -1.5,0.69 -6.32,-0.17zm281.12 -128.9c-5.92,4.07 -1.54,2.71 -3.48,10.44l-9.22 0.72 -1.96 9.17 13.23 -6.42 1.33 4.37 16.53 -8.96 -0.54 -4.85c4.5,-1.97 2.94,0.13 5.88,-3.4 -4.08,-2.23 -1.09,-0.7 -6.31,-0.56 1.99,-5.07 0.75,-2.4 -3.6,-5.87 -1.93,3.34 -0.32,-0.88 -0.86,4.97 -2.36,-0.67 -2.72,-1.22 -5.53,0.11 -1.64,-5.71 -2.15,-7.2 -8.08,-6.04l2.62 6.31zm-263.46 172.84l-2.93 5.02 -0.54 -3.47 -1.75 0c-3.46,4.78 -0.84,0.75 -1.36,6.82 -0.3,3.45 -1.59,4.74 -2.59,8.42l31.45 -0.04 -3.14 -4.45 0.06 -0.85c-4.46,3.58 -1.88,2.46 -5.93,1.02 2.38,-9.6 3.79,-3.22 10.4,-8.48 -0.8,-2.08 1.05,-0.46 -2.87,-1.91 -3.82,3.72 1.24,1.1 -4.94,2.82 -2.48,0.69 -2.29,0.4 -5.01,0.72 -1.47,4.36 -2.66,3.84 -7.15,4.04 0.33,-7.28 2.5,-6.87 0.01,-15.27 -2.35,4.38 0.43,3.75 -3.73,5.6zm-25.39 10c3.85,1.42 2.46,1.42 2.18,6.81l3.18 -0.04c-1.88,-4.88 -2.26,-2.26 -0.2,-5.72 3.61,3 1.95,0.82 2.49,5.59l5.94 0.12c1.89,-7.13 4.51,-4.4 2.79,-11.89 -4.02,-0.61 -2.5,-0.28 -5.94,-0.01 -4.25,0.34 -0.69,1.62 -4.42,-0.58l-0.92 0.21 -5.39 -0.46 -0.77 2.62 1.06 3.34zm297.21 -206.38c5.4,0.28 7.6,1.74 11.7,1.7 0.21,-4.65 -1.81,-11.19 -7.44,-14.08 -3.9,1.34 -3.72,1.84 -6.15,4.99l1.88 7.39zm-209.46 212.02l0.22 -6.75c-5.7,1.04 -7.99,3.27 -12.54,-0.37 5.23,-2.75 1.99,-0.88 3.87,-3.88l-0.1 1.27c-1.91,-3.53 2.54,-1.95 -2.47,-3 -2.03,-3.2 -0.42,-0.73 -3.88,-2.36 0.57,5.3 2.88,2.55 -1.86,4.65l3.64 3.29 -2.69 7.76 15.8 -0.6zm240.33 -263.52c5.16,4.3 2.05,5.37 8.55,6.14l5.51 2.76c1.9,1.39 3.24,2.59 5.88,3.58 -0.97,-3.69 -12.82,-18.15 -20.54,-19.11 2.83,6.34 2.29,0.89 0.6,6.63zm-43.77 65.88c7.26,-0.91 -0.01,-0.64 5.28,-3.29 2.29,-1.14 1.2,-0.21 4.03,-1.06 0.02,-0 2.58,-1.07 2.82,-1.17 -3.91,-3.02 -1.62,0.04 -3.28,-3.37 2.92,-4.39 2.87,-3.73 0.68,-8.14 -2.92,5.22 -0.56,2.91 -3.21,3.65 -1.3,-4.82 0.01,-3.46 -2.8,-7.77l-6.68 11.38 4.03 0.82c2.37,-3.54 1.28,-2.21 1.39,-7.14 8.58,11.31 -0.95,15.38 -2.18,9.25 -0.09,-0.48 -0.33,-0.63 -0.98,-0.86l0.9 7.68zm-30.31 2.49c-0.71,7.37 5.47,2.34 -0.86,7.21 7.15,-0.83 10.59,-4.32 14.31,-10.39l0.7 -1.62c-5.75,2.17 -6.77,5.97 -7.77,7.02 -2.95,3.07 -1.05,1.2 -3.81,2.11 1.81,-4.66 2.06,-2.67 4.3,-6.7l-3.88 -4.98 -9.44 7.79 3.8 2.22c1.18,-3.29 -1.23,-3.16 2.95,-4.9 0.53,1.9 -0.09,0.12 -0.29,2.26zm60.63 -25.3c1.24,2.09 -2.6,4.68 -3.96,6.19 7.47,5.08 4.13,7.15 10.12,11.8 1.64,-2.07 1.69,-2.31 3.96,-4.01 -4.76,-8.03 -3.41,-7.25 -10.11,-13.97zm-341.96 191.9c0.01,-3.66 -2.12,-3.53 -5.59,-5.46 -0.54,-7.86 1.85,-5.64 2.29,-13.33l-1.8 4.3 -4.53 -1.11 -0.31 6.36c-4.3,-1.27 -0.85,-1.88 -4.36,0.35 1.65,4.62 0.36,-1.35 1.56,2.7 1.61,5.42 -3.18,2.29 1.68,7.03 2.74,-2.46 1.1,-1.08 2.1,-2.83l1.45 -2.98c3.75,3.95 2.92,2.06 7.51,4.96zm81.77 18.72c5.82,2.4 4.7,1.21 10.8,1.34 -1.22,2.47 -3.72,4.63 -5.74,6.4l0.45 0.03 -0.26 3.24c6.43,-0.93 7.09,1.19 9.39,-3.3 -4.54,-1.4 0.16,2.39 -5.53,-1.13 4.91,-2.9 2.41,-0.16 4.49,-3.92 -3.19,-6.78 -6.79,-6.3 -13.62,-5.62l0.02 2.97zm281.37 -266.34c2.02,0.18 1.31,-1.92 1.61,0.95l-0.86 4.42 10.21 4.41c-4.28,-3.43 -4.13,-1.77 -3.69,-6.01 3.85,1.06 1.6,2.4 8.25,1.8 -4.6,-5.62 -5.35,-2.55 -8.12,-7.06 -4.26,-0.12 -2.86,0.21 -6.01,-2.4 -2.37,2 -1.65,-1.23 -1.39,3.88zm6.57 -23.13c-1.36,2.24 -2.17,2.97 -3.28,5.35 -3.23,6.95 -1.75,3.19 0.87,4.45 1.92,-7.65 14.06,-11.73 16.43,-16.45 -6.34,0.9 -9.34,4.96 -14.02,6.66zm-328.33 230.72l4.03 -0.21c0.57,5.22 0.3,2.05 1.58,3.67l1.27 -3.72 1.45 2.74 2.9 0.97 -0.41 -3.65c-4.75,-1.48 -0.96,-0.76 -4.27,-5.09 -1.9,-2.48 -1.92,-2.46 -4.83,-3.11 0.31,5.65 2.1,3.2 -1.72,8.4zm-9.39 6.43c-0.7,-6.76 0.31,-1.16 -2.27,-6.48l2.55 -1.8 0.66 -1.78 -3.94 0.53 -4.74 3.76 4.23 1.93 -3.26 6.46c7.53,2.41 0.43,-3.22 6.78,-2.63zm48.9 -545.77c1.73,3.65 -0.46,2.47 2.88,2.81l0.75 -5.26c4.44,5.64 1.3,3.05 4.9,1.54l0.91 -4.89 -9.05 1.25 -0.39 4.55zm-32.6 92.41c3.74,4.77 7.82,8.46 14.25,9.19 -0.37,-0.31 -3.42,-2.72 -3.43,-2.74 -3.37,-4.8 0.46,2.09 -0.6,-1.88l-0.15 -1.41c-6,-0.54 -5.08,-2.19 -10.06,-3.17zm43.96 -30c0.2,-5.79 -1.14,-6.69 -7.24,-6.18 1.09,5.45 2.09,7.02 7.24,6.18zm1.92 -77.03l8.74 0.73 1.51 -4.6 -8.35 0.02 -1.91 3.85zm-89.21 587.73l0.77 7.83c1.42,0.09 1.14,-1.93 1.14,0.89 3.97,-0.17 3.04,-0.89 4.03,-4.84l-1.77 -0.46 0.72 -2.53 -4.89 -0.89zm314.68 -109.75l2.34 -8.11c-4.11,0.85 -6.41,1.6 -7.11,6.65l4.77 1.47zm36.15 -69.38c3.06,4.45 4.04,6.41 9.16,7.52 -0.76,-2.93 -0.67,-3.88 -3.34,-6.09 -2.66,-2.2 -2.07,-1.84 -5.82,-1.43zm-268.53 -360.62c1.83,2.52 -0.15,1.81 5.43,2.51 -0.52,-4.52 -1.8,-6.62 -3.96,-10.56 -3.43,4.71 -1.81,1.22 0.73,6.46l-2.19 1.59zm248.19 380.76c2.69,4.1 3.28,2.05 8.59,3.72 -0.02,-0.78 1.8,-3.19 -2.53,-4.87 -3.12,-1.21 -4.56,0.32 -6.07,1.15zm-332.73 155.94l-2.77 -1.29c-1.3,-2.73 0.72,-1.96 -1.93,-2.16l-0.58 7.31 2.31 -1.96c3.71,4.62 0.37,5.06 4.09,3.67l-1.12 -5.56zm307.94 -126.9c4.96,-0.98 2.76,-2.84 2.93,-3.3 -5.23,-3.64 -3.77,-2.47 -6.87,1.17 0.42,0.59 -1.25,3.16 3.94,2.13zm-248.59 107.72l-0.23 -0.14c5.06,-1.01 2.53,0.41 6.66,-3.68l-3.53 -2.1 -0.53 2.51c-3.16,-1.94 -1.79,-1.96 -4.59,-1.01l2.22 4.42zm292.31 -138.26c0.74,-4.45 0.44,-4.62 -2.16,-7.8 -3.11,3.84 -4.8,5.33 2.16,7.8zm-325.15 144.63c2.24,3.82 2.26,2.45 7.52,3.17l-1.08 -4.85c-4.54,-0.54 0.45,0.23 -6.44,1.67zm361.88 -98.51l1.3 -0.63 -0.28 -8.06 -4.31 2.64c0.91,1.59 1.4,3.29 1.53,3.55 1.61,3.16 -0.8,-0.17 1.76,2.51zm-317.33 -471c3.72,0.4 10.67,-3.32 13.66,-5.45 -5.14,0.18 -9.53,1.75 -13.66,5.45zm232.94 420.9c2.49,-5.56 2.29,-4.37 -0.79,-6.02 -2.84,1.51 -2.01,0.92 -2.88,5.66l3.67 0.35zm32.88 -29.5c1.43,-2.89 3.68,-2.58 -1.37,-6.2 -4.69,5.65 -3.36,4.27 1.37,6.2zm49.21 -8.27c-0.16,-5.13 -1.02,-6.7 -6.22,-7.38 0.85,3.54 3.22,5.08 6.22,7.38zm-20.72 98.91c-5.38,-3.02 -4.67,-0.88 -5.29,-6.49 -2.96,4.72 -1.86,2.47 -6.23,5l11.52 1.49zm-140.66 -74.21l17.75 -10.43c-5.67,-1.23 -13.59,8.68 -17.75,10.43zm151.58 70.97c-1.24,-4.85 0.05,-5.16 -5.31,-5.14l1.24 4.12 4.08 1.01zm-43.34 21.06c-2.25,-5.24 -1.54,-1.45 -0.81,-5.18l-0.04 -3.7c-1.66,4.85 -3.18,4.29 -2.76,9.3l3.61 -0.42zm-297.88 56.08l2.47 0.13 1.12 -4.45c-1.89,0.37 -4.3,1.62 -3.44,-0.77l-2.03 2.2 1.87 2.89zm0.86 45.58l-2.42 3.72 5.98 0.2 -4.22 -6.92 0.66 3zm276.58 -208.38l1.64 -4.25 6.47 -0.12c-3.4,-1.8 -12.29,-1.6 -8.11,4.37zm35.84 92.47c2.38,5.17 0.46,1.36 -2.32,6.03 7.42,-0.71 -0.19,-1.16 6.98,-3.72l-4.66 -2.31zm0.22 -112.43c4.16,-1.64 4.12,-2.65 2.12,-6.74l-0.69 1.71c-0.09,0.26 -0.53,1.5 -0.64,1.83 -0.96,3.09 -0.39,0.33 -0.79,3.2zm-334.54 239.43l-0.91 -3.82 -2.83 -0.15 0.08 3.43 3.66 0.54zm312.12 -131.48c3.74,-2.92 2.2,-3.51 1.46,-5.29 -3,2.41 -3.33,1.82 -1.46,5.29zm46.08 -146.74c-3.29,-1.88 -1.28,-2.93 -4.52,1.09 3.34,2.34 2.68,1.89 4.52,-1.09zm-343.21 207.66l-4.16 1.45c0.93,5.14 -0.12,1.96 2.32,3l1.85 -4.45zm36.81 -523.93c3.81,2.86 4.68,0.5 6.43,-2.32l-6.43 2.32zm275.2 399.76c2.27,3.03 -1.6,3.52 4.12,4.6 -1.15,-3.29 -1.33,-3.93 -4.12,-4.6zm-259.56 200.62l0.13 -3.18 -3.9 1.57c2.06,2.86 0.16,1.4 3.76,1.61zm-66.06 2.8l2.14 -1.15c-2.31,-4.91 0.24,-2.81 -2.65,-4.58l0.51 5.73zm-3.61 -51.59c-5.64,-0.23 -2.83,-0.85 -3.41,2.39l4.51 -1.3 -1.1 -1.09zm-6.45 29.68l-0.72 -2.78c-3.6,-2.44 -0.61,-1.4 -3.07,-0.25l3.79 3.04zm10.72 -19.69c-1.99,-0.94 -1.16,1.89 -1.85,-2.9l-1.55 2.2c3.21,4.11 0.94,1.88 3.41,0.7zm31.54 -20.81l4.18 -0.06 0 -0.48 -5.72 -1.39 1.54 1.93zm299.45 -173.39c2.04,1.49 -0.84,2.42 3.54,0.15 -3.71,-3.07 -0.95,-1.51 -3.54,-0.15zm-256.74 220.46c-0.85,-4.87 -1.02,-2.97 -3.67,-2.87l3.67 2.87zm64.39 -575.78l0.25 0.11c-2.77,1.86 -2.94,-1.05 -1.88,2.96 3.5,-0.59 0.79,0.96 1.63,-3.08zm221.51 322.48l3.88 0.02c-4.58,-3.32 -2.34,-1.48 -3.88,-0.02zm-362.47 234.7l-0.72 -3.9c-2.47,3.38 -1.2,1.57 0.72,3.9zm301.33 -126.45c0,2.47 1.48,-0.82 1.57,-1.22 0.41,-1.69 -1.58,-1.36 -1.57,1.22zm44.39 -92.02l2.99 0.43c-5.15,-3.89 -2.41,-0.76 -2.99,-0.43zm-358.53 181.95l-2.45 3.26 2.45 -3.26z"/>
  </g>
 </g>
</svg>
