<?xml version="1.0" encoding="UTF-8"?>
<!DOCTYPE svg PUBLIC "-//W3C//DTD SVG 1.1//EN" "http://www.w3.org/Graphics/SVG/1.1/DTD/svg11.dtd">
<!-- Creator: CorelDRAW 2018 (64-Bit) -->
<svg xmlns="http://www.w3.org/2000/svg" xml:space="preserve" width="112.977mm" height="126.468mm" version="1.1" style="shape-rendering:geometricPrecision; text-rendering:geometricPrecision; image-rendering:optimizeQuality; fill-rule:evenodd; clip-rule:evenodd"
viewBox="0 0 748.99 838.43"
 xmlns:xlink="http://www.w3.org/1999/xlink">
 <defs>
  <style type="text/css">
   <![CDATA[
    .str0 {stroke:#17A135;stroke-width:2.65;stroke-miterlimit:22.9256}
    .fil0 {fill:none}
   ]]>
  </style>
 </defs>
 <g id="Layer_x0020_1">
  <metadata id="CorelCorpID_0Corel-Layer"/>
  <g>
   <path class="fil0 str0" d="M155.31 829.56c-1.06,-3.12 -0.34,-4.57 2.11,-5.11 1.67,2.27 2.01,5.67 -2.11,5.11zm20.94 -0.45l-3.79 0.4 -0.03 -4.73c3.49,0.16 6.6,0.56 3.81,4.34zm-11.78 -5.51c4.77,-0.72 4.52,3.41 2.66,5.99l-1.82 0.12c-1.57,-2.03 -1.58,-3.55 -0.84,-6.11zm-16.17 5.11c-2.02,-2.68 -2.55,-6.41 2.36,-5.95 0.66,2.85 0.19,4.82 -2.36,5.95zm484.1 -3.65c-0.22,-5.01 1.27,-4.23 4.12,-2.43 0.71,5.36 -1.49,5.02 -4.12,2.43zm-451.3 -2.51c1.62,-1.47 0.82,-1.38 3.05,-1.68 1.08,1.97 1.25,3.74 0.91,6.33 -4.5,0.58 -3.9,-3.12 -3.96,-4.65zm-44.53 2.51l-0.12 -2.13c1.16,-0.72 2.22,-1.15 3.95,-1.23 1.39,1.61 1.78,2.37 1.66,5.15 -2.71,0.29 -3.4,-0.63 -5.49,-1.78zm519.52 -3.83l2.51 -0.48 0.66 4.61 -2.31 0.84c-1.87,-2.22 -1.77,-1.82 -0.86,-4.97zm-32.03 2.61c1.55,-1.3 1.55,-1.09 3.49,-1.08 1.25,3.04 0.09,6.71 -3.49,1.08zm25.54 2.73c-0.68,-1.36 -3.82,-6.01 0.48,-5.19 3.04,0.58 2.04,4.44 -0.48,5.19zm-460.83 -6.59c2.52,-0.38 3.48,0.13 4.9,0.96 0.09,3.1 -0.92,4.19 -3.57,4.78 -0.81,-1.59 -1.79,-3.35 -1.33,-5.74zm427.05 0.82c0.82,-0.67 2.96,-2.96 4.2,-0.83 0.95,1.65 -1.38,4.21 -2.01,4.79 -2.58,-2.14 -0.89,-1.81 -2.18,-3.96zm-8.05 -2.43c3.76,-1.79 5.23,1.72 3.55,4.25 -1.18,-0.66 -0.18,-0.06 -0.97,-0.82 -2.95,-2.85 -2.58,-0.67 -2.58,-3.42zm-474.66 4.3l-2.82 -0.24 -0.11 -4.96c5.4,-0.96 4.64,2.47 2.94,5.2zm537.36 -2.66c-0.66,-5.15 3.87,-4.54 4,-0.42 -1.21,0.55 -2.22,0.82 -4,0.42zm-7.56 -1.61c2.91,-0.63 2.87,-0.78 4.3,1.79 -0.49,2.04 -0.63,2.71 -2.93,2.93 -0.57,-1.37 -0.8,-3.55 -1.37,-4.71zm-462.96 -3.68c1.74,1.1 0.41,0.11 1.75,1.94 0.77,1.06 0.88,0.82 1.17,2.32 -6.31,4.97 -6.79,-2.75 -2.92,-4.25zm-79.55 3.65c0.31,-2.41 0.8,-2.69 2.38,-3.59 1.77,2.08 2.9,1.63 2.82,4.6 -2.19,0.5 -3.46,-0.16 -5.19,-1.01zm484.63 -4.07l0.54 2.38 -4.18 0.24c-0.47,-2.97 1.21,-3.1 3.65,-2.63zm-398.6 -1.6c0.14,-0.07 0.34,-0.36 0.43,-0.21l2.21 -0.05c1.01,1.52 1.3,2.45 0.87,4.36l-3.83 0.51c-0.58,-2.77 -0.76,-2.68 0.33,-4.61zm472.07 -3.11l1.87 1.62c1.17,1.6 0.96,3.23 0.78,5.26 -5.06,0.25 -3.67,-5.03 -2.65,-6.88zm-83.59 1.09c1.83,1.85 1.63,2.01 0.78,4.15 -1.16,-0.22 -2.32,0.13 -2.41,-2 -0.08,-1.71 0.73,-1.79 1.64,-2.16zm-481.97 -0.99c5.36,-2.64 5.55,7.51 2.07,5.53 -0.3,-0.17 -2.12,-1.79 -2.29,-2.08 -1.13,-2.03 -0.37,-2.45 0.21,-3.45zm572.25 3.51c-0.27,-3.04 -0.64,-4.16 0.87,-6.13 1.52,0.7 1.93,1.77 2.39,3.39 -0.54,1.64 -1.03,2.81 -3.26,2.75zm-471.84 -6.39c2.11,-0.01 2.37,0.68 4.55,2.16 0.09,0.06 0.27,0.18 0.4,0.27 -0.47,2.68 -1.18,2.59 -3.46,3.28 -1.11,-2.37 -1.98,-2.21 -1.49,-5.71zm-104.85 -0.97c0.34,3 0.55,4.39 -2.13,5.21 -3.01,-2.34 -3.07,-8.65 2.13,-5.21zm477.06 2.18l-0.1 -2.7 4.15 -0c0.44,4.99 -1.29,4.65 -4.06,2.7zm106.57 -7.61c2.3,1.05 3.37,4.83 2.04,7.21 -3.68,-0.07 -4.86,-4.67 -2.04,-7.21zm6.08 -2.26c3.75,0.31 2.99,2.95 1.22,4.59 -1.32,-0.77 -2.85,-1.48 -1.22,-4.59zm-602.11 2.58c0.28,-2.35 0.47,-2.31 1.76,-3.65 1.42,0.5 4.47,2.51 4.16,4.17 -0.59,3.11 -4.56,0.98 -5.92,-0.52zm474.31 -6.68c1.1,-0.97 0.73,-1.27 2.63,-1.53 2.14,1.81 2.41,2.21 1.13,5.04 -3.44,-0.28 -2.4,-2.01 -3.76,-3.51zm132.32 -1.22l0.58 -5.94c0.81,-2.66 -0.02,-0.42 0.97,-1.36 1.3,1.86 0.87,2.69 1.69,4.9 0.94,2.52 1.85,2.48 1.53,5.03 -2.5,0.2 -0.99,0.4 -2.51,-0.89 -1.1,-0.93 -0.99,-0.84 -2.26,-1.73zm-614.65 -1.22l2.49 -2.07c1.91,4.69 4.32,5.16 2.54,7 -0.38,0.19 0.97,1.1 -1.68,0.33 -0.4,-0.12 -1.38,-0.93 -1.74,-1.35 -1.37,-1.64 -1.06,-2.38 -1.61,-3.9zm478.68 -4.67l-0.09 4.26 -2.93 0.01c-1.29,-2.77 -0.67,-4.36 3.02,-4.27zm-484.64 -0.79l-0.29 -3.76c2.8,0.1 3.99,1.2 5.77,2.37l-1.15 4.23c-2,-0.35 -2.99,-1.69 -4.33,-2.84zm475.56 -7.44c0.05,-0.02 -0.55,-1.36 1.57,-0.11 0.62,0.36 0.7,0.88 1.06,1.4 1.32,1.93 1.4,0.87 1.58,2.86 -0.63,-0.05 -2.53,-0.68 -3.33,-1.12 -1.74,-0.96 -1.9,-1.4 -0.88,-3.03zm154.34 10.91c-2.84,-0.64 -4.67,-5.17 -4.47,-8.34 1.76,-0.63 1.5,-0.06 2.57,-1.49l5.1 -8.55c0.5,1.02 0.18,0.66 0.46,1.54 1.06,3.32 4.25,7.62 -0.71,9.95 -0.19,-2.8 1.49,-2.18 -0.97,-4.7 -2.31,0.39 -0.83,-1.04 -2.37,1.54 -2.69,4.5 1.51,5.4 0.39,10.04zm-637.76 -11.98l0.85 -3.82c2.77,1.13 2.33,1.62 4.13,3.21l0.18 3.28c-3.21,0.31 -4,-0.87 -5.15,-2.67zm475.94 -3.04c0.43,-2.26 0.36,-3.24 3.01,-3.3 0.74,1.23 0.82,2.71 0.59,4.73 -2.25,0.18 -2.27,-0.36 -3.6,-1.43zm170.06 -11.06c0.73,2.02 0.03,2.02 0.51,3.61 0.52,1.71 3.71,3.32 -0.09,6.14 -1.63,-0.73 -2.59,-1.97 -2.81,-4.19 -0.62,-6.13 1.76,-5.41 2.39,-5.56zm-650.36 0.14c2.81,1.03 4.01,4.53 4,7.61 -1.7,-0.07 -1.59,-0.34 -2.7,-1.04 -1.1,-0.69 -1.71,-0.83 -2.68,-1.49 -0.54,-3.06 -0.48,-3.7 1.38,-5.07zm474.99 1.2c0.06,-0.04 -0.24,-0.88 2.04,-0.81 3.09,0.09 1.39,0.21 1.97,1.42 -0.34,0.22 0.78,0.95 -2.03,0.78 -3.17,-0.18 -1.36,-0.83 -1.98,-1.39zm54.11 33.42c0.87,-0.64 0.13,-0.6 1.79,-0.56 3.13,0.08 13.12,6.46 29.55,8.12 9.02,0.91 17.29,-0.86 25.44,-3.77 1.56,-0.56 2.02,-0.76 3.64,-1.24 2.97,-0.89 1.28,-0.43 3.65,-1.72 1.82,-0.99 5.38,-2.43 6.64,-3.18 1.89,-1.13 0.49,-0.72 2.56,-2.28 1.57,-1.18 2.18,-0.98 3.7,-1.83 2.36,-1.32 0.82,-0.93 2.43,-2.38 2.44,-2.18 0.87,0.08 8.15,-7.05 3.49,-3.41 6.46,-6.6 9.81,-10.25 5.18,-5.65 6.38,-9.77 9.94,-10.61 0.95,2.85 -0.52,4.45 -2.37,7.25 -1.28,1.95 -2.85,3.8 -4.41,5.9 -6.24,8.42 -12.34,13.18 -19.69,19.25 -0.1,0.08 -0.22,0.2 -0.32,0.29 -3.85,3.42 -3.38,2.21 -7.67,4.56 -2.31,1.26 -4.12,2.41 -6.37,3.87l-15.13 5.39c-9.36,2.12 -34.75,0.48 -40.96,-4.26 -1.93,-1.48 -0.8,-1.08 -3.55,-1.95 -1.79,-0.57 -2.02,-0.67 -3.43,-1.38 -2.82,-1.41 -2.29,-0.7 -3.43,-2.17zm-536.53 -42.78c3.91,0.3 4.57,2.34 4.05,6.04 -3.39,0.4 -4.14,-3.01 -4.05,-6.04zm477.14 -1.91c2.67,0.65 2.72,3.08 1.22,5.13 -1.09,-1.08 -2.28,-2.92 -1.22,-5.13zm188.04 8.84l-1.92 2.44 -3.79 -2.35c0.5,-3.83 0.81,-3.27 1.79,-5.69 1.36,-3.35 1.76,-6.35 4.24,-7.79 2.56,1.2 2.49,3.04 2.01,6.3l-4.09 0.21c0.44,7.3 0.39,3.05 1.75,6.89zm-651.63 -2.99c-2.6,-1.9 -0.87,-1.75 -3.08,-4.28 -1.58,0.56 -0.08,-0.39 -1.1,0.69l-0.51 0.7c-0.05,0.07 -0.13,0.27 -0.21,0.39 -1.89,-3.04 1.07,-0.13 -2.9,-4.37 -3.11,-3.32 0.42,-4.51 0.71,-4.72l-0.04 -3.93c4.5,-0.18 8.39,7.68 10.36,10.39l23.82 26.05c7.07,6.49 17.07,13.75 26.3,17.53 23.28,9.54 46.87,7.49 69,-4.76 1.5,-0.83 2.85,-1.87 4.48,-2.88 3.63,-2.24 9.01,-7.54 10.06,-8.24 5.28,-3.51 3.36,7.61 3.3,7.71l-15.73 11.83c-5.12,3.4 -14.88,5.46 -15.76,5.89 -1.71,0.84 -1.84,1.49 -4.67,2.42 -10.51,3.46 -27.36,2.73 -38.31,-0.33 -3.53,-0.99 -8.1,-2.15 -12.07,-2.37 -0.09,-1.76 -0.19,-2.13 -1.21,-3.04 -1.92,-1.72 -4.36,-1.41 -6.34,-3.37 -3.44,-3.39 -4.3,-2.94 -8.45,-6.1 -4.12,-3.14 -3.09,-2.95 -7.07,-3.42 0.12,2.21 1.29,4.63 -0.04,5.38 -3.22,1.83 -5.21,-5.07 -5.88,-6.57 -1.31,-2.96 -2.05,-1.51 -4.64,-1.23 -0.09,-0.02 -5.78,-3.05 -1.67,-8.63 0.31,-0.43 0.39,-0.3 0.8,-1.34 -0.09,-0.15 -0.22,-0.55 -0.27,-0.45l-2.03 -3.07c-0.93,-1.21 -1.85,-2.04 -2.9,-3.17 -2.98,-3.2 -13.33,-17.88 -14.52,-21.38 -0.46,0.68 -1.59,-1.23 -0.12,3.82 0.56,1.91 0.63,2.63 0.7,4.86zm-21.04 -13.42c0.65,-2.21 1.2,-2.19 3.98,-2.25 2.76,2.43 2.53,1.75 2.59,6.68 -2.32,-0.38 -2.29,-0.81 -3.74,-2.07 -1.12,-0.98 -1.93,-1.37 -2.83,-2.35zm477.44 -2.94l3.55 0.05c1.14,2.36 3.12,2.74 1.82,5.1 -2.1,-0.73 -1.53,-0.47 -1.59,-3.01 -4,-0.07 -2.33,0.22 -3.77,-2.14zm-482.38 -6.78l1.37 -3.73c1.94,0.57 1.05,-0.76 3.09,3.22 1.36,2.64 1.85,1.14 1.64,3.74 -2.14,0.02 -4.93,-2.1 -6.11,-3.23zm475.03 -15.08c2.63,0.89 4.19,3.43 3.82,6.2 -3.18,0.61 -5.41,-2.85 -3.82,-6.2zm-479 1.71c0.75,-2.14 0.82,-2.15 3.16,-2.55 1.78,1.31 3.1,3.26 2.81,6.61 -3.08,0.58 -2.35,-0.81 -5.97,-4.06zm474.42 -10.64c1.53,0.51 3.65,0.76 2.09,5.03 -0.44,-0.07 -2.18,2.24 -2.09,-5.03zm-479.83 -2.12l4.37 -0.72c1.68,2.31 3.1,5.83 -0.06,7.17 -2.56,-2.5 0.62,-1.03 -3.29,-4.35 -0.1,-0.09 -0.29,-0.15 -0.38,-0.25 -0.95,-1.02 -0.43,-1.27 -0.65,-1.85zm477.06 -10.66c1.13,0.93 1.34,1.31 2.48,2.55l-0.3 4.02c-3.13,-1.3 -3.81,-3.92 -2.18,-6.57zm-474.73 -3.14c0.88,1.16 0.86,1.28 0.62,3.37l-0.87 3.37c-0.04,0.09 -0.13,0.27 -0.2,0.4 -0.08,-0.13 -0.18,-0.48 -0.21,-0.4 -0.03,0.09 -0.16,-0.32 -0.2,-0.41 -1.49,-3.18 1.14,2.09 -0.36,-0.85 -1.73,-3.36 -2.62,-2.72 -4.85,-3.06 -0.26,-2.21 0.01,-2.11 1.91,-2.62 4.66,-1.25 3.82,-0.11 4.16,0.19zm470.45 -6.9c1.29,0.36 1.72,0.36 2.29,1.52 0.96,1.96 0.26,2.46 -0.44,3.5 -2.63,-0.83 -1.62,-1.84 -1.85,-5.02zm111.83 -15.55c4.6,-1.04 3.49,2.62 5.66,9.91 1.41,4.72 4.41,10.74 2.44,11.88 -1.85,1.07 -7.99,-3.26 -8.64,-6.34 -0.49,-2.3 -0.16,-13.44 0.54,-15.45zm-589.43 9.5c2.25,0.06 3.1,-0.22 3.52,1.87 0.16,0.78 0.43,4.59 0.41,5.12 -3.49,0.33 -4.14,-4.01 -3.93,-6.99zm596.23 -7.7c0.99,0.15 3.64,1.02 4.96,1.36 0.95,2.78 5.65,11.41 8.08,13.89 1.71,1.75 2.37,1.8 1.77,5.01 -9.03,2.71 -8.97,-0.01 -10.89,-5.58 -0.83,-2.41 -1.17,-4.58 -2.05,-7.14 -1.12,-3.21 -2.06,-3.31 -1.86,-7.54zm20.22 4.98c3.22,-0.31 3.57,-0.9 6.28,0.41 0.53,4.28 -1.12,2.73 -1.73,5.54 -0.55,2.54 0.88,1.29 -2.01,4.43 -7.71,3.97 -19.28,-21.62 -10.29,-14.19 2.66,2.2 0.61,0.8 4.32,1.33 0.84,0.12 1.49,0.26 2.21,0.78 2.27,1.64 0.8,0.4 1.23,1.71zm-231.23 -4.56c3.35,-1.89 6.79,0.89 10.94,1 2.65,0.07 12.02,0.96 12.43,3.09l0.14 0.99c1.12,0.57 2.44,0.79 3.5,1.35l2.7 2.46c0.09,0.1 0.24,0.27 0.35,0.41 -9.47,-0.21 -16.17,-1.96 -24.05,-5.53l-5.02 -2.32c-2.57,-2.22 1.01,0.74 -0.99,-1.45zm199.34 8.49c-1.68,-0.74 -1.47,-0.61 -3.08,-4.16 -0.37,-0.81 -2.04,-4.4 -2.16,-5.16 -0.4,-2.54 0.21,-1.82 0.6,-2.68 0.06,-0.15 0.17,-0.28 0.23,-0.43l0.38 -0.91c1.08,-3.11 0.17,-2.08 2.81,-5.84l3.27 0.92c0.73,5.19 0.05,14.5 -2.06,18.28zm27.95 -14.06c3.45,-0.05 3.18,1.1 6.12,1.94 2.55,0.72 4.95,0.45 7.72,0.72l-0.13 3.73c-1.16,0.42 -9.96,-0.04 -12.38,-2.12 -2.06,-1.78 -1.62,-0.88 -1.34,-4.26zm-490.54 -26.41c4.75,8.73 2.91,8.56 5.01,17.27 0.74,3.07 1.31,6.11 2.33,8.81 1.29,3.43 2.88,5.14 2.45,8.82 -3.7,0.62 -9.92,-3.8 -12.55,-5.96 -0.49,-6.08 0.46,-9.53 0.89,-14.64 0.47,-5.61 -1.1,-10.22 1.88,-14.3zm-127.43 25.98c2.74,-0.16 3.97,-0.59 6.68,0.03 1.1,1.68 3.02,5.54 0,6.91 -3.02,-3.6 1.95,-2.02 -4.95,-5.18 -2.62,-1.2 -1.26,-1.22 -1.73,-1.76zm438.02 -4.39c6.17,-1.19 3.88,-0.74 9.33,0.4 6.99,1.45 7.95,-0.38 9.59,-1.33 1.02,1.14 0.52,0.78 1.71,1.68 -0.55,1.02 -0.66,1.78 -1.28,2.79 -0.84,1.37 -0.23,0.15 -0.78,1.07 -0.81,1.36 -0.47,-0.17 -0.99,2.14l1.6 2.17c0.07,0.12 0.14,0.3 0.21,0.42 1.4,2.31 0.97,1.01 3.11,2.28l-0.85 3.38 -3.32 1c-1,-0.63 -1.39,-1.01 -2.29,-1.57l-7.72 -4.38c-4.53,-2.99 -8.72,-3.76 -9.57,-6.32 0.97,-1.74 0.03,-1.09 3.07,-1.32 -0.47,-0.94 -0.22,-0.25 -0.75,-0.92l-1.08 -1.46zm-38.8 -9.38c2.95,0.91 0.81,3.03 1.96,6.26 1.04,2.9 3.76,1.07 1.58,6.12 -4.47,-0.93 -5.54,-8.32 -3.54,-12.38zm-254.3 -0.63c3,-0.56 6.02,1.13 10.98,2.47 2.69,0.73 18.18,-0.31 7.69,12.58 -6.26,7.69 -8.12,1.3 -11.54,-2.1 -1.72,-1.71 -1.62,-0.55 -3.2,-3.41 -1.3,-2.37 -4.13,-6.7 -3.93,-9.55zm-146.46 1.18c1.38,-0.31 3.27,-0.66 4.8,-0.01 2.81,1.2 2.72,4.65 1.6,7.52 -3.6,0.04 -1.79,-1.33 -3.06,-3.99 -1.46,-3.07 -2.41,0.08 -3.34,-3.53zm154.82 20.43c-1.78,4.96 -10.05,4.71 -11.37,2.11 -1.12,-2.2 0.51,-1.89 -1.75,-4.32 -2.61,-2.81 -1.5,-4.3 -2.8,-8.11 -0.94,-2.76 -2.37,-5.65 -2.98,-8.83 -1.11,-5.7 4.34,-3.67 5.56,-1.7 0.87,1.4 0.62,2.03 2.01,3.48 4.38,4.55 1.61,3.9 6.47,10.56 1.42,1.95 3.97,3.94 4.87,6.81zm277.31 -22.68c5.6,-0.01 8.01,-0.55 12.87,1.57 4.93,2.15 10.46,-2.31 11.15,3.67 -3.83,0.16 -2.42,-1.07 -5.55,-1.39 -2.59,-0.27 -4.15,0.4 -7.06,-0.09 -2.88,-0.49 -9.91,-1.37 -11.4,-3.75zm-308.37 -13.85c0.89,2.22 1.03,19.89 -1.3,24.52 -2,-0.42 -3.19,-1.51 -4.18,-3.29 -0.06,-0.1 -0.87,-1.91 -0.94,-2.08 -2.39,-6.29 -2.62,-4.67 -1.58,-8.04 0.85,-2.74 1.72,-5.45 2.36,-8.01 0.89,-3.59 0.83,-2.64 2.11,-3.03 2.49,-0.78 2.38,-0.56 3.53,-0.06zm262.69 10.1c3.93,-0.53 5.37,2.21 3.47,4.08 -1.97,1.93 -4.26,-1.04 -3.47,-4.08zm-229.92 -3.32c4.43,0.07 3.56,1.73 6.36,2.76 3.37,1.23 4.91,-0.78 8.65,-0.12 1.94,3.11 1.2,6.43 -1.08,8.6 -2.43,-1.2 0.29,-2.47 -6.63,-2.97 -5.11,-0.37 -12.25,-1.64 -7.31,-8.26zm243.93 1.2c0.93,-1.95 2.88,-2.25 7,-2.85 4.31,-0.63 4.56,0.21 7.09,2.24 -2.27,1.71 -11.08,2.12 -12.46,1.7 -2.17,-0.66 -0.94,-0.45 -1.62,-1.1zm79.9 -5.35c1.09,1.83 0.78,3.64 -0.61,5.38 -1.12,-1.17 -3.31,-5.02 0.61,-5.38zm-26.96 0.33l2.31 -0.15 0.05 3.61 -2.36 0.1 0 -3.57zm-453.48 -0.45c6.13,-1.98 5.78,-2.43 6.46,2.34 0.13,0.92 0.82,2.78 0.36,4.17 -0.09,0.28 -3.02,4.64 -3.04,-3.75 -1.95,-0.47 -3.81,-0.47 -3.78,-2.77zm487.74 -8.97c1.55,0.6 1.26,-0.02 1.67,2.37 0.24,1.4 0.11,3.23 0.26,4.73 0.3,2.97 0.22,6.29 0.56,9 0.65,5.23 2.51,8.57 2.42,17.22 -0.74,-0.78 -0.45,-0.25 -0.96,-1.47 -1.63,-3.91 -0.99,-11.96 -1.92,-13.43 -2.06,-3.28 -0.48,-0.35 -3.04,0.62 -2.37,-5.35 1.8,-3.3 0.34,-9.26 -0.61,-2.47 -0.93,-7.73 0.68,-9.78zm70.98 32.24c-2.77,4.45 -4.14,2.08 -6.6,1.54 -8.15,-1.8 -18.03,13.85 -15.8,18.33 2.46,4.92 7.15,-0.6 3.41,15.47 -1.22,5.25 0.91,6.6 -2.16,9.97 -9.45,-4.13 -3.67,-1.93 -14.46,-4.88l-16.2 -3.89c-0.53,-2.88 -1,-1.89 -1.76,-4.17 -0.54,-1.61 -0.66,-3.41 -1.07,-5.16 -0.58,-2.5 -0.86,-1.79 -1.44,-4.71 -4.09,-20.52 -5.67,-24.44 -6.83,-47.6 -1.03,-20.68 -1.56,-16.73 4.56,-14.52l10.08 2.22c3.64,1.06 5.26,1.66 9.24,2.87 4.28,1.3 7.02,5.1 9.87,8.3l6.02 6.15c1.36,1.43 1.87,1.42 3.09,2.9 0.11,0.14 0.41,0.57 0.52,0.71 0.16,0.2 0.76,0.99 0.83,1.07l7.68 7.52c4.01,2.76 0.52,5.74 11.01,7.88zm-78.88 -28.85c-1.12,-1.73 -1.09,-2.33 1.31,-4.82 0.45,4.84 0.91,3.77 -1.31,4.82zm123.59 -5.17c3.19,-0.04 1.58,0.63 2.55,3.09 0.69,1.75 1.65,1.72 2.76,3.41 -0.62,1.5 -1.2,1.74 -1.33,3.67 -2.83,-0.73 -0.24,0.27 -2.08,-1.48 -0.13,-0.13 -0.57,-0.48 -0.69,-0.61 -1.97,-1.9 -0.34,-2.02 -0.33,-4.71 0.01,-1.56 -0.64,-1.05 -0.87,-3.37zm-603.55 -2.62c1.9,-0.88 3.53,-0.83 5.75,-0.36 0.06,0.82 -0.58,6.35 -0.75,7.89 -4.21,0.83 -3.19,-2.17 -4.18,-4.76 -0.4,-1.06 -1,-1.04 -0.82,-2.77zm580.22 -2.52c2.04,1.28 0.63,0.5 2.11,2.24 1.8,2.12 7.11,2.71 7.26,6.59 -2.61,0.3 -5.63,-0.35 -7.59,-1.35 -1.66,-0.85 -2.37,-2.9 -2.41,-5.02l0.63 -2.46zm23.04 -1.73c-0.37,2.14 -0.49,1.9 -1.77,2.97 -1.92,-1.24 -1.33,-1.57 -2.73,-2.68 -1.1,-0.87 -3.22,-0.82 -1.96,-3.07 1.56,-2.78 5.6,1.41 6.47,2.78zm-124.19 -6.34c2.63,0.48 2.75,1.13 3.72,3.59 0.79,2.01 0.5,3.9 -0.4,5.92 -2.61,-1.25 -0.22,0.64 -2.67,-4.16 -1.21,-2.38 -1.58,-2.69 -0.65,-5.35zm38.59 5.12c-3.04,1.82 -6.69,-0.38 -9.21,-1.75 -1.13,-0.61 -0.22,-0.06 -1.14,-0.71 -1.44,-1.02 0.54,-0.04 -1.22,-0.99 -1.86,0.62 -0.79,1.14 -3.51,0.96 -3.74,-0.26 -7.22,-3.54 -4.26,-5.37 1.14,-0.71 10.77,0.69 13.73,2.53 2.55,1.58 1.02,1.38 2.55,2.92 1.71,1.73 1.88,0.14 3.07,2.42zm-141.85 -10.57l5.1 0.03c2.77,3.54 6.03,12.38 1.82,16.8 -5.49,-1.2 -2.44,-2.22 -4.79,-7.52 -1.86,-4.22 -2.73,-3.46 -2.14,-9.32zm240.19 2.66c6.06,1.52 4.05,9.83 6.7,14.68 1.47,2.69 1.55,4.01 1.96,6.52 0.38,2.32 0.19,2.12 1.73,3.49 2.3,-0.77 2.7,-0.14 2.89,-3.32 0.39,-6.72 -2.48,-5.39 -3.34,-9.11 -0.34,-1.48 -0.54,-3.54 -0.47,-5.56 1.78,-1.56 0.25,-1.09 2.15,-1.51 3.46,11.82 1.51,5.74 3.33,13.82l0.92 2.52c3.16,-0.8 0.98,-0.9 3.78,-2.26 1.84,7.09 2.84,23.13 1.16,30.73l-1.59 -1.09c-0.18,-0.12 -1.85,-1.11 -1.93,-1.14 -2.3,-0.95 -4.21,-0.44 -5.84,-2.63 -1.05,-1.4 -0.41,-1.61 -2.16,-3.91 -0.78,-1.02 -0.63,-0.36 -1.15,-1.71 1.37,-0.83 1.97,-0.46 4.01,-0.61 0.32,-3.76 0.66,-2.18 -2.36,-8.29l-8.63 -0.95 -0.24 3.55 -1.83 -2.53c-2.99,0.27 -5.01,1.7 -5.18,-2.69 -0.23,-5.84 2.68,-3.05 4.97,-4.88 -1.37,-3.27 -1.93,-1.33 -4.58,-2.43 0.43,-1.45 0.3,-0.31 1.16,-1.57 0.07,-0.11 0.2,-0.24 0.26,-0.35 0.68,-1.14 0.72,-1.58 0.92,-3.11 -1.43,-0.5 -0.92,-0.45 -2.28,-0.91 -1.14,-0.39 -1.44,-0.25 -2.46,-0.74 -0.78,-4.09 0.81,-3.9 4.52,-3.65 2.27,5.37 0.75,10.2 8.62,10.99 0.43,-5.28 -0.94,-1.75 -1.48,-5.06 -0.54,-3.34 2.26,-2.36 -1.86,-11.74 -1.5,-3.41 -2.88,-1.56 -1.69,-4.53zm-615.3 -1.69l4.5 1.27c0.04,3.45 0.29,4.3 0.54,6.91l-3.58 -0.01c-0.81,-4.09 1.44,-3.59 -0.83,-6.71 -1.09,-1.5 0.03,0.11 -0.64,-1.46zm167.06 -1.94c0.18,-2.52 1.42,-2.24 3.35,-1.58l4.95 2.3c4.44,2.03 5.63,3.54 5.73,8.99 0.37,20.51 -0.41,12.65 -2.95,18.37l-2.7 4.53c-5.48,0.63 -3.28,-1.2 -6.09,-1.51 -1.95,-0.21 0.3,0.82 -6.41,-0.38 -1.78,-2.99 -1.31,-2.49 -2.29,-5.54 -1.66,-0.41 -2.98,-0.87 -4.16,-1.92 -0.56,-5.5 -0.36,-10.77 1.93,-14.69 2.46,-4.22 8.7,-1.28 14.48,-3.24 -1.27,-6.14 -4.28,-4.59 -5.83,-5.33zm470.81 -4.25c0.52,-2.29 0.4,-1.19 1.8,-2.77 7,-0.01 9.11,3.79 9.11,3.79 2.02,1.02 1.21,-2.15 7.9,5.05 6.91,7.43 6.33,10.4 9.87,15.62 1.76,2.59 1.87,7.29 2.17,10.56 0.33,3.57 0.31,9.22 -0.35,12.23 -0.8,3.63 -0.58,1.06 -2.45,3.7 -1.4,1.99 -0.7,2.03 -2.68,3.97 -1.66,1.63 -4.74,4.18 -7.76,4.99 -4.32,1.16 -2.22,1.64 -7.32,1.76 -6.84,0.16 -2.93,-1.61 -5.07,-20.8 -1.46,-13.12 -0.77,-5.63 -2.97,-13.78 -0.71,-2.62 -0.3,-1.95 0.73,-4.26 -0.1,-0.11 -0.24,-0.42 -0.28,-0.32l-2.37 -1.87c-1.21,-1.05 -1.25,-1.49 -1.31,-3.28 1,-0.68 3.94,-2 5.16,-2.45 0.18,-4.43 0.93,-4.74 -1.18,-6.94 -2.62,0.51 -2.03,0.57 -3.21,2.55 -1.33,-1.95 -0.9,-0.47 -1.3,-2.28l3.13 -1.95c0.71,-0.64 0.47,-0.5 1.01,-1.09 -0.92,-1.52 -1.54,-1.21 -2.65,-2.43zm-506.42 -1.22l-3.31 1.28c-1.21,0.65 -1.72,1.12 -2.99,1.59 -2.34,-4.72 -0.71,-4.8 2,-8.53 5.2,-0.21 6.05,0.95 4.3,5.65zm-131.15 -5.63c4.48,0.2 4.99,3.54 4.01,6.57 -0.93,2.86 -0.45,1.3 -2.05,1.54l-1.96 -8.11zm535.69 0.39c4.37,-0.11 4.18,0.24 8.05,1.96 2.47,1.1 0.74,0.41 2.35,1.25 2.11,1.11 2.72,0.83 5.3,1.5 3.19,0.83 1.99,1.28 4.54,2.58l4.16 1.35c0.18,0.06 0.72,0.25 0.9,0.32 2.22,0.85 2.67,1.5 4.31,2.92 0.95,0.82 1.01,1.05 1.86,1.8 0.91,0.81 1.43,1.08 2.11,1.56 1.79,1.26 2.9,2.1 3.92,3.36l-2.08 8.33 -3.06 0.78c-0.43,3.77 0.38,4.93 -3.38,4.92 -5.29,-0.02 -3.76,-1.18 -5.32,-3.89l-8.37 -13.38c-2.85,-8.68 0.78,-2.76 -5.85,-7.64 -1.03,-0.76 -1.49,-0.94 -2.58,-1.65 -5.39,-3.51 -2.53,-1.16 -6.86,-6.07zm-356.91 2.28c4.55,-0.14 2.97,-2.24 6.38,-1.01 0.08,0.18 1.11,-0.74 0.38,2.04 -1.69,6.47 -14.47,-2.04 -15.12,-4.44 -0.5,-1.86 0.71,-2.59 2.55,-1.9 1.18,0.44 4.26,4.2 5.81,5.31zm15.8 -4.9c-1.01,-0.37 -0.79,1.27 -1.69,-1.47 -0.48,-1.46 0.02,-3.71 2.99,-4.09 0.03,3.49 0.8,3.96 -1.3,5.55zm227.99 -1.15c1.13,-2.5 -0.29,-2.19 1.63,-3.05 0.92,1.74 0.77,2.21 0.64,4.76 0.4,1.24 1.86,0.29 1.94,3.65 -4.11,3.63 -6.01,-0.9 -8.22,-2.26 -1.56,-0.96 -5.93,-3.28 -6.15,-5.44 4.57,-0.02 3.56,-0.61 5.78,2.25l4.38 0.1zm-293.68 -0.66c0.07,-3.07 -0.17,-3.95 1.21,-6.18 2.39,-3.86 0.64,-2.75 2.49,-4.76 2.51,1.17 0.89,1.66 2.84,3.33 2.67,2.29 0.27,-1.34 2.71,2.53 1.58,2.5 3.65,3.86 2.72,7.86 -2.69,0.47 -2.57,-0.42 -3.98,-2.25 -3.75,0.19 -3.79,1.03 -8,-0.53zm345.2 -6.09l2.95 1.23c2.4,1.74 6.03,6.09 6.46,9.18 0.46,3.27 0.47,5.57 0.75,8.99 0.3,3.73 1.36,4.86 -1.04,7.75 -3.35,-0.21 -3.54,-2.5 -5.47,-4.63 -3.93,0.94 -5.02,1.3 -5.09,-3.39 4.12,0.23 4.77,1.14 6.94,-0.34 -0.56,-2.13 -0.67,-1.55 -2.59,-2.3 -2.39,-0.94 -1.77,-0.45 -4.69,-0.74 -0.36,-3.54 -0.96,-2.61 -1.35,-5.59 4.64,0.1 3.24,3.1 5.41,0.73 -0.78,-1.87 -5.54,-3.57 -2.27,-10.88zm-14.58 8.24c-2.89,-4.06 0.09,-1.4 -4.41,-3.3l0.49 -2.85c2.68,-0.49 2.99,-0.65 5.35,2.57 5.04,-0.39 6.54,-0.21 5.98,5.1 -4.13,-0.23 -0.19,-0.84 -7.4,-1.52zm-452.78 -12.4c0.26,2.75 0.59,7.75 -2.34,9.11 -1.76,-1.79 -1.5,-4.13 -1.41,-8.25l3.75 -0.86zm178.31 3.34c0.32,0.36 3.13,4.14 3.15,4.17 0.9,2.01 -0.16,3.75 -0.88,5.09 -0.09,-0.13 -0.17,-0.32 -0.21,-0.41 -2.76,-5.55 -2.15,-0.15 -4.22,-6.06l-8.82 -0.24c-0.66,-5.68 7.48,-2.9 10.99,-2.56zm6.5 -0.7c-1.4,-0.27 -3.66,-0.4 -5.02,-0.87 -6.95,-2.4 -9.2,-2.8 -8.77,-7.19 4.57,-3.12 3.28,2.49 7.11,3.98 4.89,0.01 11.82,-2.39 6.68,4.08zm-56.19 -14.02c2.78,-0.16 6.43,-1.15 8.93,-0.46 0.21,1.14 0.27,2.61 0.57,3.63l3.39 8.77c1.17,3.85 3.55,9.41 0.76,13.22 -1.58,-0.66 -3.2,-4.09 -3.81,-5.27 -1.84,-3.57 -1.38,-2.12 -3.8,-4.69l-8.35 -8.84c0.26,-1.75 1.63,-5.1 2.31,-6.38zm20.39 3.24c8.52,4.21 6.15,0.81 5.36,19.57 -0.17,4.01 0.61,11.16 -2.99,12.63 -3.33,-1.66 -4.83,-12.89 -5.03,-17.56 -0.25,-5.73 -4.01,-11.77 -4.75,-17.71 2.21,0.12 5.52,2.14 7.4,3.07zm-150.14 4.01c-2.84,-2.31 -2.9,-10.48 3.62,-10.01 0.25,4.04 -0.95,2.57 -1.8,5.52 -0.73,2.52 0.14,2.68 -1.82,4.5zm593.24 22.07c4.84,3.15 8.95,3.08 11.76,5 0.23,2.4 0.59,3.11 -1.71,3.53 -2.03,0.36 -5.28,-0.74 -6.85,-1.5 -4.31,-2.06 -17.62,-6.02 -22.1,-7.07 -6.21,-1.46 -54.71,-18.63 -63.99,-21.51l-20.65 -6.36c-6.43,-2.52 -8.72,-1.98 -11.28,-4.15 -0.51,-2.68 -0.36,-3.33 -0.07,-5.82 0.23,-1.96 -0.06,-4.19 1.3,-5.01 1.95,-1.18 14.68,4.45 17.33,5.47 3.09,1.2 5.07,2.42 7.87,3.57 5.46,2.24 11.37,3.69 17.26,5.95 5.45,2.09 10.21,4.75 16.14,6.92l22.05 7.81c2.5,1.29 0.48,0.8 4.04,1.6l24.27 10.09c2.41,0.81 2.56,0.14 4.63,1.49zm-413.22 -29.01c-3.08,1.39 -1.47,0.86 -5.89,0.85 0.72,-1.51 1.46,-3.39 2.51,-4.8l4.9 0.18c-0.82,-3.56 -0.02,-1.08 -1.84,-3.44 -3.1,-4.02 0.03,-7.11 2.83,-2.15 3.05,5.4 8.08,1.37 11.24,2.67 0.09,3 -1.63,3.49 -4.77,3.18 -3.57,-0.35 -2.91,-2.5 -5.73,-0.75 0.82,3.52 -0.32,0.55 2.78,2.34 1.26,0.73 4.78,5.53 2.33,8.35 -3.83,-1.09 -2.88,-6.68 -5.04,-7.42 -1.93,-0.66 0.35,-0.66 -3.31,0.98zm358.43 -0.5c-6.54,-0.61 -15.21,-6.04 -20.81,-8.46 -6.72,-2.9 -19.63,-2.93 -9.64,-12.15 5.13,1.6 4.38,2.16 7.63,4.95 2.13,1.83 5.73,3.49 7.78,5 4.39,3.22 13.63,7.71 15.05,10.66zm-358.17 -14.45c3.22,-11.29 21.16,1.57 12.95,4.62 -2.9,-3 -1.18,-4.3 -5.47,-6.49 -4.74,0.12 -3.15,1.53 -7.48,1.87zm5.9 -16.86c2.1,-6.32 8.89,-6.23 15.3,0.21 -0.07,4.09 0.69,3.2 -1.12,5.94 -2.2,3.35 -0.58,2.87 -1.79,5.47 -4.52,1.26 -17.73,-2.21 -13.91,-7.77 2.36,-1.28 2.17,-0.13 3.16,1.72 2.87,5.36 7.91,2.94 11.66,1.56 0.07,-3.78 -1.32,-6.8 -4.35,-8.23 -3.32,-1.57 -4,1.5 -8.96,1.1zm480.73 -2.5c-2.37,-0.66 -2.7,-4.06 0.05,-4.16l-0.05 4.16zm-132.63 177.05c2.83,1.06 0.57,0.47 2.88,2.3 5.09,0.48 7.66,1.76 11.82,-0.72l2.86 -2.09c0.08,-0.09 0.19,-0.23 0.28,-0.32 1.52,-1.56 1.49,-0.72 2.21,-2.67 0.01,-0.02 0.42,-2.31 0.45,-2.53 2.44,-1.67 4.75,-2.59 6.05,-5.57 2.9,-6.64 -1.81,-8.01 3.07,-11.11 2.8,2.48 4.63,5.42 7.71,8.39 2.09,2.01 8.51,4.6 6.99,-1.39 -0.64,-2.54 0.15,-0.97 -1.66,-1.98l1.68 -1.1c-1.62,-8.93 -16.71,-18.87 -7.43,-20.57 3.2,3.64 5.6,9.8 9.16,13.87 2.88,3.3 8.02,8.46 12.74,10.4 10.52,4.33 26.41,1.07 33.04,-8.33 1.42,-2.02 2.91,-1.73 4.25,-4.22 4.02,-7.49 4.41,-18.19 9.52,-18.87 7.18,-0.96 11.81,-0.91 17.44,-5.8 4.19,-3.63 8.1,-7.39 9.73,-13.31 2.44,-8.89 0.41,-21.03 -3.36,-28.65 -0.52,-1.04 -1.5,-3.37 -1.95,-4.15 -1.19,-2.09 0.25,0.01 -1.45,-1.6l-3.1 -4.15c-0.08,-0.11 -0.19,-0.24 -0.28,-0.34l-5.43 -6.14c-4.85,-4.62 -11.21,-7.8 -17.94,-9.37 -2.94,-0.69 -6.89,-0.83 -9.31,-1.67 -0.05,-2.19 0.94,-7.5 -1.59,-8.23 -3,-0.86 2.31,0.23 -1.04,-0.25 -6.85,-0.97 -9.1,0.79 -13.41,3.24 0.05,4.51 1.31,6.26 -3.56,6.03 -3.01,-0.14 -6.03,-0.57 -8.01,-1.7l-27.22 -20.19c-4.48,-3.27 -5.94,-5.56 -10.66,-8.06 -3.49,-1.85 -7.97,-5.62 -11.31,-8.23l-11.13 -7.73c-3.89,-2.76 -13.78,-9.3 -15.68,-12.38 0.67,-2.81 2.94,-4.38 4.83,-6.23 1.75,-1.71 3.19,-3.23 5.46,-4.82l1.77 -1.41c0.84,-0.79 0.28,-0.39 1.18,-1.14 2.62,-2.17 7.22,-4.43 10.04,-5.79 2.22,-1.07 13.85,-5.05 15.82,-5.28 11.17,-1.32 26.24,0.43 35.89,5.66 1.5,0.82 6.2,2.73 7.35,3.69 2.39,1.98 -0.19,0.92 2.81,2.47 0.9,0.47 0.5,0.16 1.64,0.85 1.04,0.62 0.64,0.46 1.53,0.97 3.69,2.13 6.22,4.45 9.13,7.28 3.73,3.63 13,11.68 15.52,14.85l5.07 6.48c3.55,4.25 11.02,18.07 13.77,23.2 0.92,1.71 2.24,5.67 2.85,7.53 5.31,16.1 4.08,7.83 10.52,31.45 3.56,13.06 4.65,23.19 5.61,36.92 1.22,17.43 2.23,36.63 -2.45,53.31 -0.85,3.01 -1.12,6.38 -1.99,9.57 -0.87,3.19 -1.65,5.97 -2.68,9.06 -0.6,1.79 -1.16,3.17 -1.58,4.58 -2.46,8.35 -0.37,3 -3.06,7.73 -0.07,0.13 -0.15,0.28 -0.21,0.42 -1,2.08 -0.21,1.52 -1.65,3.75 -1.52,2.36 -3,4.13 -4.03,6.98 -1.89,5.21 -5.02,8.33 -7.79,12.79l-13.31 14.63c-0.09,0.08 -0.21,0.22 -0.3,0.3l-12.27 7.69c-6.05,2.69 -10.86,4.32 -17.9,4.54 -10.87,0.34 -21.25,0.31 -31.26,-3.35 -3.01,-1.1 -20.5,-9.7 -22.6,-11.9l-3.15 -3.07c-2.99,-2.03 -5.35,-4.65 -7.6,-7.46 -0.57,-0.72 -0.74,-1 -1.31,-1.73 -1.07,-1.37 -0.06,-0.31 -1.52,-1.63 -4.06,-3.67 -2.96,-2.47 -5.2,-6.26 -1.33,-2.24 -1.46,-1.05 -3,-2.48 -1.45,-1.34 -0.37,-1.93 -3.59,-5.52 -1.11,-1.24 -0.48,-0.64 -0.95,-1.51 -3.96,-7.32 -9.4,-13.52 -12.66,-21.27 -1.39,-3.3 -6.52,-12.59 -6.66,-15.55 5.42,0.02 5.16,1.39 8.97,2.26l22.62 6.61zm-524.74 -171.91c-0.33,-3.98 -3.42,-3.5 -1.81,-8.77 1.1,-3.62 4.02,-3.86 7.83,-3.15 0.42,4.01 -1.17,3.66 -2.17,5.78 -0.57,1.2 -1.41,5.35 -1.65,6.79 -0.96,5.94 -2.78,6.14 -2.6,13.94 -0.72,0.95 -2.22,2.33 -2.68,3.43 -1.09,2.61 0.35,1.83 -1.44,4.61 -2.66,0.29 -2.5,-0.55 -3.24,-2.47 -0.07,-0.18 -0.25,-0.73 -0.32,-0.91l-0.68 -1.76c-0.36,-1.8 -0.2,-1.24 -0.02,-3.13l5.97 -2.19c-0.32,-3.36 -0.5,-2.58 -2.81,-3.94 0.51,-7.35 0.86,-5.03 5.61,-8.21zm189.16 -10.18c2.13,-0.39 2.86,-1.36 4.89,-1.31 2.69,0.06 2.25,1.17 2.35,3.61 -5.4,2.18 -12.87,-1.78 -15.44,-4.27 -0.07,-2.09 0.44,-2.79 2.12,-3.62 2.49,0.85 1.81,0.81 3.25,2.75 0.91,1.24 1.77,1.98 2.83,2.84zm375.77 51.94c-8.96,-4.14 -2.72,-0.46 -13.14,-7.05 -6.05,-3.83 -2.64,-1.99 -5.43,-4.2l-21.08 -14.26c-7.78,-4.43 -2.12,-1.59 -6.01,-4.28l-15.02 -9.87c-8.5,-6.71 -19.07,-12.69 -25.19,-17.38l-4.05 -2.95c-0.18,-2.78 0.64,-5.39 2.17,-6.97 1.76,0.95 1.52,1.01 3.05,2.14 1.25,0.92 1.99,1.15 3.07,1.86 6.12,4.03 17.4,13.94 26.96,19.82 1.19,0.73 1.35,1.23 2.51,2.21l5.88 4.45c1.91,1.47 4.06,2.73 6.16,4.22 4.23,3 8.47,5.36 12.16,8.5 0.9,0.76 1.75,2 2.7,2.75l27.19 19.02c3.47,2.21 4.73,2.59 4.77,4.86 -5.16,-0.47 -3.71,-1.48 -6.7,-2.87zm-564.07 -64.11c2.15,-0.71 5.76,-1.44 8.1,-1.03 0.83,3.75 -0.4,3.09 -2.58,4.65 -2.6,1.86 -0.22,2.33 -3.16,4.28 -3.19,-1.31 -3.06,-4.01 -2.35,-7.9zm643.41 -2.4c1.49,0.24 1.92,0.51 2.7,1.43 1.6,1.87 0.08,4.63 -4.27,0.83 1.99,-1.5 0.38,-0.01 1.56,-2.26zm-459.66 5.63c0.35,-3.43 -0.37,-3.26 2.5,-4.79 3.19,-1.7 11.7,-0.54 11.81,8.8 -1.76,0.06 -2.43,0.15 -3.28,-1.11 -0.08,-0.12 -0.14,-0.29 -0.2,-0.42l-0.29 -0.97c-0.37,-1.14 0.32,0.08 -0.39,-1.43 -0.86,-1.82 -3.32,-2.7 -5,-2.85 -1.71,1.33 -2.78,2.79 -5.15,2.77zm-59.81 36.71c0.21,-1.89 2.38,-7.77 3.26,-10l10.24 -28.7c0.98,-2.87 2.45,-6.27 3.88,-9.47 2.78,-6.25 9.1,-23.42 12.34,-26.07 2.28,0.59 3.55,2.1 5.28,3.96l1.58 1.52c0.1,0.08 0.25,0.18 0.35,0.26 0.1,0.08 0.25,0.18 0.34,0.26l2.36 2.46c4.64,5.14 3.03,2.8 7.94,9.69 1.13,1.58 1.02,1.13 2.01,2.85l4.57 8.19c3.27,5.85 -2.18,7.53 -3.08,16.41 -0.29,2.88 0.47,0.38 -1.07,2.74l-2.58 5.45c-0.06,0.15 -0.1,0.32 -0.15,0.47l-9.33 26.36c-0.85,2.25 -3.42,11.73 -4.59,13.17 -3.63,-0.01 -4.39,-5.04 -6.47,-6.99 -14.04,-13.15 -15.44,-9.43 -26.89,-12.57zm364.1 -41.89c0.97,-1 1.84,-1.19 3.46,-1.71 3.63,2.1 3.65,2.64 3.34,4.45 -2.86,0.51 -6.23,-1.81 -6.8,-2.74zm150.17 -3.24c-1.21,-0.72 -0.7,-2.51 -0.28,-3.8 1.16,0.21 1.23,-0.18 1.76,1.11 0.43,1.04 0.1,1.85 -0.19,2.66 -0.32,0.05 0.74,1.26 -1.29,0.04zm-137.47 -0.28c-8.88,0.99 -7.54,-7.26 0.27,-2.91l-0.27 2.91zm-497.79 -6.53c2.69,-0.57 6.56,-1.05 8.54,-0.31 -0.12,1.73 -2.32,4.67 -3.68,6.46 -2.96,0.31 -4.35,-1.29 -5.81,-2.8l0.95 -3.35zm630.82 -1.3c-5.33,0.29 -3.96,-0.45 -4.49,-0.81 0,-0 2.62,-3.71 4.49,0.81zm-134.04 -4.72c3.59,-0.23 4.95,1.46 5.19,4.61 -2.63,-0 -4.04,-0.4 -5.93,-1.95l0.74 -2.65zm-306.49 9.82c2.74,-0.17 1.54,-1.91 1.79,-4.7 2.63,-1.91 1.76,0.37 2.9,-1.82 -1.9,-2.01 -4.24,-0.71 -5.82,-1.99 -1.57,-1.27 -1.11,-4.45 0.6,-5.1 3.87,-1.47 5.15,2.02 12.29,1.87 0.1,4.78 -2.04,14.98 -5.18,18.41 -7.93,-6.24 -8.19,-2.89 -11.93,-5.9 2.93,-2.52 3.08,-0.63 5.34,-0.77zm319.08 -8.75c-3.28,-0.28 -4.67,-1.35 -4.18,-4.85 3.6,-0.82 3.9,1.54 4.18,4.85zm114.66 -2.63c-1.03,2.39 -2.23,1.74 -4.82,0.59 0.38,-3.35 3.4,-1.89 4.82,-0.59zm-262.38 -5.45c1.79,0.64 5.96,5.8 9.19,8.87 5.05,4.8 5.94,10.43 4.08,17.16 -3.13,-0.3 -2.46,-3.4 -6.25,-8.86 -0.66,-0.95 -1.09,-2.26 -1.54,-3.29 -2.32,-5.23 -5.53,-7.48 -5.48,-13.88zm39.58 -0.42c5.5,-0.33 3.07,-2.14 6.81,-2.31 0.94,2.54 0.62,3.12 -0.61,4.84l-2.23 3.28c-6.6,10.39 -10.37,5.29 -13.94,1.89l9.64 -5.08 0.34 -2.62zm108.58 -0.81c0.32,-2.19 0.11,-1.21 1.36,-2.82l3.04 1.62 -0.37 5.78c-1.33,-3.74 -2.75,-2.82 -4.03,-4.58zm97.43 -2.01c-1.82,-1.44 -2.86,-1.18 -3.8,-2.85 2.51,-1.18 13.95,2.81 13.12,7.7 -2.44,0.33 -3.45,-0.45 -3.96,-2.9 -4.34,-0.22 -2.62,0.23 -5.36,-1.94zm-85.33 -1.03c-0.34,0.88 -1.33,2.53 -1.78,3.3 -1.61,-1.75 -2.56,-3.7 -2.83,-6.73 2.82,-0.26 3.97,1.12 4.61,3.44zm5.38 -7.65l0.16 5.14c-2.26,-0.55 -3.94,-1.82 -3.75,-5.06l3.59 -0.07zm4.16 -0.26c0.01,-0.92 0.09,-0.95 0.3,-1.74l0.54 -0.98c2.73,0.76 3.36,2.89 3.44,5.84l-3.72 -0.39c-0.32,-1.09 -0.56,-1.52 -0.55,-2.74zm59.03 -0.81c2.34,0.06 11.82,3.02 12.94,4.47 -1.07,0.81 1.28,0.06 -1.56,0.92 -2.57,0.78 -3.5,-0.62 -5.42,-1.06 -3.83,-0.87 -5.51,0.03 -5.96,-4.33zm-42.39 -6.96c0.71,1.21 3.93,7.02 -0.51,6.4 -1.63,-0.23 -2.14,-1.38 -1.62,-3.16l2.14 -3.24zm32.1 4.13c1.39,-0.99 3.84,-1.09 5.6,-0.75 1.97,0.38 2.2,0.87 2.2,3 -2.54,0.99 -6.49,0.14 -7.8,-2.25zm-3.54 -3.67c1.95,1.18 2.97,2.31 2.09,5.29l-3.82 -0.13 -0.39 -4.23 2.13 -0.93zm-35.62 1.2l0.16 6.59c-2.28,-0.82 -2.98,-3.39 -3.14,-6.3l2.98 -0.29zm27.72 -2.25c2.33,0.24 2.93,0.98 3.25,3.51 -0.52,0.4 0.21,1.71 -4.33,1.11 -0.86,-2.23 -0.4,-3.25 1.08,-4.62zm-8.37 0.06c4.15,-0.09 6.86,3.67 2.9,6.12 -2.22,-1.29 -3.4,-3.33 -2.9,-6.12zm-7.73 -0.59l3.67 1c0.27,1.96 0.13,3.39 -0.46,4.74 -3.14,-1.09 -3.39,-2.03 -3.21,-5.74zm-429.3 307.41c-13.13,0.95 -20.14,2.58 -34.05,0.42 -6.03,-0.94 -17.13,-6.27 -22.33,-9.85 -0.11,-0.07 -0.25,-0.18 -0.36,-0.26l-16.57 -13.8c-7.23,-6.03 -18.26,-21.45 -22.86,-30.54l-8.53 -16.39c-0.75,-1.21 -0.15,-0.06 -0.66,-1.1l-5.22 -13.11c-9.64,-27.03 -11.86,-48.57 -11.81,-77.76 0.02,-12.89 0.32,-21.3 2.2,-34.36 1.62,-11.28 3.28,-19.91 5.92,-30.12 2.49,-9.65 5.75,-17.95 9.16,-26.56l6.12 -12.2c9.02,-18.55 25.25,-36.4 43.58,-45.78 3.32,-1.7 8.92,-4.89 12.5,-5.68 10.04,-2.19 21.86,-4.15 32.17,-1.53l10.24 2.92c3.2,1.25 0.18,0.25 2.24,2 -0.4,3.25 -0.31,0.7 -0.82,2.17 -2.13,6.14 1.93,12.62 -8.09,37.45l-19.83 53.16c-3.31,6.31 -13,34.08 -16.96,43.79 -1.21,2.97 -1.84,5.83 -3.25,8.87 -4.34,0.11 -6.03,-3.35 -14.98,1.33 -0.69,3.83 -1.34,7.48 -0.87,11.83 0.95,8.85 1.9,5.14 5.48,7.32 0.02,1.89 -1.13,5.27 0.77,6.37 1.93,1.12 3.4,-0.86 6.36,0.82 1.12,2.24 -0.28,6.49 0.2,9.72l5.84 0.69c0.77,-1.17 0.59,-0.66 0.86,-1.03 0.7,-0.98 0.44,-0.63 0.68,-1.12 0.23,-0.46 0.31,-0.78 0.53,-1.33l0.39 -0.94c5.04,-0.22 4.9,0.64 6.37,4.7l6.17 14.48c1.52,4.15 5.72,8.71 9.11,11.61 7.65,6.55 12.68,8.12 23.34,7.69 8.77,-0.36 19.23,-6.19 23.92,-13.16 4.38,-6.51 5.3,-6.66 8.8,-16.74 0.62,-1.77 1.06,-2.28 1.45,-4.18 0.38,-1.86 0.27,-2.28 0.97,-3.72 1.2,-2.46 1.61,-5.11 2.04,-8.3 1.57,0.57 1,0.57 3.08,0.77 1.42,-3.47 5.83,-5.91 6.42,-13.03 0.54,-6.49 0.36,-3.22 2.46,-7.37 1.99,-3.91 -0.86,-4.46 -0.84,-6.94 1.35,-0.8 3.39,-1.09 5.34,-1.34 0.21,-4.09 -0.87,-4.56 -0.73,-8.63 0.22,-6.46 -1.39,-21.62 0.2,-25.96 0.74,-2.02 1.28,-4.68 2.28,-6.75 1.14,-2.36 1.91,-3.91 2.8,-6.43 0.77,-2.18 1.47,-4.56 2.29,-6.72 0.82,-2.17 1.24,-4.77 2.69,-5.76 1.76,2.72 7.99,26.61 8.76,31.29 5.75,35.03 2.93,75.98 -6.32,108.42 -0.82,2.87 -1.36,5.24 -2.14,8.37 -0.58,2.34 -1.79,4.59 -2.6,6.91 -4,11.39 -3.91,12.08 -9.03,21.42l-8.69 15.58c-0.08,0.09 -0.22,0.2 -0.31,0.28 -2.45,2.32 -3.68,4.99 -6.84,8.37 -0.81,0.87 -0.36,0.34 -1.14,1.32 -1,1.25 -0.07,0.33 -1.06,1.33 -6.18,6.26 -15.39,13.52 -18.56,16.67 -3.14,3.12 -8.22,5.33 -12.42,7.05 -5.07,2.07 -4.24,-0.08 -5.88,3.37zm59.39 -329.08c0.03,-0.23 0.17,-0.28 0.23,-0.42l-4.34 -3.62c-2.03,-1.67 -2.37,-1.3 -4.4,-3.54 -5.85,-6.48 -7.34,-1.93 -7.54,-7.82 3.86,-0.14 4.71,0.93 9.21,0.28 2.81,-0.4 6.21,0.4 8.21,1.44 1.68,3.78 5.62,13.45 5.18,17.3 -1.63,0.67 -4.49,0.82 -6.28,0.04 -2.42,-1.05 -0.41,-2.69 -0.27,-3.66zm-42.9 -19.8c3.65,-0.49 9.14,1.5 8.73,5.1 -3.55,0.51 -0.33,-0.73 -4.99,-1.78 -2.79,-0.63 -3.7,-0.46 -3.75,-3.32zm325.53 3.55c-0.16,-3.56 -1.85,-10.07 -1.42,-13.44 0.68,-5.38 7.97,-1.3 10.6,-0.97 4.21,0.53 3.96,-0.68 7.83,1.07 0.66,10.7 2.14,31.58 -0.79,42.34 -3.44,12.63 -5.42,24.14 -8.43,35.28 -1.66,6.13 -3.47,21.11 -5.27,23.8 -3.3,-0.07 -1.12,-0.88 -3.87,-2.14 -1.31,-0.6 -1.26,0.04 -2.61,-1.04 -1.55,-1.24 -2.23,-4.41 -3.11,-6.66 -1.41,-3.59 -3.17,-2.1 -2.65,-7.1 0.37,-3.49 1.73,-3.15 3.35,-5.89 1.07,-1.82 1.67,-5.53 2.33,-7.45 1.12,-3.24 0.8,-14.23 0.79,-18.31 -0.01,-4.67 0.69,-3.4 2,-6.86 2.06,-5.44 3.85,-7.77 2.4,-14.83 -1.24,-6.06 -0.85,-11.4 -1.14,-17.79zm-58.8 -8.48c0.69,-0.9 8.79,-5.58 11.48,-5.34 2.09,3.13 0.57,5.15 0.82,8.98 0.46,0.96 4.29,2.25 5.2,4.86 -2.07,1.02 -6.81,-1.9 -8.7,-3.4 -2.73,-2.17 -7.44,-1.91 -8.8,-5.1zm-345.6 6.08c1.57,-0.75 2.77,-1.44 4.98,-0.92 0.64,1.25 0.53,3.16 1,5.01 3.29,0.4 5.1,-1.13 5.4,-4.23 -2.27,-1.94 -2.79,-0.41 -3.67,-3.52 1.56,-2.33 2.07,-2.16 5.58,-1.88l1.77 3.56 4.76 -0.45c-0.88,-3.96 -1.99,-0.69 -2.55,-5.03 6.21,-2.43 4.35,-1.27 5.13,4.17 2.29,0.22 4.15,0.16 5.8,-0.53 0.45,-2.9 -0.39,-3.63 -2.56,-5.64 -0.08,-0.07 -0.25,-0.23 -0.32,-0.29l-0.63 -0.59c2.8,-1.66 0.57,0.29 2.46,-2.26l3.48 1.05c0.68,1.59 0.31,4.36 2.69,4.84 2.81,0.56 -2.22,0.03 0.99,-0.02l1 -0.26c0.9,-1.91 0.39,-3.85 0.53,-6.21 4.11,0.66 3.53,6.3 6.58,7.04 3.73,0.9 2.06,-2.39 1.94,-3.17 -0.32,-1.96 -1.02,-5.31 2.58,-3.9 1.98,0.77 1.27,3.14 2.07,5.42l3.92 -0.03 0.93 -3.82c0.12,0.12 0.51,0.56 0.63,0.7l2.76 2.67c2.77,2.13 1.04,2.77 4.72,2.82 1.25,-2.76 0.65,-2.65 0.62,-6.12l4.28 1.57c0.02,4.95 0.13,3.27 0.96,4.26 5.39,-0.34 0.96,-3.05 5.24,-3.04 0.43,0.85 0.27,1.01 0.64,2.18 1.3,4.12 1.94,1.29 2.04,6.64 -2.48,0.11 -5.04,-0.65 -7.83,-0.92 -2.28,-0.22 -5.3,-0.36 -7.63,-0.72 -2.4,-0.37 -5.73,-1.74 -6.52,-1.8 -2.72,-0.22 -2.36,1.24 -6.6,-0.3 -0.12,0.09 -0.28,0.24 -0.35,0.3l-1.03 0.86c-0.66,0.51 -0.57,0.44 -1.42,0.97 -0.91,0.56 -1.56,0.97 -2.67,1.39 -2.1,-2.08 -3,-2.75 -6.77,-1.1 -2.76,1.2 -4,0.6 -6.92,1.66 -8.41,3.02 -22.34,7.98 -29.37,13.73 -0.62,0.5 -0.79,0.75 -1.32,1.12l-25.54 23.71c-3.51,4.6 0.33,2.09 -5.61,7.05 -4.88,4.07 -3.68,2.12 -4.06,8.85 -2.28,1.17 -2.48,0.72 -3.82,3.42 -0.46,0.92 -0.67,1.5 -1.17,2.55 -0.85,1.78 -0.32,1.26 -1.46,2.07 -4.44,3.16 -1.98,1.14 -6.52,7.43 -4.43,0.1 -3.44,-1.05 -6.14,-2.56 -0.92,-0.51 -1.09,-0.34 -2.04,-0.85 0.04,-6.35 1.38,-3.1 12.22,-4.61 0.01,-4.22 -0.74,-3.84 -3.74,-5.23 -2.61,-1.21 -1.55,-3.22 -0.49,-5.2l9.52 0.44c0.55,-4.05 -1.74,-4 -4.36,-5.47l1.31 -4.22 3.8 -0.14c1.41,1.54 0.97,1.01 2.28,2.93l1.72 -1.03c2.75,-1.88 2.06,-2.06 1.94,-4.8 -2.44,-2 -3.42,-1.51 -5.8,-3.04 0.21,-2.23 0.29,-1.28 1.58,-2.38 2.73,-2.33 0.88,-1.93 3.6,-2.57 2.91,1.97 0.9,3.32 6.63,2.41 0.54,-3.85 -1.06,-4.1 -3.2,-5.62 0.37,-2.97 0.8,-4.14 3.86,-4.91 0.13,0.1 0.3,0.25 0.38,0.34l1.65 2.28c0.53,0.9 1.03,1.64 1.62,2.39 2.33,-0.54 4.21,-2.01 4,-5.3 -0.01,-0.01 -6.27,-3.73 -1.26,-5.91 4.18,-1.82 1.68,2.8 7.31,1.38 0.47,-3.46 -4.79,-8.13 2.27,-9.31l2.27 4.58 4.5 -0.16 0.9 -3.93c-2.59,-1.12 -3.52,-1.01 -3.4,-4.7 5.69,-2.71 5.31,-0.64 6.31,1.19 1.29,2.39 -0.69,1.36 2.02,1.62 2.06,-2.74 -0.01,-5.76 -0.4,-7.85zm92.35 -6.95c-0.29,-2.46 1.69,-5.89 2.5,-8.53 1,-3.27 7.58,-23.6 9.46,-25.31 0.12,0.09 0.27,0.23 0.34,0.29l1.84 1.87c1.5,1.65 3.98,4.47 4.47,6.55 0.69,2.87 -1.87,8.67 -2.91,11.56 -1.48,4.16 -1.72,7.95 -4.43,10.74 -2.56,2.63 -1.3,1.02 -5.21,1.94 -3.23,0.76 -1.7,1.16 -6.07,0.89zm18.72 -31.99c-2.88,-3.31 -5.86,-6.36 -4.34,-9.48 1.75,0.38 9.33,6.99 7.41,10.81 -1.32,0.56 -1.78,0.17 -3.08,-1.33zm197.8 152.87c-12.35,-4.64 -14.58,1.69 -16.19,2.65 -3.32,-1.45 -4.67,-7.44 -6.62,-10.9l-14.49 -28.05c-1.13,-2.15 -2.04,-3.14 -3.22,-5.27 -1.02,-1.83 -1.54,-3.78 -2.77,-5.78l-8.87 -16.55c-4.16,-7.83 -7.32,-15.13 -11.39,-22.69 -1.92,-3.56 -4.2,-7.08 -6,-11.02l-17.6 -33.48c-5.1,-8.38 -16.44,-35.33 -21.35,-38.28 -2.61,-1.58 -1.97,-2.03 -5.75,-2.61 -0.54,-2.43 0.45,-4.76 0.94,-7.51 0.37,-2.1 0.76,-6.01 1.71,-7.52 1.83,0.82 0.5,-0.42 1.8,1.43 2.4,3.43 3.79,7.46 5.97,10.97l13.37 25.59c2.41,4.34 4.47,8.37 6.72,12.73 2.16,4.19 4.35,8.55 6.65,12.81l13.64 25.16c1.53,2.64 4.21,11.69 6.7,13.14 -0.08,-6.59 -5.73,-24.61 -7.9,-31.84 -1.76,-5.85 -8.42,-26.13 -8.62,-30.36 3.3,2.46 6.17,12.97 8.73,17.45 0.76,1.32 1.36,2.58 2.01,4.46l5.87 13.19c1.53,3.31 3.16,5.79 4.55,8.74 4.03,8.52 7.23,18.67 11.57,26.71l8.37 17.78c4.35,10.45 17.4,35.46 19.66,44 1.01,3.8 0.58,7.52 1.34,11.59 4.89,1.97 4.99,-2.07 13.42,-0.67 12.63,2.1 17.92,9.59 26.36,14.37 2.37,1.34 2.97,1.86 5.3,0.7 -1.01,-2.92 0.37,-0.67 -2.05,-2.8 -2.25,-1.98 -4.3,-4.08 -3.08,-7.57 1.8,0.39 2.99,3.59 5.68,4.99 2.94,1.53 5.81,0.74 8.46,-0.19 2.21,-0.77 1.9,-0.71 2.85,-2.61 0.54,-1.08 1.47,-2.23 1.73,-3.15 0.49,-1.72 -0.05,-3.57 0.39,-5.21 0.22,-0.83 1.14,-1.82 1.67,-3.22 -2.39,-4.29 -3.55,-1.81 -4.48,-7.76 -3.92,-0.85 -2.73,-3.11 -6.54,-3.35 -1.78,-0.11 -2.91,0.52 -4.85,0.14 -1.56,-0.3 -1.18,-0.69 -3.09,-1.31l-2.71 1.53c0.63,-2.58 6.91,-11.9 8.64,-14.98l8.59 -13.81c3.04,-4.45 3.62,-6.36 5.01,-10.31l3.89 0.63c-0.88,0.43 -1.54,0.62 -2.31,1.01 0.09,4.4 0.04,3.98 2.4,6.29 0.17,4.41 -1.58,3.34 0.16,8.58 1.45,4.38 -0.27,3.29 -2.05,5.87l-3.09 21.73c3.06,0.67 3.17,-0.34 4.46,2.09 0.18,1.58 -1.46,1.31 -2.17,2.72 -1.39,2.79 0.05,1.66 0.05,3.82 0,1.8 -1.2,5.08 -1.41,7.42 -0.8,8.64 -3.71,6.62 -11.4,7.51 2.15,1.17 3.44,0.81 6.05,1.2l5.56 1.9c2.29,0.79 3.87,0.34 6.5,1.52 1.84,0.82 3.01,1.33 5.41,1.95 0.45,-0.62 0.28,-0.3 0.68,-1.34l0.98 -3 -4.96 -0.41c0.48,-3.15 1.16,-3.85 4.44,-2.56 4.15,1.64 10.73,6.62 10.96,11.03 0.12,-0.12 0.26,-0.29 0.34,-0.36 0.09,-0.07 0.28,-0.26 0.38,-0.33l1.39 -0.77c0.76,1.7 5.78,9.78 7.34,11.24l-0.96 0.8c-0.13,0.09 -0.32,0.21 -0.45,0.29l-1.08 0.51c1.44,2.03 3.24,4.63 2.65,7.66 -5.59,0.21 -3.17,-4.75 -6.14,-6.15 -2.53,-1.19 -4.59,-4.26 -6.78,-6.05l-0.22 -4.03c-4.38,-2.32 -2.06,-4.88 -7,-5.72 1.18,5.38 4.26,2.89 3.1,7.38 -4.87,0.88 -5.84,-7.71 -14.52,-8.89 0.64,1.89 2.44,2.56 4.11,5.15 2.35,3.65 7.52,5.09 10.1,8.08 0.87,1.01 1.08,1.39 1.87,2.41 0.65,0.85 1.72,1.84 1.96,1.99l-0.11 6.23c-0.76,-0.57 -0.86,-1.01 -2.03,-1.42 -2.68,-0.95 -0.79,0.82 -3.09,-1.12 -6.15,-5.18 -8.85,-12.27 -16,-16.8 -6.22,-3.94 -4.41,-6.85 -16.85,-7.13 0.81,3.38 3.63,4.26 5.76,6.71 2.2,2.52 3.17,5.11 6.73,5.45 2.77,7.19 4.79,3.37 7.93,3.03l3.88 4.54c1.38,1.77 1.93,3.23 1.98,6.1l-4.39 2.84c-0.6,0.53 -0.18,0.25 -0.82,1 -0.17,0.19 -0.8,0.93 -0.85,0.98 -0.86,0.78 -0.73,0.65 -1.89,1.08 -1.02,-0.89 -13.94,-18.95 -15.8,-20.02 -4.8,2.36 -0.65,4.83 -0.11,7.15 -2.76,-0.98 -2.32,-3.98 -7.35,-9.38l-7.99 -8.41c-1.3,-2.28 -2.62,-4.31 -5.18,-5.83 -5,-2.99 -9.12,-5.58 -14.23,-7.49zm-200.29 -166.77c0.11,-2.01 1.88,-6.28 2.67,-8.3 1.03,-2.63 1.51,-5.26 2.29,-8.08 1.65,0.15 5.36,1.66 7.04,2.47 0.33,2.92 -2.81,11.78 -3.84,15.23 -4.66,0.33 -4.5,0.03 -8.16,-1.33zm31.72 -12.04c4.6,-8.15 16.59,-2.75 21.97,-3.62 4.05,-0.66 1.78,0.47 4.67,0.54 2.69,0.07 1.18,-0.85 4.24,-1.35 1.17,2.93 -1.29,7.47 -2.44,10.38 -6.5,16.35 -14.9,41.39 -21.43,59.44 -1,2.78 -2.24,7.77 -3.38,9.97l-1.81 -2.1c-1.05,-1.92 -2.03,-4.36 -3.92,-6.42 -0.82,-0.89 -1.01,-0.79 -1.94,-1.69l-4.94 -4.24c-11.52,-8.29 -11.77,-4.5 -22.3,-5.68 0.07,-1.4 0.34,-3.24 0.57,-4.93l12.42 -32.71c0.06,-0.11 0.18,-0.25 0.24,-0.36 1.43,-2.78 -0.21,-1.06 0.68,-3.59 0.52,-1.48 0.91,-0.91 1.43,-3.47 1.48,-7.3 5.37,-4.03 13.98,-6.03l1.96 -4.12zm11.24 91.16c-1.22,-3.72 -5.4,-9.27 -5.21,-12.17 0.16,-2.34 12.32,-35.1 13.36,-37.65 1.82,-4.45 3.01,-8.9 4.51,-13.25l6.93 -18.56c1.73,-5.32 4.36,-13.93 7.31,-18.17 2.8,-0.4 4.11,0.16 5.97,1.25 1.45,0.84 3.01,1.47 4.33,2.34 -0.02,7.6 -26.74,70.93 -31.89,84.91l-5.31 11.31zm-32.7 -99.7c0.4,-2.02 2.36,-3.87 2.98,-0.48l-2.98 0.48zm-5.03 -6.8c0.65,-0.52 1.06,-0.74 1.84,-1.41 0.43,-0.37 4.9,-4.56 4.58,0.13 -0.12,1.76 -1.76,2.2 -2.79,3.62 -1.29,1.77 -0.77,2.54 -1.59,4.18 -2.69,0.19 1.55,0.21 -1.15,0.06 -1.81,-0.1 -0.89,-3.77 -0.88,-6.58zm147.86 49.23c0.94,1.54 1.02,2.63 1.86,4.24 1.24,2.38 1.67,1.53 2.36,3.64l-1.78 2.75c-0.35,-0.22 -1.39,-1.01 -1.6,-1.1 -6.54,-2.96 -2.79,-2.18 -8.56,-12.77 -0.92,-1.69 -1.22,-2.81 -1.86,-4.15 -0.85,-1.78 -1,-2.24 -1.78,-4.42 -0.52,-1.44 -1.18,-3.13 -1.76,-4.26l-9.48 -20.83c-2.26,-5.83 -7.09,-10.55 -7.3,-17.26l35.78 30.66c1.49,1.32 4.18,2.62 5.33,4.05 -0.67,0.49 -1.42,1.09 -3.21,0.72l-6.26 -3.69c-6.14,-3.57 -5.6,-3.85 -9.88,-3.92 -0.83,1.83 -1.85,2.57 -1.45,4.86 0.5,2.92 1.98,5.48 3.16,7.95 0.08,0.17 0.3,0.69 0.38,0.87 0.75,1.7 1.04,2.58 1.8,4.22l4.25 8.46zm-35.99 -4.68c-3.18,-7.66 -5.65,-11.99 -9.22,-18.7l-9.62 -18.46c-0.73,-1.76 -1.73,-3.22 -2.4,-4.81 -2.45,-5.82 -4.52,-6.89 -3.81,-9.56 0,-0.01 6.59,-16.44 8.35,-22.59 0.06,-0.21 0.42,-1.12 0.52,-1.32l0.52 -0.74c1.69,1.17 1.19,1.6 1.83,3.61 0.47,1.49 0.76,1.81 1.53,3.42 1.01,2.13 1.91,4.43 2.97,6.74 3.4,7.48 4.33,7.75 6.86,12.59 4.47,8.52 8.12,18.95 12.48,27.01 2.3,4.25 4.39,9.18 6.41,13.63 0.96,2.12 2.25,3.08 3.43,6.31 2.99,8.19 11.72,25.1 15.63,33.03l19.3 40.22c2.07,4.24 4.29,8.09 6.55,12.87 2.29,4.84 4.15,9.1 6.37,13.64 2.12,4.34 4.41,8.49 6.3,13.17 1.93,4.77 4.39,8.39 6.57,12.91 1.21,2.51 5.03,11.52 5.27,14.26 -2.58,-1.58 -5.33,-9.3 -6.81,-12.18 -0.93,-1.81 -2.1,-3.48 -3.37,-5.73 -1.37,-2.43 -1.57,-3.75 -2.8,-6.29 -4.22,-8.73 -8.34,-15.59 -12.29,-24.1 -4,-8.62 -7.99,-16.24 -12.1,-24.41 -2.01,-4.01 -4.21,-7.79 -6.17,-12.08 -5.06,-11.05 -8.42,-15.95 -12.34,-24.07l-12.17 -24.28c-1.98,-4.1 -3.68,-8.62 -5.75,-12.56 -2.16,-4.11 -4.54,-7.5 -6.34,-11.91 -1.06,-2.61 -1.66,-3.8 -2.89,-6.24 -1.38,-2.73 -0.62,-0.9 -1.92,-2.8l-12.96 -26.03c-1.13,-1.11 0.41,-0.02 -1.4,-0.93 0.05,2.76 6.3,23.67 7.54,28.13 1.33,4.77 8.27,25.12 5.93,28.25zm118.58 -55.9c-0.23,-2.93 -0.74,-5.14 0.66,-6.98 1.1,1.3 1.31,1.26 1.2,3.75 -0.14,3.42 -1.52,3.03 -1.86,3.23zm-184 -2.63c0.25,-0.15 -0.6,-1 1.96,-0.26 0.53,0.15 0.93,0.57 1.74,0.8 1.63,0.47 3.21,0.33 4.74,0.76 -1.11,6.11 -8.33,-1.15 -8.44,-1.3zm-38.1 8.22c0.69,-3.94 2.48,-8.37 3.64,-12.25 1.18,-3.95 1.55,-8.66 6.2,-7.92 0.52,7.32 -2.1,6.19 -2.8,11.34 2.07,2.8 1.91,-0 2.34,3.04 -8.69,3.41 -4.47,4.6 -9.38,5.79zm52.97 -5.54c-1.39,-2.33 -1.44,-2.4 0.36,-4.4 2.37,-2.64 2.32,-5.44 3.34,-8.72 1.27,-4.07 2.12,-3.14 3.6,-3.27 1.73,4.55 -2.19,10.05 -4.07,14.32 -0.73,1.67 -1.34,2.28 -3.24,2.07zm-27.1 -2.77c4.23,-6.97 2.33,-7.11 4.83,-11.43l3.77 -0.14c-0.38,3.04 -4.15,14.85 -5.95,16.11 -0.08,0.06 -1.4,0.69 -1.61,0.77 -1.45,0.54 -2.31,0.52 -4.07,0.63 -3.78,0.23 -5.04,1.41 -8.75,0.41 0.38,-3.33 0.83,-1.82 1.76,-4.16 0.76,-1.9 -0.09,-1.42 1.17,-3.66 4.97,-0.36 0,2.12 8.85,1.47zm42.38 -11.58c0.41,-0.96 0.89,-1.65 1.42,-2.84 1.17,-2.6 1.37,-3.91 2.99,-5.35 3.32,4.43 -0.84,2.21 9.48,3.07 1.58,4.27 -1.46,9.81 -3.01,13.43 -1.81,4.23 -3.51,9.07 -5.02,12.66 -7.82,-0.23 2.7,-0.8 -11.05,-3.96l5.18 -17.01zm155.34 107.44c2.52,2.09 16.81,14.33 17.07,16.35 -3.93,0.19 -4.04,0.08 -6.48,-2.02l-27.22 -23.82c-6.64,-5.6 -4.78,-4.62 -8.81,-8.22 -1.74,-1.56 -3.05,-2.2 -4.82,-3.69 -3.19,-2.69 -5.26,-4.86 -9.18,-7.82l-27.79 -23.84c-3.02,-2.51 -5.85,-5.05 -9.19,-7.84 -1.34,-1.12 -2.8,-2.6 -4.54,-4l-13.96 -11.53c-0.33,-0.31 -1.63,-1.76 -2.1,-2.17l-6.89 -5.86c-6.02,-5.72 -13.74,-11.02 -17.81,-16.2 -1.18,-1.51 -2.33,-3.82 -3.22,-5.28 -3.3,-5.38 -2.7,-2.08 -3.12,-5.78 2.5,1.03 7.53,5.77 9.72,8.24l9.18 7.82c6.81,5.43 11.32,10.53 18.04,16.04 1.69,1.39 3.22,2.32 4.75,3.73 3.41,3.15 9.48,9.66 13.29,12.24l13.72 11.81c8.84,8.03 23.58,19.78 32.11,28.08 5.54,5.39 12.18,10.55 18.23,15.77 3.2,2.76 5.66,5.21 9.02,8zm197.53 -113.06c1.29,0.93 0.87,0.02 1.32,1.7l-3.29 0.27 -0.03 -3.42c0.58,0.47 1.1,0.81 2,1.46zm-361.32 -4.86l3.14 0.56c1.55,2.8 1.24,4.25 -0.61,5.89 -2.57,-0.77 -0.39,-0.33 -2.83,-1.08l0.3 -5.38zm-23.22 18.72c-0.18,-4.83 4.97,-16.93 6.89,-21.46 2.48,0.42 5.06,1.47 7.43,1.75 3.65,0.43 5.41,-0.56 4.43,4.02l-7.16 3.75c-1.79,1.33 -3.79,4.18 -3.19,6.61 3.84,0.4 1.56,-0.72 4.29,-3.09 0.98,-0.85 3.01,-2.28 4.19,-2.35l-5.46 12.63c-2.7,0.26 -3.29,-0.66 -5.16,-1.32 -1.85,-0.65 -4.22,-0.45 -6.24,-0.54zm197.78 -19.66c0.81,-2.33 3.59,-2.37 6.08,-3.01 15.81,-4.05 16.97,-3.54 31.2,-12.55 3.19,-2.02 10.04,-3.19 14.37,-3.22 -0.74,1.92 -0.51,1.01 -1.86,2.37 0.49,1.41 0.21,0.93 1.13,1.82l-0.99 0.76c-0.9,0.98 -0.15,-0.51 -0.53,1.06 6,2.48 15.41,2.66 21.2,4.62 15.06,5.08 20.11,6.62 32.84,18.27 3.69,3.37 8.57,12.7 8.75,17.56 -3.15,-0.6 -2.07,-0.42 -3.65,-3.19 -2.44,-4.27 -11.39,-11.18 -15.12,-14.1l-6.18 -5.33c-3.75,-3.04 -9.6,-7.05 -14.06,-8.92 -3.28,-1.38 -17.08,-1.85 -21.42,-1.37l-0.46 3.72c0.78,0.48 1.9,0.94 2.94,1.15l3.56 0.96c-0.65,3.55 -0.1,0.7 -1.81,2.7 -2.01,2.36 -0.37,6.48 0.89,8.41 1.98,3.03 3.95,7.23 5.47,9.09 4.37,5.34 5.78,3.45 8.96,5.64 1.77,1.22 6.4,5.99 9.23,3.93 -0.79,-1.64 -4.04,-2.7 -5.45,-3.46 -2.89,-1.56 -1.8,-2.04 -5.14,-3.29 -1.1,-0.41 -0.53,-0.01 -1.62,-0.84 -4.69,-3.59 -6.35,-9.91 -8.5,-11.66 -1.23,-1.01 -1.43,-0.03 -1.99,-1.99 -0.12,-0.42 -0.26,-3.79 -0.12,-4.21 0.6,-1.85 0.39,-1.38 2.92,-1.51 9.42,-0.48 9.4,2.96 14.66,3.06 0.12,-0.16 0.21,-0.39 0.29,-0.52 0.07,-0.12 0.19,-0.35 0.28,-0.49 0.09,-0.15 0.42,-0.7 0.51,-0.83 0.81,-1.2 -0.85,0.02 0.74,-0.81l5.49 7.77c0.15,0.15 2.08,1.36 2.54,1.7 4.23,3.12 3.13,5.51 10.04,7.08 2.63,0.6 4.05,1.59 5.95,3.01 2.3,1.72 3.91,4.92 5.28,7.47 1.52,2.82 4.88,5.79 5.49,7.43 -1.52,2.63 -2.32,1.65 -5.14,2.81 -1.55,0.63 -1.18,0.99 -2.22,1.56 -1.31,0.72 -0.94,0.57 -2.69,0.08 -0.76,-6.32 3.24,-13.63 -10.24,-12.36l-1.62 2.53c-6.15,0.11 -3.95,-0.83 -9.24,2.96l-0.02 5.61c1.17,1.04 2.13,1.45 3.13,2.25 1.21,0.97 1.17,1.86 2.09,3.36 2.68,4.33 4.04,10.2 5.07,15.65 0.66,3.47 0.2,4.88 -1.02,7.94l-6.83 -0.42c-0.31,-0.69 -0.2,-2.49 -0.19,-3.63l3.68 -2.2c-0.05,-3.01 -0.66,-1.2 -0.62,-6.78 0.02,-2.87 -1.33,-2.65 -2.62,-5.02 -1.44,-2.64 -1.69,-1.29 -2.93,-3.61 -1.25,-2.33 -1.76,-4.75 -5.18,-4.64 -0.07,4.02 4.47,7.24 -0.04,10.72 -3.28,-0.74 -1.82,-2.34 -5.43,-2.73 -3.19,-0.34 -8.1,0.78 -9.12,-3.01 -0.65,-2.39 -2.4,-3.85 -3.81,-5.98 -1.05,-1.59 -1.97,-3.99 -3.34,-5.25l-6.49 -7.45c-0.85,-1.25 -1.05,-1.21 -2.09,-2.23l-5.85 -6.28c-0.99,-1.03 -1.07,-0.97 -2.05,-2.2l-8.64 -7.74c-1.85,-1.21 -3.42,-1.35 -5.27,-2.66l-5.28 -3.32c-1.57,-0.77 -3.46,-1.54 -5.54,-2.3 -5.28,-1.92 -11.06,-2.27 -12.37,-3.95zm69.92 -20.64c2.04,1.94 0.22,3.91 -3.11,3.35 -1.98,-0.33 -1.01,-0.42 -1.47,-0.68 -0.11,-0.23 -1.26,0.82 -0.4,-1.91 0.43,-1.38 3.55,-2.13 4.99,-0.76zm-268.37 28.81c-2.45,-0.2 -3.76,-0.65 -5.19,-2.05 -4.85,-4.76 -2.7,-5 0.26,-15.68 1.08,-3.89 2.28,-7.74 3.49,-11.66l3.84 -10.74c5.17,0.5 7.26,2.03 9.86,4.62 -0.48,2.36 -0.83,0.9 -1.76,4.14l-4.44 13.94c-0.72,1.88 -1.16,1.99 -1.76,4.21 -0.43,1.58 -0.52,3.43 -0.98,5.09 -0.46,1.67 -2.27,6.76 -3.33,8.14zm42.55 -21.19c-0.33,-1.23 -0.65,-2.84 -0.21,-4.37 1.01,-3.49 3.32,-0.92 4.85,-4.21 3.2,-6.86 2.33,-12.72 5.97,-16.15 3.85,0.9 2.28,3.96 7.97,4.22 -0.11,6.2 -6.64,16.06 -6.64,23.33 -3.9,0.38 -2.83,1.79 -5.9,-1.04l-1.27 -1.11c-1.7,-0.77 -2.43,-0.04 -4.78,-0.68zm-71.38 19.14c-0.14,-4.53 4.7,-16.51 6.49,-21.49 2.67,-7.39 4.35,-13.82 7.48,-20.71l4.61 1.64c0.1,3.55 0.09,2.69 -1.22,4.98l-9.78 29.81c-1.31,5.62 -0.1,4.29 -7.58,5.76zm68.88 -27.87c-1.64,-2.39 -0.35,-6.56 0.27,-9.33 0.65,-2.87 1.25,-5.47 4.12,-5.74 2.27,4.08 0.1,5.26 -0.75,8.51 -0.68,2.61 0.2,1.97 -1.03,4.39 -1.23,2.42 -0.52,1.95 -2.61,2.17zm239.84 -3.92l0.12 -4.56c3.4,-1.68 20.93,-3.23 24.11,-0.42l0.49 1.62c1.19,2.91 7.53,3.83 10.67,4.46 3.66,0.73 12.15,3.27 14.93,1.49l-1.01 -5.68c-1.84,-2.42 -16.99,-7.72 -18.54,-13.16 1.58,-2.09 0.97,-0.28 3.07,-1.89 1.13,-0.86 0.97,-1.35 1.94,-2.59 1.58,0.3 6.84,1.29 8.09,1.95 2.75,1.46 0.26,2.1 6.33,3.83 3.06,0.87 5.4,1.52 8.18,2.14 2.35,0.53 2.17,0.82 3.96,0.66 6.51,-0.58 5.92,0.51 11.48,2.78 5.84,2.39 8.92,4.33 15.44,4.62 3.83,0.17 3.36,1.28 8.32,1.08 1.18,-1.6 0.89,-3.39 3.72,-2.93 3.52,0.57 3.07,6.34 4.04,8.74 1.23,3.03 2.02,0.95 2.34,4.1 0.33,3.25 -1.5,3.39 -2.46,6.35 -0.92,2.83 -0.54,3.84 -2.6,5.65 -3.52,-4.97 2.63,-6.65 -5.91,-12.04 -3.21,-2.03 2.92,2.14 -1.02,-0.83 -1.12,-0.85 0.4,-0.14 -1.15,-0.83 -3.13,-1.39 -2.9,-0.61 -6.17,-2.87 -3.57,-2.46 -7.8,-2.66 -10.64,-4.58 -4.86,-3.29 -4.15,-3.56 -11.38,-3.39 0.28,2.27 2.18,2.14 4.22,3.88 1.8,1.54 2.37,2.25 4.65,3.87 8.79,6.25 12.35,11.44 18.14,15.87 3.04,2.33 5.48,5.93 8.55,8.35 0.11,2.08 0.44,1.89 -0.49,3.55 -2.29,-0.72 -2.95,-3.54 -4.96,-5.29 -0.71,-0.61 -0.41,-0.31 -1.09,-0.79 -1.96,-1.37 -2.14,-2.94 -3.89,-4.56 -2.83,-2.62 -7.9,-5.94 -11.29,-8.74 -3.76,-3.11 -7.19,-6 -11.28,-8.82 -5.88,-4.05 -7.64,-9.39 -11.62,-7.94l-0.04 0.91c0.41,2.73 5.83,6.73 7.6,8.73l8.64 13.83c0.81,1.52 0.69,1.28 1.64,2.6 3.59,4.99 8.56,11.43 8.54,17.47 -2.2,2.18 -5.62,2.62 -8.03,4.62 -2.11,1.74 -9.67,1.15 -11.7,0.12 0.2,-2.91 2.32,-3.08 4.59,-4.74l-0.15 -4.25 -2.72 -2.51c-5.6,-4.87 -5.15,-0.87 -5.59,-10.26l-6.74 -4.72c-1.82,-1.57 -1.59,-6.7 -3.86,-7.72l-5.98 -1.71c-2.6,-0.41 -5.43,-0.42 -8.03,-0.1 0.37,1.9 2.19,2.14 2.45,4.12 0.43,3.21 -4.1,1.01 -5.35,0.74 -3.46,-0.75 -7.86,0.02 -11.42,-0.99 -5.66,-1.6 -4.29,-0.48 -4.99,0.06 1.6,2.49 8.45,5.68 12,7.66 10.43,5.8 12.49,9.64 20.32,17.39 3.15,3.12 7.15,6.99 4.36,11.87 -2.94,-1.53 -5.68,-8.78 -9.46,-12.88 -5.31,-5.76 -11.68,-10.87 -18.23,-15.19 -2.63,-1.73 -3.8,-1.88 -6.74,-4.19 -4.71,-3.71 -7.84,-8.32 -14.5,-6.82 -1.13,4.37 1.07,4.72 4.01,7.58 2.29,2.23 4.25,3.15 6.45,5.12 4.4,3.95 7.27,6.49 13,10.05 2.93,1.82 3.84,3.46 5.84,5.72 1.28,1.44 1.73,1.38 2.84,3.14 4.58,7.29 7.8,9.19 13.11,15.54l-0.57 3.02 -3.18 1.72c-2.13,1.16 -1.31,1.04 -3.08,0.1 0.21,-3.99 0.65,-0.8 2.14,-3.65 -1.62,-2.25 -4.95,-3.57 -6.78,-5.53 -1.58,-1.69 -4.09,-3.95 -5.42,-6.07 -9.35,-14.96 -5.58,-7.46 -17.02,-18.88 -4.46,-4.45 -6.75,-5.43 -9.67,-7.96 -7.59,-6.56 -6.09,-3.97 -11.24,-6.38l-0.34 -6.43c-1.92,-1.09 -1.79,-0.44 -2.67,-2.83 0.74,-0.58 0.02,-0.4 1.69,-1.01 2.15,-0.78 4.51,-0.21 7.02,-0.37zm72.29 -25.34c-5.53,-0.9 -7.68,0.01 -8.88,-2.45 1,-0.61 -0.65,-0.12 1.56,-0.66 2.46,-0.61 19.63,0.41 21.14,0.76 4.49,1.06 12.94,5.22 12.74,10.12 -4.11,0.21 -5.26,-1.75 -7.94,-3.35 -5.72,-3.4 -11.07,-3.2 -18.63,-4.42zm-132.58 1.86c-0.08,-0.1 -0.21,-0.22 -0.29,-0.32l-0.84 -1c-0.08,-0.1 -0.18,-0.25 -0.26,-0.34l-3.88 -4.57c-1.89,-2.21 -3.41,-4.08 -5.6,-5.96 -1.73,-1.48 -4.33,-3.61 -6.34,-5.18 -5.07,-3.95 -12.86,-6.63 -14.46,-8.44 4.6,-2.13 6.13,-7.63 19.13,0.66 13.63,8.7 17.46,18.72 26.53,29.42 6.42,7.57 10.99,5.86 3.59,13.16 -1.54,1.52 0.65,0.16 -1.71,1.42 -2.57,-1.38 -8.61,-9.49 -10.88,-12.27 -1.84,-2.25 -3.13,-4.4 -4.98,-6.57zm-103.46 -32.43c3.47,-0.08 4.48,0.39 7.09,-0.82 8.85,-4.11 8.77,-3.64 13.63,1.15 1.58,1.56 0.91,-0.15 1.18,2.28 -2.22,1.13 -3.84,0.58 -6.2,2.04 -7.64,4.72 -7.72,7.18 -14.85,6.66 -2.41,-0.18 -0.96,-0.34 -3.62,-0.76 -0.47,-6.38 0.11,-6.16 2.79,-10.54zm-77.1 31.93c-0.25,-0.48 -0.3,0.43 -0.51,-1.49 -0.34,-3.13 1.49,-2.06 1.66,-4.63 0.53,-8.28 0.92,-3.04 2.72,-9.75 1.23,-4.57 2.52,-3.13 7.25,-3.44 6.74,-0.43 8.26,-2.07 12.22,-4.4 1.84,-1.08 1.48,-1.22 3.35,-2.09 2.12,-0.99 5.77,-2.21 8.2,-2.88 8.03,-2.23 10.67,-4.5 16.91,-1.93 -5.71,9.23 -9.29,3.62 -8.96,13.29 3.77,-0.76 2.25,-4.15 7.66,-3.97 0.02,3.08 -1.53,3.89 -2.66,6.57l2.14 5.97c3,0.35 3.4,-1.4 7.79,-0.85 1.12,0.14 7.56,2.07 12.01,0.6l1.81 -1.11c4.26,-2.47 2.81,-0.52 5.12,-4.48 7.74,-0.58 13.82,-5.65 21.28,-5.53 2.62,0.04 3.57,0.62 5.61,0.94 2.36,0.37 4.23,-0.05 6.58,-0.01 5.48,0.09 3.79,4.42 9.69,2.54 -0.71,-4.77 -6.26,-9.14 -5.31,-14.93 6.11,-0.75 5.79,7.12 8.73,9.17 4.9,3.42 13.85,0.11 14.79,0.47 0.81,0.31 13.19,10.65 30.16,17.1 3.1,1.18 3.5,2.51 5.46,4.9 0.08,0.1 0.21,0.22 0.29,0.31 2.21,2.81 0.27,2.8 2.13,5.2 0.96,1.24 0.44,-0.45 2.24,3.25 1.13,2.32 3.66,4.47 5.91,6.19 1.46,1.12 1.77,1.69 3.33,2.76 1.83,1.26 1.69,0.79 2.9,2.72 -0.62,2.38 0.07,0.64 -1.47,2.34 -5.01,5.55 -2.51,1.17 -2.51,6.62 -7.11,2.07 -7.55,0.25 -11.66,1.25 -2.33,0.57 -6.19,4.99 -6.81,5.87l-1.44 2.12c-0.95,0.86 -0.87,0.44 -1.79,1.26 -1.42,1.26 -1.1,2.02 -2.9,3.15 -2.54,1.6 -3.71,0.45 -10.11,2.75 -9.45,3.39 -6.88,4.13 -15.33,10.1 -1.85,1.31 -5.79,4.12 -7.89,4.89 -2.48,0.91 -2.78,0.27 -4.54,1.57 -2.02,1.49 -0.51,1.1 -4.82,1.57 -2.06,3.45 0.69,1.04 -2.63,3.04 -2.46,1.49 -1.35,0.53 -2.67,2.89 -2.17,3.87 -1.69,1 -6.64,4.9l-1.46 0.96c-3.88,2.03 -8.74,3.57 -13.81,6.34l-12.61 8.56c-1.55,1.51 -1.44,3.01 -3.62,3.65 -3.85,1.13 -4.8,-1.73 -6.97,-3.4l-50.82 -42.76c-0.45,-0.32 -0.8,-0.5 -1.28,-0.91 -0.17,-2.7 5.17,-16.34 6.74,-21.61 2.65,-8.88 4.64,-7.9 5.99,-9.86l2.04 -3.42c1.03,-2.03 0.93,-3.21 0.73,-5.82 -0.55,-0.5 -0.94,-0.85 -1.48,-1.42 -1.45,-1.51 0.08,-0.39 -1.57,-1.48 -11.84,-7.78 -15.22,-2.15 -20.68,-1.68 -1.56,0.13 -7.31,-0.78 -8.52,-1.95zm-111.56 -32.37c2.4,-1.09 1.36,0.37 2.68,-1.54 1.16,-1.67 -0.69,-0.94 1.49,-2.37 0.95,1.15 1.21,1.59 1.28,3.3 -4.32,4.23 -3.13,3.37 -5.2,3.54l-0.25 -2.93zm288.51 2.46c-0.64,-0.44 -1.22,-0.5 -1.82,-1.21l-1.61 -3.49c3.59,-0.91 6.24,-1.18 9.61,0.93 13.77,8.65 17.23,9.28 24.84,23.19 4.76,8.71 7.53,6.34 9.09,14.65 0.9,4.83 2.61,3.24 2.48,9.05 -1.41,1.48 -2.55,2.65 -4.88,3.11 -2.96,-0.32 -3.7,-4.8 -3.87,-5.26 -2.36,-6.39 -1.72,-8.71 -3.12,-10.98l-5.54 -5.97c-2.59,-2.3 -1.39,0.27 -2.77,-3.27l-3.92 -7.59c-0.44,-0.64 -0.85,-0.95 -1.44,-1.64 -5.4,-6.31 0.11,1 -7.99,-5.99 -4.31,-3.72 -4.6,-0.42 -7.58,-3.98 -1.47,-1.76 0.44,-0.22 -1.48,-1.54zm-73.05 -5.78c3.34,-1.54 2.27,-0.6 2.88,0.06 2.33,5.4 -3.41,4.56 -5.13,1.45 0.53,-0.4 1.54,-1.17 2.25,-1.5zm-161.56 1.5c-0.38,1.64 -0.51,1.56 -1.29,2.83 -3.07,0.05 -4.46,-1.01 -5.2,-3.35 2.25,-2.17 4.6,-1.42 6.49,0.52zm293.11 -6.68c2.08,-2.32 4.42,-1.02 8.12,-2.76 9.43,-4.44 13.49,1.22 21.15,7.37 5.61,4.5 5.76,5.76 7.94,13.48 1.37,4.83 4.51,11.87 3.4,16.56l-8.54 -0.05c-1.58,-2.49 -1.52,-3.25 -2.31,-6.21l-2.63 -5.73c-1.38,-2.95 -4.46,-3.33 -9.25,-7.22 -3.4,-2.76 -17.38,-12.6 -17.89,-15.44zm2.02 33c-3.61,-1.23 -0.72,1.95 -7.63,-4.4 -4.92,-4.51 -3.22,-7.61 -8.57,-9.11 -2.96,-0.83 -2.06,0.26 -4.23,-1.81 -1.58,-1.5 -4.11,-4.65 -5.17,-6.86 -1.53,-3.17 0.07,-1.46 -2.66,-3.62 -6.52,-5.16 -9,-4.29 -10.43,-7.29 1.65,-0.06 4.31,0.27 5.55,0.13 2.3,-0.26 4.81,-5.53 13.56,4.59 4.73,5.47 3.69,7.62 6.84,8.95 3.79,1.6 4.4,1.23 6.95,4 4.52,4.91 6.97,6.3 11.06,10.22 5.1,4.9 1.52,2.84 6.78,3.57 2.59,6.33 5.05,3.39 3.62,8.31 -8.64,1.02 -7.28,1.51 -10.78,-2.39l-1.62 -1.42c-1.4,-1.3 -1.36,-2.23 -3.28,-2.88zm-133.18 -30.2c-0.08,-1.97 1.34,-5.9 5.33,-5.92 0.24,3.03 -0.3,4.89 -1.9,6.75 -2.03,0.07 -1.89,-0.11 -3.43,-0.84zm-104.06 -0.36c2.21,-2.37 3.91,-0.94 7.25,-1 3.48,-0.06 3.14,-0.69 7.43,-0.31 4.85,0.43 10.27,-2.03 14.43,-2.34l32.86 -1.19c-0.04,1.82 -1.51,6.84 -4.28,6.97 -1.25,0.06 -0.75,-0.1 -1.35,-0.13l-19.97 0.94c-13.79,2.78 -20.92,9.14 -22.75,1.2 -1.17,-5.1 -11.69,0.06 -13.61,-4.15zm-113.58 -7.78c4.16,0.06 4.36,3.35 5.13,7.61 -2.32,-0.74 -2.93,-1.12 -3.84,-3.03 -0.81,-1.7 -1.31,-2.8 -1.28,-4.58zm-21.53 -1.57c-0.54,-7.67 4.57,-3.61 6.24,-2.8 1.93,0.93 0.45,0.23 2.43,0.67 2.69,0.59 0.93,0.03 2.58,0.98 3.75,2.15 5.77,1.03 5.44,4.29l-8.22 -0.68 -1.42 -3.6c-3.05,1.46 -3.39,1.29 -7.06,1.14zm172.81 2.05c1.6,-0.71 4.39,-0.69 6.1,-1.09l15.95 -4.64c1.78,-0.7 3.96,-1.12 5.38,-2.01 1.96,-1.23 1.45,-1.55 4.97,-1.06 4.51,0.63 7.63,1.32 10.83,3.15 0.53,3.82 -0.16,3 3.39,5.52 -3.04,0.22 -5.73,1.35 -8.86,0.54 0.21,-2.85 0.79,-0.95 0.39,-3.68 -6.44,-1.64 -5.28,-0.14 -6.01,3.8 -0.42,2.26 -0.65,0.88 -1.69,3.37 -0.93,2.22 0.46,1.69 -2,2.94 -0.31,-0.6 -0.35,-0.09 -0.42,-1.34 -0.12,-2.2 1.94,-4.65 2.15,-7.19 -3.5,0.38 -1.23,1.39 -6.56,1.46 -3.66,0.05 -21.28,1.97 -23.64,0.2zm59.15 -4.86c2.07,-1.17 6.49,-2.68 8.9,0 -2.09,3.22 -6.97,1.76 -8.9,0zm-201.42 11.73c-4.03,-2.02 0.47,1.31 -1.88,-5.1 -1.44,-3.92 -2.5,-5.23 -5.78,-6.38l-4.57 -1.53c7.95,-0.16 12.98,4.5 12.98,10.4l-0.75 2.6zm215.1 -15.73c4.44,-0.11 4.69,1.91 7.9,-1.73 1.16,0.35 1.57,0.31 2.09,1.48 -1.12,0.41 -2.87,0.88 -4.24,1.07 0.75,2.55 -0.03,1.05 1.75,2.57 -0.18,0.09 -0.74,0.44 -0.86,0.53 -2.02,1.37 -3.4,1.93 -8.24,0.08l1.36 -3.29c0.05,-0.11 0.17,-0.52 0.25,-0.71zm29.46 -4.27c2.15,0.61 6.52,-0.54 4.85,4.88 -3.6,1.14 -5.37,-0.04 -7.67,-2.08l-0.23 -3.95c2.67,0.62 1.39,0.68 3.05,1.15zm-199.04 -0.83c0.1,-3.05 0.16,-1.04 0.66,-1.77 1.3,1.2 2.7,3.02 0,3.99 -0.53,-0.82 -0.71,-0.46 -0.66,-2.22zm185.56 -4.1c2.35,-1.39 6.03,1.54 7.91,3.47 -2.15,5.35 -6.29,1.64 -7.91,-0.81 -2.55,0.53 -0.66,0.25 -1.53,0.63 -3.27,1.41 -1.77,0.67 -4.2,0.28 -2.61,-0.42 -4.5,0.24 -7.3,-0.01 0.69,-1.63 0.23,-1.21 2.23,-2.26 3.65,-1.91 6.05,-1.82 9.41,-0.11l1.39 -1.19zm-189.03 2.09c0.06,-2.4 -0.16,-1.71 1.1,-2.69 1.75,1.41 0.9,0.28 1.28,2.36l-2.38 0.33zm-16.63 7.34c0.13,-6.26 -1.58,-6.64 -4.6,-7.42 -1.24,-0.32 -1.8,-0.47 -2.81,-0.79 0.51,-2.1 0.5,-1.17 0.85,-3.19 11.96,-0.07 7.57,6.28 8.24,9.43 0,0.02 4.95,11.08 2.07,15.14 -5.52,-4.55 2.97,-12.26 -9.87,-12.1 1.75,7.05 4.68,0.49 6.28,8.27 -3.16,-0.37 -2.19,-1.19 -5.17,-2.13 -0.88,2.94 -0.41,6.96 -1.53,9.91 -1.38,-1.29 -0.74,-1.25 -1.86,-2.8 -3.35,1.61 -4.77,2.22 -9.77,1.66 -0.71,-6.99 0.26,-4.35 -3.49,-11.72 -1.46,-2.88 -0.95,-2.24 -4.1,-3.8 -1.86,-0.92 -3.29,-0.85 -5,-2.18 0.74,-3.48 2.46,-2.62 6.56,-2.26 8.19,0.71 -1.24,3.65 13.17,3.82 -1.33,-2.69 -3.72,-3.25 -6.67,-5.05 -2.01,-1.23 -1.06,-0.42 -1.77,-1.97 1.88,-1.51 3.32,-1.64 6.22,-1.42 0.11,0.13 0.24,0.31 0.3,0.4l1.11 1.49c1.08,1.23 0.95,0.79 1.64,1.37 2.3,1.97 0.6,1.82 2.58,2.99 0.83,0.52 6.27,2.4 7.64,2.36zm19.33 -11.43c0.39,-1.48 1.59,-2.52 3.59,-2.72l-0.34 4.19 -3.25 -1.47zm246.44 -0.7c1.01,1.82 0.74,0.87 0.77,3.41 -2.83,1.7 -0.73,0.2 -4.3,-1.28l-1.82 4.9c-1.3,0.17 -5.31,-0.12 -6.08,-2.28 -1.04,-2.89 2.54,-2.96 -10.68,-4.1 0.81,3.49 1.09,3.15 -1.71,4.92 -3.45,-1.09 -5.91,-3.12 -6.72,-6.6 -0.33,-1.44 -0.15,-1.68 -1.85,-1.9 -0.36,-0.05 -1.3,-0.04 -1.73,-0.04 -11.74,-0.08 -11.53,-1.84 -22.52,-1.28 -0.11,0.13 -0.18,0.34 -0.24,0.43 -0.05,0.09 -0.17,0.31 -0.24,0.42 -1.2,1.86 0.18,1.13 -1.98,1.69l-3.88 -0.37 -0.23 -0.97c-0.08,-3.59 2.83,-2.1 9.83,-4.02 4.62,-1.26 15.98,0.77 21.65,0.97 2.01,0.07 5.36,-0.12 7.25,0.14 1.69,0.24 0.95,0.25 2.88,0.92 1.13,0.39 1.64,0.38 2.9,0.74 4.58,1.32 -0.33,1.83 5.2,2.1l0.6 -1.78 3.83 -0.3c0.75,0.98 2.82,3.05 3.71,3.66 2.63,1.81 1,0.04 5.36,0.6zm5.75 -4.77c0.2,2.62 0.26,1.42 -0.51,3.56l-4.76 -2.4c-2.61,-1.37 -5.01,-2.45 -8.34,-2.48 3.62,-3.35 10.5,-1.34 13.6,1.32zm-231.85 19.37c1.22,-0.66 2.35,-0.8 3.82,-1.53l9.71 -6.63c4.17,-2.66 9.26,-5.2 13.97,-7.39 16.28,-7.57 7.39,-8.65 16.81,-15.31 2.19,-1.55 3.57,-3.7 5.44,-4.96 1.53,1.61 1.11,2.03 2.45,4.3 3.91,6.6 -0.92,5.33 -3.92,8.87 -4.76,-0.36 -4.46,-1.52 -6.83,-2 0.36,3.19 5.49,6.94 -0.67,11.52 -4.71,3.49 0.69,2.22 -6.68,5.44 -2.38,1.04 -4.15,1.71 -6.4,2.79 -4.29,2.06 -8.31,5.74 -11.09,7.62 -5.25,3.55 -16.83,9.14 -16.62,-2.72zm301.57 -23.62c-0.01,-2.56 -0.53,-0.98 1.98,-2.51 2.8,-1.7 4.01,-3.52 6.94,-5.93 3.31,-2.73 6.53,-4.99 10.01,-7.62 2.35,-1.78 3.42,-1.9 5.09,-4.01 0.36,-0.46 1.53,-1.95 1.83,-2.42 0.07,-0.11 0.16,-0.27 0.23,-0.39 0.07,-0.12 0.14,-0.29 0.21,-0.41 1.68,-3.16 0.78,-1.43 2.62,-2.8 1.64,-1.22 0.85,-1.04 1.73,-2.61 2.83,-5 1.48,-6.2 3.13,-6.8 1.45,4.34 1.71,14.59 2.81,19.86 0.36,1.73 0.61,4.18 0.28,5.92 -0.72,3.71 -1.26,0.62 -1.59,3.64 -0.23,2.1 0.44,0.02 0.1,2.31 -0.5,3.41 -1.62,-0.32 -0.5,6.12 -1.07,0.38 -2.64,0.65 -3.73,1 -10.02,3.22 -12.77,5.79 -22.15,10.81 -8.12,4.34 -6.31,4.21 -11.15,7.65 -8.36,5.94 -8.87,4.39 -12.87,2.75 -0.59,-9.85 6.05,-7.14 10.33,-9.57 3.91,-2.21 7.6,-4.4 11.83,-7.02l18.61 -10.45c4.84,-2.44 7.22,-2.73 4.8,-5.84 -1.79,-2.3 -4.54,-1.97 -7.08,-1.98 -8.57,-0.04 -10.91,1.84 -17.1,6.53 -2.99,2.27 -4.16,4.69 -6.35,3.77zm-244.61 -7.9c-0.48,-0.62 -3.77,-5.18 -3.78,-5.2 -0.88,-2.47 0.97,-4.38 2.91,-4.99 4.77,-1.52 7.28,7.59 7.19,9.78l-6.32 0.42zm-65.76 8.3c-0.23,3.34 2.97,8.37 1.17,10.25 -1.52,1.6 -7.6,2.13 -4.77,-4.18l3.47 -9.34c1.72,-2.15 9.92,-4.72 13.18,-5.51 4.65,-1.12 8.3,-4.45 12.14,-6.73 2.98,-1.78 4.44,-3.53 6.59,-6.22 1.92,-2.41 1.3,-0.78 3.69,-2.3 2.13,-1.36 0.91,-1.88 4.41,-2.12 -0.64,7.66 -5.42,4.31 -7.59,10.64l-3.59 -0.22 -0.15 5.37c-1.16,0.83 -2.38,0.78 -3.86,1.44 -1.24,7.83 0.92,4.55 -6.66,5.75 -0.32,0.05 -4.26,0.95 -4.71,1.18 -2.14,1.14 -1.3,1.87 -2.52,3.61 -1.9,0.65 -3.36,0.52 -4.29,1.37 -2.27,2.08 0.2,2.18 -2.31,2.89l-0.09 -6.03 -4.11 0.14zm83.03 -32.61c0.52,-1.96 1.58,-2.11 3.72,-2.69 3.65,-0.98 12.62,-3.37 15.2,-2.44 -0.81,2.72 -1.01,2.19 -4.06,3.2 -3.5,1.16 -11.8,3.58 -14.86,1.93zm145.05 -12.14c-1.07,0.4 -2.42,0.88 -2.95,1.7l-0.7 2.54 -5.66 0.12c-1.21,-2.15 -0.9,-2.63 -4.34,-2.19 -7.59,0.97 -10.69,1.83 -19.17,1.8l-1.13 -1.02c-2.32,-1.95 -1.51,-0.6 -2.89,-2.07 -0.75,-0.8 -1.87,-3.42 -2.07,-4.65 -0.89,-5.5 4.37,-4.19 9.12,-4.21 9.4,-0.04 15.63,0.41 24.37,1.83 7.57,1.23 6.92,-1.26 11.51,0.66 9.47,3.95 9.87,-3.26 20.98,4.54 4.84,3.4 3.23,3.45 1.96,8.22 1.62,2.7 1.7,2.2 4.7,3.91l11.45 5.57c0.91,0.46 2.04,0.96 2.72,1.53 1.66,1.42 1.23,2.96 1.63,2.03 0.04,-0.1 0.18,0.26 0.28,0.38 5.87,-0.03 5.29,-2.5 6.03,-7.37 10.38,-1.64 11.57,3.4 14.78,10.78 2.32,5.33 2.53,4.62 4.47,8.21 2.46,4.56 -1.02,2.16 3.97,8.38 -0.42,1.06 -0.25,1.13 -1.39,2.34 -0.49,0.52 -1.51,1.19 -2.13,1.44 -2.83,1.16 -1.88,0.07 -4.56,2.19 -3.92,3.1 -21.33,18.11 -25.84,12.86 -0.61,-1.52 -0.23,-1.25 -0.56,-2.5 -0.61,-2.31 -0.94,-1.99 -1.76,-3.32 -0.38,-0.61 -0.43,-0.87 -0.84,-1.58 -1.81,-3.09 -9.94,-15.38 -12.6,-16.69 -1.31,2.64 -2.47,8.41 -2.71,11.92 -0.33,4.86 2.42,10.03 -1.77,11.35 -3.66,-3.97 -2.65,-15.32 -9.49,-19.5 -3.1,-1.9 -4.66,-2.06 -5.92,-4.19 6.25,0.23 7.55,1.88 12.49,2.6l0.37 -4.37c5.09,-0.18 4.36,-0.87 7.51,-2.22 3.32,-1.42 4.43,-0.15 8.04,0.17 0.18,-4.21 -0.64,-3.05 -4.09,-9.09 -1.22,-2.13 -2.31,-2.27 -3.06,-3.71 -1.06,-2.04 -0.37,-3.01 -0.65,-5.51l-2.93 -1.88c-2.23,-1.15 -1.04,-0.79 -2.79,-2 -3.74,-2.57 -4.58,-2.24 -6.55,-3.24 -2.21,-1.11 -2.79,-3.31 -6.35,-3.62 -4.45,-0.39 -1.56,2.06 -8.46,1.34 -0.94,-1.31 -1.42,-2.57 -3.04,-3.52zm-125.89 5.71c0.8,-1.59 2.39,-2.88 4.1,-4.12 1.85,-1.33 2.61,-2.1 4.14,-3.17 3.27,-2.3 1.23,-0.99 3.58,-3.75 1.23,-1.44 2.05,-2.38 4.05,-3.1 -0.17,3.47 -0.02,1.35 -2.37,5.53l-3.58 4.12c-1.13,1.05 -1.26,1.33 -2.24,2.08 -4.87,3.69 -2.16,2.63 -4.56,3.05 -1.6,0.28 -2.35,-0.28 -3.12,-0.65zm-47.29 -22.7c1.49,1 0.9,0.05 1.7,2.25l-2.05 -0.07c-0.18,-2.33 -0.26,-1 0.35,-2.18zm54.89 -4.02c3.39,-0.39 5.4,1.72 9.05,-1.44l1.95 -1.96 0.85 2.51 -2.37 2.39c-1.53,2 -0.44,0.69 -2.12,2.12 -2.1,1.79 -1.14,1.72 -2.14,2.71 -0.71,0.69 -1.13,0.35 -2.56,1.71 -3.14,2.96 -2.86,5.15 -12.25,2.33 0.42,-2.98 0.78,-3.05 4.77,-5.52 4.38,-2.71 2.13,-1.21 4.84,-4.85zm-44.49 13.82c1.2,-0.95 2.22,-0.38 4.64,0.13 2.15,0.45 3.01,1.3 3.84,-0.92 0.25,-0.66 0.24,-2.21 -0.01,-2.9 -1.31,-3.53 -4.83,1.83 -5.54,-1.99 -0.53,-2.9 2.4,-1.32 4.28,-1.64 1.22,-0.21 1.56,0.49 2.35,-3.44 0.25,-1.26 0.6,-3.75 1.02,-5.01 0.42,-1.27 1.35,-2.07 2.12,-3.06l20.61 4.73c2.78,-0.16 3.78,-1.73 6.92,0.62l-1.35 1.29c-2.48,2.13 -2.06,1.42 -3.72,1.57 -11.31,1.08 -5.26,-2.65 -13.81,-3.34 -4.64,-0.37 -1.55,-0.35 -2.98,0.86 2.64,1.24 6.33,2.13 8.44,4.55l-1.03 2.75c-1.43,-0.03 -1.61,-0.25 -2.5,-0.67l-2.24 -1.47c-3.39,-2.19 -2.35,-0.94 -4.7,0.19 -1.96,-1.46 -1.95,-1.57 -5.19,-1.71 0.04,3.92 -0.66,4.31 -0.8,8.1 -0.07,1.82 0.32,7.36 -1.59,7.57 -1.63,0.18 -0.95,0.17 -2.85,-0.71 -2.39,-1.11 -8.25,-1.93 -5.91,-5.49zm197.27 -13.77c6.71,-4.28 2.99,-3.55 5.64,-5.11 1.5,-0.88 1.11,-0.25 2.36,-0.67 3.48,-1.15 0.96,-2.08 4.3,-3.28 0.4,0.65 0.4,0.29 0.57,1.51 0.55,3.92 -2.38,3.29 -2.4,3.3 -2.81,0.99 -6.21,6.87 -7.69,10.12l-1.41 2.09c-1.79,-2.31 -1.66,-4.98 -1.36,-7.96zm-148.89 -9.44c-1.96,1.12 -2.63,0.49 -3.68,-1.22 0.02,-0.01 -0.85,-1.57 2.27,-0.28 0.8,0.33 0.99,0.92 1.41,1.49zm171 19.37c-2.04,-2.76 -5.11,-4.44 -6.84,-9.04 0.6,-3.08 1.83,-1.82 1.12,-5.17 -0.96,-4.51 -4.59,-8.07 -1.04,-9.35 0.7,-0.25 5.23,-0.18 6.06,-0.02 3.28,0.62 2.88,5.94 3.42,9.4 1.06,6.72 0.95,7.03 3.88,8.65 -0.39,10.76 2.55,5.79 4.02,11.08 -1.2,1.05 -2.35,1.48 -3.77,2.65 -1.87,1.54 -2.27,3.46 -2.4,3.14 -0.04,-0.09 -0.18,0.25 -0.29,0.36 -2.51,-3.41 -2.21,-9.06 -4.17,-11.71zm-150.78 -15.88c-1.03,-1.93 0.19,-3.04 1.24,-4.01 2.57,-2.36 1,-1.55 2.45,-3.52l2.05 0.66c-0.38,2.33 -1.02,0.95 -2.98,3.13 -2.18,2.41 -0.03,2.49 -2.75,3.74zm-36.2 -9.3c2.72,-0.01 5.85,1.98 6.88,3.89 -3.02,-0.21 -6.65,-1.1 -6.88,-3.89zm-39.86 -0.3c3.87,-0.43 5.76,0.63 8.66,-0.59 3.52,-1.48 4.92,-1.78 5.75,2.23l-3.87 1.64c-0.56,0.28 -0.12,0.03 -0.75,0.44 -0.11,0.07 -0.26,0.17 -0.36,0.24 -2.55,1.81 -1.38,1.94 -2.64,4.43 -3.54,-0.22 -6.13,-5.22 -6.79,-8.39zm25.81 -2.4c-0.52,1.01 -0.22,1.95 -5.66,2.27l-1.82 -1.7c-1.24,-0.85 -3.22,-3.41 -3.51,-5.25 4.08,0.17 2.14,1.54 5.02,2.6 3.64,1.34 4.7,-1.62 5.96,2.08zm-48.68 -9.72c-0.02,-0.43 -1.6,-2.57 3.51,-2.64 5.22,-0.06 4.25,1.82 4.36,2.1 -1.68,0.51 -6.27,1.43 -7.87,0.54zm206.93 1.41c-6.6,-3.71 -6.7,-4.54 -13.7,-5.93l-13.76 -5.49c-0.03,-0.14 -0.02,-0.35 -0.03,-0.43l-0.11 -1.19c-0.14,-0.57 0.21,-0.9 -2.56,-2.42 -2.4,-1.32 -3.59,-0.97 -3.54,-3.99 5.83,-0.76 5.49,2.05 9.65,2.58 2.61,0.33 3.49,-0.03 6.14,0.62 8.79,2.13 14.43,5.76 22.37,9.29 8.72,3.88 16.58,8.64 22.11,16.22 5.53,7.58 6.15,0.65 7.22,5.73 -1.09,0.64 -2.45,-0.47 -2.64,-0.53 -2.01,2.3 -6.02,3.22 -10.02,3.23 -1.25,-2.42 -3.74,-4.71 -5.75,-6.31 -6.04,-4.8 0.62,-2.39 -15.37,-11.38zm-137.32 -18.97c0.33,-4.16 4.95,-6.04 7.89,-3.7 -0.87,3.11 -3.7,3.77 -7.89,3.7zm132.15 36.26c-6.54,-6.57 1.58,-8.38 -11.71,-8.43l-1.87 -4.81c-1.62,0.16 -3.46,0.59 -4.94,0.75 -3.39,0.37 -2.75,-0.11 -3.3,-0.26l-0.94 -0.47c-1.48,-2.55 0.79,-2.51 -1.29,-5.89 -3.53,-5.75 -7.67,-1.14 -6.5,2.67 0.69,2.24 2.03,1.24 0.63,5.03 -2.18,0.01 -2.39,-1.48 -3.77,-4.07 -4.21,-0.31 -3.62,-1.04 -4.63,-1.35 -0.85,2.5 -0.71,0.57 -2.08,5.29 -0.33,1.13 -0.64,1.7 -1.05,2.6 -0.25,0.54 -0.05,-0.08 -0.55,1.28 -0.96,2.63 -2.15,8.46 -6.69,8.35 -1.2,-7.16 2.76,-2.09 0.09,-20.1 -0.35,-2.37 0.32,-3.39 0.31,-4.83 -0.03,-5.67 -5.68,-2.47 -3.94,-10.85 1.71,-1.09 1.41,-0.3 2.42,-1.68 1.57,-2.15 3.82,-6 3.41,-9.2 -3.65,-0.28 -0.71,0.12 -3.8,1.07 -1.89,0.58 -2.5,0.3 -3.6,-0.52 2.59,-3.1 15.84,-2.33 20.84,-2.34 3.96,-0.01 6.86,-0.47 10.95,-0.41 5.44,0.08 4.65,0.93 8.87,1.91 -1.33,1.9 -2.26,1.95 -2.79,3.85 1.15,0.37 2.94,0.55 4.18,1.27 3.83,2.24 -1.81,2.49 11.43,3.31 -0.37,1.82 0.24,0.3 -2.87,3.48 -3.23,-0.06 -4.3,-0.88 -6.99,-1.63 -4.35,-1.22 -2.03,0.19 -5.76,0.41 -2.46,0.15 -7.89,-2.69 -13.6,-3.29 -1.12,3.62 -1.71,-0.84 -1.68,3.17 0.02,3.3 0.09,0.67 1.74,2.58 2.35,2.71 0.21,1.96 4.23,4.27 0.61,3.94 -0.23,7.24 5.06,5.34 5.41,-1.94 4.28,0.36 7.37,2.31 2.59,1.62 4.72,-0.45 9.05,1.89 1.03,0.56 2.56,1.46 3.4,2.03 1.48,1 1.92,1.56 3.08,2.4 7.21,5.15 6.9,3.65 10.32,6.12l5.83 5.1c4.17,5.01 6.73,5.88 6.41,9.9 -5.2,3.56 -13.02,2.06 -18.2,-1.17l-7.07 -5.05zm-172.67 -57.6c0.4,-2.61 2.19,-5.18 5.09,-5.72l-0.46 4.41c-1.54,1.17 -2.35,1.42 -4.63,1.31zm-8.25 -16.59c-2.34,-1.2 -1.62,-0.54 -2.09,-1.63 0.19,-0.12 0.49,-1.65 4.11,0.61 0.02,3.66 0.13,5.67 -1.56,8.08 -2.06,2.92 -10.84,15.68 -11.37,18.05 1.1,0.8 -0.19,0.03 1.49,0.72 0.24,0.1 1.32,0.46 1.37,0.47 1.08,0.34 0.54,0.81 2.59,0.33 1.73,-0.41 2.49,-1.93 3.64,-2.99 3.35,-3.08 5.27,-5.62 7.59,-5.71 1.07,2.5 -0.55,3.15 -2.13,4.4 -1.56,1.23 -2.47,2.04 -2.95,4.8 1.34,0.04 3.13,-0.05 4.38,0.15 3.21,0.53 -0.45,0.59 2.58,0.57 6.6,-0.04 12.01,-4.66 16.03,-6.09 6.52,-2.32 19.41,-2.55 25.73,-0.16 -3.14,3.29 -17.35,0.57 -22.75,4.34l-11.21 5.87c-1.02,0.21 -1.58,0.11 -2.68,0.41 -2.75,0.74 -3.12,1.81 -8.16,0.08 -3.63,-1.24 -2,-0.29 -5,-0.26 -2.66,0.02 -1.62,-1.61 -5.28,-0.92 -3.12,0.59 -0.1,1.16 -4.92,1.04 -5.08,-0.13 -7.86,0.51 -12.18,0.74 -1.95,0.1 -4.03,-0.07 -6.1,-0.01 -4.45,0.13 -6.11,0.52 -5.94,-2.29 0.12,-2.05 2.05,-2.14 3.76,-2.85 4.62,-1.94 1.52,-1.4 6.48,-0.72 6.9,0.95 8.7,-2.54 11.54,-5.57 4.06,-4.33 11.45,-15.03 13.5,-21.29 -0.14,-0.09 -0.37,-0.14 -0.47,-0.2zm-4.26 -2.65c0.41,-3.29 2.76,-8.32 5.64,-9.67 -0.26,3.98 -1.93,8.61 -5.64,9.67zm82.68 -20.58c0.76,1.92 0.46,-0.76 0.53,1.9 0.09,3.74 -1.8,14.03 -2.41,18.07 -2.52,16.66 -2.94,21.81 -22.36,17.75 -16.92,-3.54 -27.04,2.11 -38.91,1.75 0.66,-4.31 1.65,-2.75 4.33,-5.24 1.94,-1.8 1.62,-2.2 4.49,-3.96 -0.15,-1.44 -0.72,-2.75 -0.08,-4.01 1.15,0.78 0.57,0.14 1.61,1.61 0.33,0.46 0.3,0.72 0.82,1.45 5.44,0.56 18.52,0.04 20.33,-7.72 -3.4,-2.62 -5.45,-1.63 -10.05,-1.74 -8.27,-0.19 -0.58,-2.65 -5.07,-3.97 5.39,-1.7 1.2,-2.42 11.73,-4 8.31,-1.24 -0.13,2.3 11.71,-2.35l-0.06 -5.57c-3.73,-2.61 -5.85,-1.67 -8.5,-4.32 -0.91,-0.91 -0.07,0.16 -0.87,-1.14 1.03,-3.05 3.41,-3.16 5.94,-5.21l7.79 -5.54c7.38,-5.2 3.99,-1.96 8.5,-0.28 4.26,1.58 -0.09,-1.05 4.69,3.17 1.96,1.74 4.98,7.15 5.84,9.34zm-8.78 73.26c2.74,-4.49 3.94,-1.58 -0.82,-8.37 -3.55,-5.07 -2.46,-3.69 0.41,-8.97 2.41,-4.43 8,-13.27 9.34,-17.94 2.51,-8.69 5.33,-11.47 6.29,-21.72 1.75,-18.65 -4.03,-14.73 -4.03,-21.76 2.41,-0.19 4.71,1.91 6.89,3.53 2.1,1.56 3.91,4.33 6.68,2.92 -0.01,-3.82 -3.1,-3.66 -5.34,-6.12 -1.81,-1.99 -6.62,-7.65 -11.59,-7.41 -1.21,-3.27 0.33,-1.9 -3.59,-3.59 -3.25,-1.41 -1.27,-1.45 -4.59,-2.66l-11.86 -2.28c-5.13,-1.02 -5.98,-2.82 -12.56,-1.59 -3.52,0.66 -7.68,2.3 -10.79,3.29 -5.8,1.86 -5.57,2.49 -10.18,4.46 -2.32,0.99 -4.16,1.56 -5.93,3.2l-0.9 0.88c-1.31,1.02 -0.3,0.29 -1.96,1.05 -2.09,0.96 -2.65,1.53 -4.58,2.66l-6.12 4.91c-5.98,5.23 -11.38,9.4 -16.89,15.34 -5.61,6.05 -10.79,12.83 -15.18,20.04 -3.21,5.26 -4.4,15.15 -10.28,18.22 -3.32,1.73 -5.62,3.7 -8.23,5.82l-8.58 5.48 -0.58 3.53c-3.23,0.58 -5.41,1.41 -6.58,4.65 5.57,2.62 2.58,1.48 8.73,1.02 1.96,-0.15 3.99,0.04 5.41,-0.61 3.41,-1.56 2.96,-5.18 11.6,-5.16 4.87,0.01 5.66,1.6 9.61,1.86 1.49,4.58 3.55,7.31 4.32,12.12 0.8,5 -2.01,9.74 1.84,12.68 -0.18,-3.98 -0.28,-7.14 2.61,-8.53 5.18,-2.66 9.24,1.1 12.27,-0.23 3.95,-1.74 0.9,-2.57 4.99,-3.62 0.85,-0.22 2.63,-0.3 3.47,-0.78 1.04,-0.59 0.95,-1.15 1.6,-2.01l2.43 1.37c2.08,-0.92 1.08,-1.01 3.26,-1.8l3.42 -1.12c0.96,1.68 0.34,3.26 6.39,1.25 6.38,-2.12 3.48,-3.15 10.19,-6.34 7.74,-3.68 9.14,-4.47 18.28,-6.04 3.4,-0.58 7.34,-1.7 10.74,-1.65 5.05,0.07 4.13,4.03 -0.26,5.59 -3.63,1.29 -4.71,-0.02 -7.75,-0.52 -2.39,-0.39 -12.13,2.06 -13.79,3.33l5.86 1.01c-1.92,1 -4.33,0.89 -6.7,1.67 -2.1,0.69 -4.28,1.53 -6.27,2.24 -3.99,1.41 -4.88,3.76 -8.75,4.34 -5.34,0.79 -11.02,2.36 -15.77,4.61l-7.34 1.21c-4.12,0.5 -3.73,-0.22 -5.23,2.95 0.71,1.84 1.39,1.34 2.89,2.26 0.3,4.15 0.71,2.89 1.89,5.37 0.45,0.94 1.27,3.85 1.39,4.86l-4.57 -4.64 -3.46 -8.64c-0.92,-1.65 -0.45,0.04 -1.12,-1.94 -2.65,0.02 -3.74,-0.22 -6.32,0.59l-0.38 4.28 -3.45 2.11c1.11,2.69 2.72,2.78 4.25,4.37 3.94,4.09 5.49,0.72 7.87,4.82 3.1,5.32 4.87,3.14 1.78,8.44l6.92 6.63c3.45,3.57 9.08,-0.67 10.63,28.38 2.82,0.93 2.6,-0.3 3.17,2.05 -7.15,3.65 -6.41,-20.12 -12.04,-24.9 -3.13,0.98 -3.06,2.92 -6.44,4.45 -2.17,0.98 -1.59,0.46 -3.37,2.15l-2.74 2.73c-2.49,2.17 -1.63,-0.07 -2.79,2.49 -1,2.19 0.23,1.4 -2.02,3.64 -2.19,2.18 -3.8,2.45 -4.53,6.21 -5.02,0.73 -7.01,3.4 -10.25,6.34 -1.69,1.53 -2.06,2.4 -4.02,3.88 -7.03,5.29 -9.28,5.11 -17.94,6.21 -3.89,0.49 -7.8,3.93 -8.27,7.72l-2.97 0.7c-1.39,4.2 2.31,4.66 -4.54,5.7 0.01,-3.54 -1.47,-3.76 -1.95,-6.8l4.15 -1.06c-0.42,-1.41 1.1,-0.48 -1.3,-1.52 -2.02,-0.87 -4.8,0.27 -6.47,1.41 -1.5,1.02 -4.01,5 -4.88,6.79 1.43,1.33 1.63,1.2 3.35,2.13 -0.98,1.98 -0.07,0.43 -1.49,1.4l-0.98 0.5c-0.09,-0.14 -0.37,0.12 -0.52,0.23 0.78,2.98 1.46,7.69 3.32,9.18 1.65,1.32 5.64,3.6 5.98,5.8 -1.04,-0.33 -0.48,-0.12 -1.28,-0.82l-0.98 -1.09c-2.12,1.17 -0.54,0.85 -3.33,1.13 -0.82,-0.95 -2.34,-2.39 -3.49,-2.67l0.07 -4.89c-2.38,-1.49 -2.16,-0.56 -3.59,-3.7 -1.04,-2.29 -2.18,-2.36 -3.69,-3.56l1.64 -0.96c1.32,-0.8 3.36,-2.24 3.75,-3.69 -5.55,-1.02 -4.86,0.65 -8.11,2.43 -2.4,1.31 -1.11,-0.44 -3.51,2.01 -1.34,1.37 -0.2,1.16 -3.05,1.79 -3.48,0.76 -6.61,0.61 -9.97,1.2 -4.63,0.82 -4.31,1.35 -5.61,4.2 -2.39,-0.02 -9.72,2.01 -12.22,2.63 -9.22,2.28 -8.02,0.65 -10.27,4.13 -3.24,0.32 -3.33,0.93 -5.83,1.75 -5.89,1.93 -14.46,-0.35 -20.29,0.5 -1.97,2.81 1.42,2.11 -2.63,3.21 -5.54,1.51 -5.65,0.51 -13.99,3.62 -0.61,5.17 -4.22,11.52 -3.59,16.02 0.3,2.12 2.32,15.2 4.82,14.78l1.11 -0.42c2.14,3.65 4.23,3.19 7.07,5.71 2.45,2.17 2.75,3.04 3.67,5.84 0.68,2.07 0.41,-1 0.8,2.39 5.13,-1.89 3.49,0.15 7.01,0.3 2.46,-2.17 0.76,-3.14 5.28,-4.31 13.39,-3.47 8.03,1.88 14.17,2.09 3.27,0.11 2.71,-1.47 6.64,-1.89l-1.87 2.93c0.89,1.45 0.74,1.56 1.18,3.21 3.45,-0.47 0.55,-0.6 4.39,-1.47 4.47,-1.01 0.29,0.17 3.59,-1.76l0.15 3.62c5.4,2.71 3.33,8.5 14.17,4.64 2.17,-0.77 5.33,-1.48 6.97,-3.36l3.77 -5.34c0.05,-0.09 0.21,-0.18 0.24,-0.41 0.04,-0.23 0.15,-0.28 0.25,-0.41 3.29,1.67 7.66,1.03 7.86,-3.58 -3.31,-2.04 -6.31,0.57 -6.86,-3.85 3.35,-0.98 7.03,-0.36 10.85,-0.83 3.92,-0.48 5.05,-1.33 8.64,-2.34l0.42 -4.25c2.89,-1.66 4.97,-5.08 10.13,-2.69 2.36,1.09 5.54,3.91 8.32,4.85 7.83,2.66 18.5,1.24 24.44,3.11 -0.58,1.48 0.06,0.07 -0.77,0.99 -0.08,0.08 -0.22,0.2 -0.3,0.29 -2.29,2.5 -4.76,9.59 -5.57,12.65 -2.61,-0.85 -1.65,-1.02 -3.66,-0.11 -1.83,0.83 -2.59,0.68 -4.9,0.75l-0.77 -1.08c-1.94,-1.87 -7.04,-2.25 -9.53,-2.27 -9.6,-0.07 -5.54,1.14 -9.97,3.57 0,2.27 -0.42,4.43 -0.42,5.9 -0.01,2.91 0.7,1.72 1.86,4.16 -0.67,3.08 -2.4,6.28 -3.39,9.24l-9.78 27.99c-1.4,3.58 -2.8,4.91 -3.41,9.17 -0.7,4.92 -0.66,6.43 -1.95,10.93 -1.69,5.91 -1.58,9.63 -6.47,12.41 -2.52,1.43 -1.3,0.6 -2.47,3.63 -1.29,3.32 -3.48,5.65 -3.51,9.16l-0.22 1.9c-1,3.06 0.19,5.11 -1.32,8.21l-13.62 36.22c-2.53,6.22 -4.71,12.61 -6.57,18.47 -1.38,-0.16 -4.22,-1 -5.08,-1.44l-1.99 -1.06c-1.32,-0.57 -0.46,0.03 -1.71,-0.75l-1.4 -1.1c-4.53,-2.78 -1.75,1.05 -10.42,-2.74 -5.87,-2.56 -8.33,-2.01 -13.48,-3.07 -2.31,-0.47 -0.74,-1.2 -4.34,-1.42l-16.39 0.04c-6.38,0.57 -13.29,0.88 -19.46,2.29 -14.51,3.32 -8.6,1.92 -12.1,4.82 -1.6,1.32 -2,0.42 -3.76,0.47 -2.74,0.07 -12.57,5.82 -14.83,7.08l-13.55 8.9c-2.31,1.58 -3.68,3.47 -6.11,4.8 -2.78,1.53 -4.04,3.5 -4.18,6.78l-7.29 4.84c-0.07,0.13 -0.1,0.31 -0.17,0.44 -1.04,2.12 1.05,0 -1.62,2.11 -6.1,4.81 -3.29,3.21 -5.73,10.1l-4.69 0.13 -1.56 4.46c-0.42,0.91 -0.88,3.94 -1.02,5.03l-4.48 0.42c-0.86,2.49 -1.55,6.53 -1.9,9.02l-3.17 0.49c-0.53,1.09 -0.57,1.7 -1.41,2.81 -3.13,4.13 -0.45,1.29 -0.45,6.13 -2.9,2.25 -3.23,0.74 -5.98,2.02 -0.79,4.52 0.62,5.7 0.95,8.92 -2.47,1.66 -3.35,1.45 -4.44,3.96 -1.48,3.41 0.46,4.96 -1.22,8.19 -1.56,1.89 -1.39,0.53 -3.1,2.74 -4.31,5.54 4.44,7.07 -3.74,10.01l-2.21 7.92c1.68,1.67 2.52,1.92 2.47,4.43l-4.55 0.63c-1,4.55 1.67,9.61 -0.61,12.81 -0.85,1.19 -1.26,0.07 -2.4,-0.17 -2.29,11.81 -0.17,4.39 0.08,11.48 -0.12,0.12 -0.29,0.26 -0.38,0.34l-1.79 1.49c-0.58,0.46 -1,0.77 -1.51,1.2 -0.06,3.95 -0.6,4.14 0.85,7.46 1.46,3.36 0.14,4.06 -0.99,5.44 -4.76,5.85 1.88,7.04 1,12.59l-3.5 0.7 -0.44 7.23 4.25 3.65 -6.06 4.42c0.28,1.39 0.65,1.52 1.07,2.96 1.72,5.84 2.55,2.28 4.7,5.99 -1.25,3.14 -2.38,2.1 -5.15,3.65 -0.87,9.24 3.91,7.15 3.65,10.93 -0.27,3.89 -3.54,-0.37 -2.42,11.34l4.51 1.43c-0.57,2.12 0.52,0.38 -1.66,1.91 -0.81,0.57 -1.08,0.66 -2.23,1.46l0.3 7.73c1.03,0.56 1.94,0.22 3.34,0.14 1,7.28 -1.93,7.11 -1.34,13.47l5.28 1.41c-0.2,2.28 -1.9,3.4 -3.21,4.86l0.74 7.34 3.86 1.09c-0.18,5.46 -1.45,2.21 -0.08,11.02 1.57,0.25 2.74,0.69 4.08,1.21 0.23,4.49 -3.36,1.75 -0.52,7.89 1.88,4.06 2.51,3.7 2.43,8.51 -0.14,8.68 3.85,8.68 4.85,11.42 1.85,5.08 0.23,3.37 4.38,11.62 0.89,1.77 1.13,1.58 1.89,3.51 1.83,4.6 1.1,3.47 3.81,7.13l5.49 10.39c4.34,7.35 8.62,12.85 13.46,19.32 5.32,7.11 18.43,21.12 26.2,26.69l19.84 12.92c1.93,1.23 4.89,1.95 7.19,3.2 4.97,2.71 10.44,3.74 15.94,5.38 18.21,5.42 39.24,4.45 57.33,0.69l8.2 -2.59c2.97,-0.96 4.91,-1.41 7.64,-2.77 3.79,-1.89 11.33,-4.63 12.8,-8.1 0.93,-0.04 2.25,0.03 3.05,-0.16l10.78 -7.06c3.81,-3.36 13.23,-12.55 15.78,-16.5l10.26 -12.74c0.81,-0.89 1.43,-1.63 2.26,-2.58 2.29,-2.6 3.65,-6.54 5.6,-9.6l6.71 -8.47 10.09 -19.83c1.11,-5.31 1.89,-3.85 2.9,-7.47l1.59 -8.31c3.28,-1.03 3.36,-0.33 2.79,-7.44l-3.05 -1.68c1.3,-2.98 0.58,0.94 1.43,-2.7 3.91,-0.63 3.29,1.75 4.47,-3.04 1.18,-4.78 0.02,-2.94 -0.88,-5.8 7.62,-9.16 1.14,-11.6 0.33,-13.98 3.22,-3.21 5.92,1.45 5.8,-5.4 -0.11,-6.47 -2.97,-3.45 -3.07,-7.97 1.24,-0.67 1.43,-0.25 2.78,0.03 0.86,-3.72 3.92,-2.7 3.19,-7.35 -0.52,-3.31 0.05,-0.54 -1.5,-2.29 -1.36,-1.54 -1.45,-3.59 -0.23,-5.33 1.11,-1.58 2.27,-0.67 1.79,-5.76 -0.5,-5.22 -1.74,-0.43 -2.32,-5.78 3.11,-1.44 5.64,-2.23 3.69,-6.64 -1.43,-3.23 -3.98,-1.82 -3.88,-6.38l4.55 -1.29 0.06 -6.6c-3.77,-2.65 -3.73,-5.31 0.4,-7.5 -0.08,-4.36 -0.94,-6.76 -4.33,-8.9 0.22,-2.93 1.67,-3.67 3.32,-5.47 0.9,-5.77 -2.77,-5.97 -3.94,-10.41l2.43 -0.88c-0.38,-3.75 -0.23,-2.98 0,-7.05l-3.46 -1.72c0.07,-2.43 1.6,-2.48 3.22,-3.65 -0.19,-5.87 -5.95,-11.09 -6,-12.15 0.73,-3.46 3.85,-3.12 1.81,-7.77 -0.74,-1.53 -2.29,-2.54 -4.82,-2.68 2.17,-3.82 4.18,0.38 2.21,-10.68l-3.63 -0.69c-0.04,-2.68 0.25,-0.9 -0.73,-3.09l1.73 -2.09c0.36,-1.25 -2.11,-6.72 -2.62,-7.63 -1.25,0.32 -0.78,0.27 -1.72,0.76 -0.57,0.29 -0.86,0.55 -1.38,0.79 -0.66,-0.84 -1.39,-2.26 -1.79,-3.38 4.57,-7.5 1.3,-7.88 -1.68,-9.12 0.01,-3.11 2.26,-7.33 -0.73,-9.83 -1.58,-1.32 -4.19,-2.13 -6.23,-2.29 1.32,-3.47 -1.76,2.32 0.57,-0.76l3.22 -3.52c-0.68,-2.69 -2.09,-5.08 -4.5,-5.97 -3.94,-1.45 -2.36,-1.48 -0.84,-5.57 -0.96,-2.1 -1.67,-1.59 -1.92,-3.73 -0.36,-3.1 0.41,-2.15 1.26,-3.5l3.4 -6.77c6.04,-10.59 0.51,-10.41 -0.05,-15.18 -0.3,-2.6 8.85,-25.84 10.5,-29.75 1.1,-2.63 2.31,-4.4 3.35,-7 0.91,-2.28 1.86,-5.46 2.7,-7.68 2.89,-7.6 4.84,-15.05 7.98,-22.42l5.8 -14.18c0.91,-2.2 1.59,-5.63 2.39,-7.37 2.61,0.83 6.28,8.04 8.28,11.1 1.13,1.73 2.54,3.95 3.66,6.04 1.14,2.12 1.99,4.28 3.34,6.43 3.54,5.64 7.12,13.15 10.22,19.55l23.08 46.11c6.35,13.02 21.21,40 26.53,52.53 1.03,2.42 2.31,3.86 3.45,6.28 5.37,11.42 11.95,20.75 15.4,33.8 1.05,3.99 -3.09,9.97 0.33,16.63 4.15,8.08 5.98,5.08 12.49,5.82 -0.13,1.58 -0.53,1.16 -0.99,3.37 1.27,0.31 2.4,0.52 3.67,1.25 2.15,1.24 1.12,0.19 1.98,2.84 -7.11,4.66 -6.4,0.05 -13.34,15.79 -2,4.53 -2.99,19.48 -2.93,25.55 0.12,11.9 4.17,23.18 11.33,31.68 2.68,3.19 3.37,5.29 7.55,6.43 0.38,3.05 -0.2,1.73 1.82,3.07 0.88,0.58 1.98,1.08 2.74,1.52 1.81,1.04 3.14,1.74 5.59,2.94 3.96,1.93 7.47,3.41 12.57,4.43 12.43,2.47 18.18,2.85 31.39,0.94l0.7 -10.71c3.16,0.19 22.14,11.62 25.13,13.17 -3.3,8.13 1.43,8.08 2.23,8.51 0.53,5.17 -1.89,5.25 -0.48,10.61l4.36 0.93c0.08,2.58 -0.88,5.38 -0.74,9.36 1.84,0.98 1.1,0.83 3.42,1.57 1.21,6.81 -0.98,7.16 4.81,12.48l0.03 6.34c1.62,1.05 2.91,2 4.6,3.13 -0.32,8.15 -0.66,7.3 6.5,10.86 -0.27,7.88 -0.5,7.37 4.29,10.56 0.55,6.94 -0.01,6.45 6.69,7.34 0.64,11.62 1.47,6.8 5.66,10.15 1.38,1.1 0.52,1.13 1.28,2.82 1.2,2.69 -0.44,0.54 1.87,2.03 6.94,4.48 2.82,6.31 7.14,8.63 2.45,1.32 1.08,-0.07 2.51,1.69 3.63,4.48 6.25,5.99 9.65,9.76 3.77,4.18 4.22,4.22 8.64,7.27 1.76,1.22 1.67,2.21 4.14,3.67 1.97,1.17 3.19,1.66 4.87,3.04 2.87,2.37 2.66,1.12 5.25,2.62 1.9,1.09 -0.42,0.45 2.34,1.83 4.27,2.14 10.41,3.87 15.61,4.41 1.06,2.5 -0.69,0.82 1.69,2l9.19 2.03c9.54,1.64 18.9,2.12 28.64,1.68 7.19,-0.33 12.53,-2.21 19.37,-3.56l15.99 -6.64c9.39,-3.58 4.95,-3.58 9.93,-5.22 6.71,-2.21 8.68,-5.04 13.64,-8.92 4.24,-3.31 7.68,-7.42 11.79,-10.72 1.88,-1.51 7.53,-8.36 8.62,-10.89l6.89 -11.93c3.26,-3.86 3.21,-5.66 6,-9.19 6.71,-8.52 6.12,-21.13 7.5,-29.58 2.59,-0.89 1.38,1.39 2.79,-0.93 2.22,-3.67 -3.42,-6.41 -1.05,-9.83 1.68,0.74 0.34,-0.26 1.12,1.58l0.5 1.39c0.03,-0.09 0.11,0.32 0.2,0.45 2.85,-1.91 5.38,-8.77 3.15,-11.79l-1.79 -0.69c-1.52,-0.76 -0.5,0.6 -1.11,-0.9 1.97,-0.81 2.82,0.58 3.8,-1.98 0.51,-1.34 0.26,-3.61 0.92,-5.43 -1.41,-0.96 -2.12,-1.32 -2.53,-3.79l4.12 -1.12 0.78 -3.48c-1.65,-1.6 -2.98,-2.4 -4.73,-3.65l0.28 -3.21 4.16 -0.78c0.12,-7.45 -0.86,-4.78 -4.36,-7.55l4.84 -3.04c0.09,-3.48 -0.45,-3.92 -0.66,-6.68 -0.15,-0.09 -0.36,-0.17 -0.47,-0.22l-1.81 -0.8c-1.98,-1.14 -0.66,-0.12 -1.41,-1.41 1.16,-0.82 2.5,-1.54 3.62,-2.32 -0.02,-3.04 -0.64,-4.31 -2.62,-6.11 -1.24,-1.12 -0.93,-0.17 -1.96,-2.17 0.18,-0.43 1.01,-1.95 1.27,-2.32 1.37,-1.89 -1.49,1.92 0.84,-1.02 1.91,-2.41 0.15,-6.97 -0.11,-9.4 -0.17,-1.64 0.49,-4.9 0.33,-7.82l-4.11 -1.46c0.19,-3.21 0.92,-3.13 3.5,-4.12 0.23,-5.45 0.72,-5.88 -4.33,-6.58l-0.55 -3.86c4.49,-1.77 5.83,-0.17 3.99,-6.32 -2.48,-0.99 -5.31,-0.81 -6.28,-3.62 1.51,-1.78 0.04,-0.18 1.85,-1.27l1.29 -0.82c0.08,-0.24 0.3,-0.21 0.44,-0.33l-2.19 -5.47c0.54,-2.63 2.45,-3.95 0.75,-7.41 -0.81,-1.65 -0.88,-0.53 -1.54,-2.56 -0.41,-1.27 -0.35,-2.05 -0.87,-3.5 -3.75,-0.13 -2.34,-0.12 -4.65,0.91 -0.33,-1.35 -0.61,-1.85 -1.02,-2.63 1.59,-1.95 2.34,-0.4 2.73,-4.26 0.17,-1.74 -0.25,-4.34 -0.89,-5.38 -2.5,-2.48 -3.56,1.8 -6.54,0.53 1.67,-1.82 2.95,-0.88 3.68,-3.71 0.64,-2.5 -0.14,-5.53 -2.23,-6.2l-0.92 -0.28c-1.76,-0.56 -3.79,-0.87 -4.64,-2.57 1.47,-3 4.82,-0.39 2.16,-7.18 -1.3,-3.33 -4.79,-6.35 -6.69,-11.01 -3.27,-8.01 -9.1,-3.53 -8.06,-14.79 -2.91,-0.97 -4.1,-2.92 -5.53,-5.67 -0.24,-0.47 -1.9,-3.06 -2.11,-3.31 -1.66,-2.02 -0.56,-0.72 -3.11,-1.79 -0.2,-2.47 0.07,-3.36 -0.94,-5.05l-5.82 -6c-2.55,-1.59 -0.73,0.77 -2.09,-3.12 -5.26,-1.84 -2.77,0.24 -4.83,-3.13l-1.22 -1.83c-1.12,-2.06 0.42,-1.04 -1.84,-2.44 -1.87,-1.16 -0.95,-0.1 -2.6,-1.64l-8.04 -7.16c-4.7,-4.74 -9.49,-7.09 -15.23,-10.25 -6.34,-3.49 -14.66,-5.73 -21.81,-8.65 -15.93,-6.51 -34.77,-7.8 -51.83,-4.86 -2.75,0.47 -4.03,0.8 -6.26,1.53 -3.78,1.23 -7.65,1.61 -11.5,3.08 -1.98,0.76 -2.76,1.71 -4.51,2.71 -8.97,5.09 -22.38,13 -28.39,20.8l-1.04 1.41c-0.09,0.1 -0.22,0.22 -0.31,0.32l-1.28 1.17c-1.36,1.52 -1.03,2.05 -3.02,2.52 -0.47,-0.76 -0.33,0 -0.43,-1.25l3.89 -14.08c5.13,-14.15 9.22,-38.96 5.78,-53.59 -0.99,-4.23 0.08,-8.82 0,-13.18 -0.08,-4.4 -0.22,-8.95 -0.35,-13.37l1.51 -1.73c2.85,-3.59 3.28,-7.86 9.02,-8.32 7.41,-0.59 7.23,-5.33 14.51,-6.44 5.09,-0.77 11.21,-3.12 15.64,-4.91 2.68,-1.09 5.04,-1.6 8.09,-2.35 9.61,-2.36 5.95,-1.81 11.11,-4.64l10.58 -4.68c5.12,-2.18 9.49,-3.89 13.6,-7.02 1.37,-1.05 4.93,-3.1 6.57,-3.83l12.8 -9.13c0.07,-0.13 0.14,-0.29 0.21,-0.43 0.09,-0.17 0.3,-0.7 0.37,-0.87 0.06,-0.13 0.12,-0.3 0.18,-0.42 0.06,-0.12 0.12,-0.29 0.18,-0.41 1.21,-2.25 0.9,-1.2 3.65,-2.25 0.61,-5.59 1.51,-2.2 4.07,-6.18 1.38,-2.15 0.12,-0.4 1.38,-1.77 2.88,-3.12 3.12,-7.98 6,-11.65 1.93,-2.46 3.94,-2.29 6.33,-3.44 1.1,-3.57 0.71,-24.51 -0.67,-28.09 -0.98,-2.54 -3.84,-7.37 -3.98,-10.51 -0.22,-4.96 0.55,-8.64 -0.01,-14.15 -1.31,-0.92 -2.5,-1.61 -3.78,-2.77 -2.6,-2.33 -2.68,-2.9 -4.04,-6.26 -0.02,-0.06 -0.91,-1.91 -1,-2.08 -0.78,-1.52 -1.64,-2.67 -2.55,-4.18 -7.44,-12.36 -3.02,-5.68 -9.71,-13.95 -1.23,-1.52 -0.33,-0.03 -1.28,-1.62 -0.57,-2.27 4.96,-16.93 0.12,-18.23 -1.86,-0.5 -1.84,-1.12 -3.3,-2.44l-2.41 -2.37c-2.15,-2.32 -2.82,0.66 -3.23,-3.51 -1.61,0.51 -0.15,0.54 -1.68,0.39 -2.25,-0.22 -0.26,-0.39 -3,-1.29 -0.03,-0.01 -1.29,-0.22 -1.5,-0.26 -0.96,-2.79 -0.52,-1.33 -1.58,-2.61 -2.06,-2.48 -2.98,-4.78 -3.47,-8.61 -4.03,-1.12 -1.75,-2.83 -6.56,-4.47l-0.63 -2.44c-0.74,-2.03 0.17,-2.14 0.56,-5.16 0.23,-1.73 -0.07,-3.08 0.23,-4.74 0.48,-2.67 0.71,0.28 1.04,-3.77 0.27,-3.32 -0.87,-6 -0.88,-9.75 -0.03,-9.7 -3.79,-17.46 -3.45,-26.07 0.28,-7.03 1.45,-11.17 -2.44,-16.65 -2.8,-3.95 -6.4,-6.82 -9.66,-10.35 -2.04,-2.22 -3.21,-2.52 -5.34,-4.98l-2.47 -2.45c-1.29,-1.49 0.13,-0.93 -2.48,-2.32 -6.88,-3.66 -5,-4.48 -9.19,-6.24 -1.89,-0.79 0.09,0.44 -1.49,-0.81 -4.35,-3.46 -8.94,-5.86 -9.97,-6.97 -0.29,-0.32 -0.97,-1.19 -1.1,-1.3l-11.27 -6.43c-1.93,-1.47 0.17,-0.71 -2.63,-2.07 -5.17,-2.52 -10.75,-4.42 -15.72,-7.42l-19.47 -7.93c-0.9,-0.27 -1.12,-0.23 -1.9,-0.51l-2.54 -1.17c-0.15,-0.06 -0.31,-0.11 -0.47,-0.16l-2.33 -0.69c-11.19,-4.41 -41.45,-5.61 -54.63,-2.98 -2.9,0.58 -5.09,0.77 -8.37,1.28 -3.44,0.53 -4.28,1.36 -8.28,1.86 -0,-3.9 -11.65,-32.91 -14.26,-37.98 -1.57,-3.03 -0.32,-3.42 -3.15,-4.39 -0.56,1.04 -0.46,-0.19 -0.49,1.93 -0,0.1 0.23,1.43 0.25,1.48 1.58,7.93 -0.07,17.42 -1.96,25.13 -2.76,11.22 -11.26,28.71 -18.38,38.09 -4.25,5.61 -3.69,8.6 -4.99,11.47 -0.83,1.83 -2.4,2.28 -3.16,4.57 -1.11,3.36 -1.66,9.92 -4.53,11 -0.82,-1.76 -1,-4.59 -0.59,-7.08 0.6,-3.68 1.99,-1.1 2.08,-4.87 -6.5,-3.85 -4.82,-5.39 -7.02,-11.78 -0.81,-2.36 -0.59,-0.51 -1.03,-1.99 -0.97,-3.23 -0.1,-1.55 0.32,-2.16 1.64,1.19 3.14,4.36 4.26,6.16 1.88,3.02 1.78,3.24 3.91,5.73 9.61,-1.14 1.44,-6.74 0.4,-12.97zm20.09 443.78c0.06,-4.92 -7.8,-20.19 -10.1,-25.46l-5.62 -11.93c-3.58,-8.41 -7.12,-13.79 -11.45,-24.52 -1.81,-4.48 -3.71,-8.04 -5.5,-12.02 -0.92,-2.03 -1.59,-3.9 -2.5,-6.07 -0.88,-2.09 -2.12,-3.97 -3.04,-6.06 -1.54,-3.51 -3.47,-9.8 -5.65,-12.32 -0.98,2.05 2.1,10.11 3.04,12.98 1.53,4.68 2.28,9.9 3.72,14.77 4.8,16.28 20.19,42.35 28.53,60.56 1.9,4.15 4.23,9.51 8.56,10.07zm258.15 103.67c-0.25,-1.19 -0.25,-2.13 -0.61,-2.98 -1.35,-3.17 0.18,-1.06 -2.16,-2.16 -1.2,5.03 1.63,6.41 -0.05,10.83 -0.62,1.61 -0.86,3.64 -1.42,4.77 -0.04,0.07 -1.01,1.19 -1.29,1.76 -0.52,1.05 -0.14,0.06 -0.29,1.17l0.15 0.8c1.33,0.64 -1.75,1 1.79,0.26 2.13,-0.45 2.42,-2.47 2.64,-2.94 0.71,-1.54 2.05,-3.74 2.27,-4.94 0.53,-2.9 -0.53,-4.29 -1.02,-6.57zm-132.03 -473.31c-1.52,-1.29 -7.22,-3.5 -9.31,-3.86 0.26,2.87 2.97,6.93 5.4,8.31l3.91 -4.45zm14.56 160.8c-0.15,-3.54 0.18,-3.61 -3.75,-3.8 0.3,3.95 0.31,3.5 3.75,3.8zm-50.22 244.04c-0.84,-2.16 -1.84,-3.86 -4.13,-4.34 0.2,2.58 2.39,3.99 4.13,4.34zm62.25 -387.55c-2.69,-0.3 -2.7,-0.21 -3.52,1.93l3.52 -0.05 0.01 -1.88z"/>
  </g>
 </g>
</svg>
