<?xml version="1.0" encoding="UTF-8"?>
<!DOCTYPE svg PUBLIC "-//W3C//DTD SVG 1.1//EN" "http://www.w3.org/Graphics/SVG/1.1/DTD/svg11.dtd">
<!-- Creator: CorelDRAW 2018 (64-Bit) -->
<svg xmlns="http://www.w3.org/2000/svg" xml:space="preserve" width="152.162mm" height="68.0916mm" version="1.1" style="shape-rendering:geometricPrecision; text-rendering:geometricPrecision; image-rendering:optimizeQuality; fill-rule:evenodd; clip-rule:evenodd"
viewBox="0 0 905.39 405.15"
 xmlns:xlink="http://www.w3.org/1999/xlink">
 <defs>
  <style type="text/css">
   <![CDATA[
    .str0 {stroke:#0A5E1C;stroke-width:1.49;stroke-miterlimit:22.9256}
    .str1 {stroke:#117827;stroke-width:1.49;stroke-miterlimit:22.9256}
    .str2 {stroke:#19B03A;stroke-width:1.49;stroke-miterlimit:22.9256}
    .fil0 {fill:none}
   ]]>
  </style>
 </defs>
 <g id="Layer_x0020_1">
  <metadata id="CorelCorpID_0Corel-Layer"/>
  <g id="_2066709984">
   <g>
    <path class="fil0 str0" d="M195.54 90.03l-0.95 1.03c-2.61,-2.94 -4.41,-7.3 -7.17,-9.43 -2.08,0.03 -3.8,1.53 -6.09,0.34 -4.47,-2.18 -3.6,-6.41 -6.06,-7.61 -3,2.32 -0.82,11.98 -9.29,1.87 -1.68,-2.01 -6.92,-9.3 -8.49,-10.36l-5.32 1.32c-2.65,-1.72 -3.17,-5.2 -6.05,-6.14 -3.64,0.7 -3.95,5.03 -10.61,2.76 -2.26,-2.07 -0.88,-4.01 -4.23,-6.41 -2.58,-0.24 -5.21,1.92 -6.84,-0.76 -0.71,-1.16 -1.07,-4.52 -4.54,-2.25 -2.44,1.59 0.21,3.19 -4.99,2.88 -2.68,-0.16 -3.56,-0.8 -5.22,-2.82 -1.43,-1.74 -2.22,-2.77 -3.26,-4.77 -2.07,-3.99 -2.51,-1.87 -5.52,-2.7 -2.96,-0.82 -2.2,-10.49 -8.02,-5.33l-1.72 2.08c-1.39,-0.26 -1.92,-0.49 -2.54,-1.86 -1.04,-1.77 -7.4,-11.82 -8.97,-12.51 -0.12,0.09 -4.44,10.45 -8.58,6.18 -1.3,-1.35 -0.16,-1.57 0.03,-3.31l-5.04 0.58c-3.97,-2.46 -2.85,-4.1 -4.68,-5.93 -5.33,0.59 0.06,4.62 -9.96,-0.51 -0.53,-2.15 0.31,-5.1 -3.48,-4.17 -2.33,0.57 -1.91,3.93 -4.36,1.71 -2.56,-2.31 -3.21,-7.47 -7.06,-8.58l-3.33 2.97c-5.17,-0.01 -4.31,-4.84 -5.86,-7.01 -2.34,-0.1 -1.7,2.36 -7.31,1.18l-2.86 -6.02 -1.9 -0.74 -1.63 2.45c-2.51,-0.29 -2.57,-0.74 -4.33,-2.14 -0.27,-1.85 -0.97,-2.28 -2.66,-2.49l-0.34 0.88 -5.81 4.93m514.52 211.56c2.4,-2.16 11.62,-5.56 15.34,-7.51 3.36,-1.76 12.56,-8.17 15.57,-6.45l-14.68 7.8c-2.98,1.64 -13.12,6.03 -16.24,6.15zm49.69 -16.89l-0.13 -0.12c-0.07,-0.41 24.68,-13.26 27.07,-14.47 8.94,-4.53 18.36,-9.52 26.69,-15.08 7.81,-5.21 14.71,-13.91 21.89,-19.84 3.05,-2.52 7.87,-7.16 10.5,-10.16 2.82,-3.22 7.31,-10.07 10.24,-11.95 -0.97,12.05 -30.6,37.32 -41.12,43.57 -9.11,5.4 -46.99,29.34 -55.12,28.06zm167.02 -75.96c1.12,-2.53 19.5,-16.71 23.39,-20.38 10.64,-10.07 7.97,-16.17 21.79,-21.45 17.01,-6.49 39.38,-32.42 49.92,-36.53 -2.53,7.27 -40.2,36.52 -48.18,39.8 -12.17,5 -10.4,10.89 -21.04,20.64 -6.1,5.59 -18.01,15.93 -25.88,17.92zm160.28 -28.41c-1.67,0.34 -2.63,0.2 -3.15,-1.44 -1.6,-1.06 -6.03,-6.52 -7.52,-8.36 -4.2,-5.19 -5.76,-1.14 -10.25,-4.9 -6.31,-5.29 -7.15,-10.8 -14.98,-15.84 -7.24,-1.2 -22.9,-13.86 -22.67,-21.73 -14.11,-10.3 -42.24,30.98 -57.94,33.94 -8.37,2.98 -9.89,4.46 -14.99,11.56 -4.79,6.66 -5.39,8.28 -11.73,13.98 -9.64,8.67 -18.35,15.6 -29.56,22.27 -10.54,6.28 -11.58,1.16 -20.79,1.4 -10.5,0.27 -7.29,6.28 -20.67,-0.38 -3.74,-1.86 -16.45,-5.36 -19.96,-3.12 -0.86,0.55 -10.2,12.06 -11.87,14.01 -7.96,9.32 -17.41,17.27 -26.91,25 -15.33,12.47 -20.83,12.17 -31.67,19.67 -8.6,5.95 -25.33,16.05 -35.76,15.87 -11.16,-0.19 -9.51,-1.75 -19.7,4.28 -6.14,3.63 -10.36,6.08 -17.19,8.44 -6.72,1.08 -12.42,-0.59 -18.73,0.37 -11.56,1.76 -3.32,-6.49 -14.1,-4.04 -9.9,2.24 -5.15,-4.77 -10.89,-7.74 -3.89,-2.01 -9.61,4.13 -15.04,-2.41 -6.07,-7.31 -8.94,0.15 -15.04,-3.17 -3.03,-1.65 -8.01,-9.41 -10.65,-9.36 -2.71,0.05 -3.42,3.68 -6.66,2.48 -3.51,-1.31 -3.11,-5.88 -12.57,-7.71 -4.98,-0.96 -3.86,1.28 -6.57,1.39 -2.47,-3.84 0.68,-1.79 -4.03,-5.26 -1.93,-1.42 -2.84,-3.28 -5.34,-4.31 -4.03,-1.65 -13.38,3.46 -24.7,-2.61m-6.66 -6.36c-2.57,-2.49 -6.33,-6.08 -8.22,-7.19l-10.55 -1.72 -1.97 -2.01m-9.52 -2.98l-3.84 -1.67c-2.94,-0.81 -1.14,1.07 -4.01,-2.96m-14.32 -4.39c-9.11,-2.6 -9.65,-3.34 -11.57,-3.75 -1.29,-0.27 -1.68,-0.61 -3.49,-0.87 -0.72,-3.89 -1.05,-3.79 -2,-6.46"/>
   </g>
   <g>
    <path class="fil0 str1" d="M678.35 217.77c13.19,-4.82 -3.74,7.34 -6.54,10.71 -4.86,5.85 -9.31,9.31 -14.84,14.32 -6.43,5.83 -25,17.95 -32.66,21.85 -17.19,8.76 22.75,-18.81 23.76,-19.63 6.34,-5.1 10.55,-6.66 16.06,-13.21 2.68,-3.19 10.59,-12.72 14.22,-14.04zm18.86 13.6c32,-6.95 17.9,-14.7 41.54,-27.65 10.26,-5.62 14.18,-2.96 23.56,-11.23 10.36,-9.14 11.79,-7.3 23.81,-10.95 15.34,-4.66 28.16,-18.93 38.8,-30.18 4.86,-5.14 36.35,-23.93 42.65,-23.98 -10.44,7.73 -37.58,21.46 -42.21,27.89 -8.43,11.7 -25.82,26.68 -40.2,29.34 -0.05,0.01 -45.55,22.62 -46.35,23.17 -7.42,5.14 -12.12,10.18 -17.4,17.33 -5.74,7.77 -24.13,10.83 -24.18,6.4l-0.03 -0.14zm207.61 -144.94c-2.51,3.05 -2.51,4.29 -6.17,7.08 -1.66,1.27 -5.91,4.81 -6.66,6.17 -12.61,10.79 -31.79,26.15 -46.5,33.38 -10.08,4.95 -17.2,5.89 -25.24,14.58 -7.02,7.59 -11.51,13.34 -20.05,19.78 -11.94,9 -14.38,7.1 -26.68,12.15 -10.03,4.12 -12.13,10.42 -25.28,14.43 -20.45,6.23 -35.48,33.47 -46.81,31.59 -11.06,-1.83 -10.81,-17.41 -25.39,-12.09 -5.85,2.14 -13.83,14.24 -20.67,19.61 -15.37,12.07 -30.33,21.52 -46.86,31.79 -17.18,10.67 -86.94,53.18 -102.05,55.8"/>
   </g>
   <g>
    <path class="fil0 str2" d="M210.59 185.39c3.26,0.78 3.95,3.26 6.82,4.66l5.52 3.06c2.33,1.44 0.93,-0.05 1.51,1.99 -2.53,0.18 -13.65,-1.74 -15.68,-2.93 -0.4,-1.72 1.32,-6.06 1.82,-6.78zm40.09 -6.69c2.19,-0.44 5.33,-1.08 7.31,-0.49 0.64,2.69 0.02,14.17 -0.26,17.57 -1.78,1.17 -2.01,0.38 -3.8,2.16 -1.9,1.89 -1.97,2.23 -4.74,1.62 -0.16,-2.75 -0.13,-1.4 1.31,-3.29 -0.88,-1.97 -1.49,-1.93 0.39,-3.87 3.21,-0.65 4.14,2.97 4.32,-0.34 -1.7,-0.59 -1.96,0.16 -4.28,-0.83l-0.25 -12.53zm177.73 57.6l0.21 4.43c0.09,6.89 -4.08,17.95 -7.97,23.69 -4.81,7.09 -10.15,10.64 -17.42,14.86 -1.95,1.13 -9.98,3.44 -12.34,3.71 -5.94,0.69 -9.17,0.89 -15.22,0.19 -5.42,-0.63 -7.33,-1.23 -12.13,-3.91 -2.79,-1.56 -8.3,-4.29 -9.94,-6.8 -3,-1.88 -4.09,-4.89 -4.55,-5.52 -0.55,-0.74 -1.36,-1.24 -1.98,-2.02 -0.49,-0.62 -5.46,-9.09 -5.56,-9.47 -3.02,-11.21 -3.76,-13.62 -1.78,-25.41 1.22,-7.24 4.92,-14.6 9.52,-20.36l8.09 -7.05c3.1,-2.19 6.83,-4.86 10.69,-4.87l3.57 24.96c0.74,4.66 -0.13,4.33 -2.01,7.81 -5.43,10.06 -1.48,21.56 9.72,24.39 17.03,4.31 29.33,-16.1 14.71,-29.34 -4.87,-4.41 -12.41,-2.28 -15.07,-3.52 -0.89,-3.05 -4.62,-25.24 -3.9,-27.17 0.41,-1.5 2.09,-0.97 3.83,-1.05 -0.08,-3.63 -0.72,0.13 -0.85,-2.72l8.2 0.29c3.94,-0.41 1.79,0.13 2.58,-1.55 -0.98,-1.98 0.99,-0.87 -1.88,-1.39l-7.44 -0.14c0.49,-1.96 -0.6,-0.19 1.46,-1.41 1.51,-0.89 0.35,-0.68 1.87,-0.76 2.07,-0.11 2.36,0.41 4.02,0.94l1.27 -1.45c3.59,1.42 9.79,1.99 13.88,3.19 2.89,0.86 8.09,3.76 11.93,5.61 4.13,2 6.55,4.65 9.18,8.08 1.05,1.37 4.68,4.92 5.8,7.13 0.67,1.31 0.28,1.76 1.27,3 -0.08,-0.42 -0.72,-0.77 -0.94,-1.03 -1.78,-2.06 -0.52,-3.01 -2.72,-4.54 -2.17,-1.5 -0.45,0.19 -1.91,-1.96 -0.86,-1.28 -2.55,-2.37 -3.7,-3.49 -2.78,-2.7 -1.93,0.24 -3.62,-3.94 -9.59,-3.59 -9.01,-4.72 -12.3,-6.12 -3.77,-1.6 -12.39,-4.37 -16.16,-3.32 -0.23,4.03 2.43,1.86 5.77,3.1 2.88,1.07 4.67,0.7 7.41,2.18 14.33,7.7 11.28,2.59 10.97,6.33 11.12,6.48 3.78,4.16 9.3,8.51 2.1,1.65 1.36,1.46 2.14,3.91 3.38,0.87 2.15,2.47 5.74,9.75 0.62,1.25 1.14,3.01 0.64,4.08 -2.32,-1.93 0.12,-0.98 -1.48,-3.83 -2.85,0.7 -0.79,0.4 -2.1,1.96l-0.62 0.38c2.95,2.18 -0.63,0.93 2.73,1.89l0.99 3.64 -1.95 1.52 0.05 4.62zm-188.11 -18.43c0.66,-1.79 1.67,-3.94 3.04,-5.04l0.47 -0.48 2.17 -5.16 2.79 -0.21c1.78,1.92 2.12,5.01 2.86,5.82 0.63,0.68 1.83,0.72 2.69,1.26 2.62,1.67 0.32,0.52 1.55,3.03l8.09 -0.15c0.91,-1.18 2.05,-0.93 3.24,-1.64 1.6,-0.96 0.96,-1.78 2.35,-3.23 2.99,-0.45 14.67,3.04 19.59,3.46 4.74,0.41 6.7,-1.43 10.44,-0.7 4.2,0.82 6.4,0.47 10.61,0.49 3.74,-7.51 -2.25,-7.87 -7.03,-11.77 -3.24,-2.64 -8.16,-7.6 -9.62,-11.18 1.03,-1.79 38.13,-28.38 44.81,-33.43 5.55,-4.2 9.5,-8.27 16.76,-9.58l1.59 0.24 1.15 5.7c1.97,0.93 1.28,-0.13 2.8,1.3 0.57,1.05 2.64,11.25 3.03,13.25 0.59,3.1 2.52,11.79 1.88,14.26 -0.47,0.51 -13.48,6.85 -16.27,8.94l-10.06 9.08c-2.05,2.59 -6.91,10.55 -7.88,13.32 -1.07,3.06 -2.02,5.99 -3.02,9.02 -2.27,6.85 -1.1,17.37 -2.71,21.54 -3.17,0.12 -0.73,-0.4 -3.2,-0.93 -1.52,-0.32 -2.89,0.16 -4.68,-0.23 -2.62,-0.56 -5.16,-1.98 -7.79,-0.5 0.48,1.5 2.92,2 5.16,2.97 -0.59,5.05 -17.81,-1.94 -19.99,-2.53 -3.19,-0.86 -19.14,-6.05 -20.84,-5.07 2.59,2.23 24.24,13.08 30.61,15.45 2.27,0.85 1.34,0.14 2.28,1.67 -1.29,0.94 0.45,0.63 -1.91,0.73 -2.57,0.1 -10.5,-3.75 -13.55,-2.23 0.61,1.31 0.07,0.54 1.31,1.12l5.64 2.39c6.3,2.27 13.62,7.11 17.84,8.89 2.32,0.98 3.1,0.16 3.15,2.12 -3.83,1.18 -6.14,-1.82 -9.98,-0 0.54,3.34 1.79,0.82 4.06,2.89 -6.92,0.5 -19.41,-4.8 -26.44,-7.09 -1.8,-0.59 -3.5,-1.54 -5.68,-2.24 -2.14,-0.69 -4.24,-1.44 -6.39,-2.12 -8.09,-2.55 -18.52,-5.02 -26.86,-7.01 -4.19,-1 -8.84,-3.21 -12.95,-4.28 -4.26,-1.11 -20.2,-8.21 -21.79,-11.8 7.11,-4.02 13.59,-5.25 21.19,-14.02 1.27,-1.47 4.28,-5.68 5.48,-6.33zm30.21 -43.26c1.41,2.87 1.41,0.64 1.37,5.15 -0.06,6.74 0.22,5.92 -1.94,9.53 -0.84,1.41 -0.12,0.85 -0.93,2.57 -2.41,5.09 -1.31,4.12 -3.53,4.26 -2.03,-2.05 -0.52,-15.04 -0.14,-16l3.43 -0.43c1.01,-4.16 -2.37,-5.04 1.74,-5.08zm-37.23 -4.93c2.02,-0.7 0.84,-0.69 2.96,0.01l0.4 2.76c-2.39,-0.05 -3.39,-0.43 -3.36,-2.77zm31.88 1.85c-0.32,-2.66 0,-4.76 0.06,-7.35 0.08,-3.41 -0.31,-2.78 1.79,-5.37l2.48 0.8c0.46,1.65 2.55,10.21 -0.16,11.31 -0.53,0.22 -3.45,0.62 -4.17,0.61zm24.98 11.84c-2.13,-16.61 6.02,-7.96 10.12,-13.42 3.4,-0.21 5.97,-1.85 8.49,-1.8 -0.51,2.78 -1.5,2.95 -3.67,4.34 -2.32,1.48 -12.9,10.37 -14.93,10.89zm-43.7 -23.18c1.25,-1.09 4.06,-2.61 5.59,-3.48 2.37,-1.35 4.12,-2.9 6.61,-2.91 0.7,3.52 0.4,13.79 -0.76,17.36 -1.47,0.49 -7.11,0.89 -8.62,0.76 -0.89,-2.76 -3.25,-9.16 -2.81,-11.73zm19.52 -10.14c1.63,-1.2 1.83,-1.03 3.16,0.04 -1.04,1.67 -2.19,1.68 -3.16,-0.04zm62.97 4.29c-2.45,4.06 -9.6,4.91 -13.86,6.01 -3.46,0.9 -3.87,1.92 -6.91,2.67 -2.73,0.67 -5.39,0.91 -7.99,1.98l-0.8 -1.38 -8.25 1.23c-0.82,-3.71 0.17,-7.83 1.15,-11.13 10.95,-0.81 22.71,-4.93 33.56,-6.24l13.91 -2.5c3.39,-0.16 0.89,-0.22 1.85,0.63 -1.82,1.65 -4.22,2.67 -6.08,4.49 -1.25,1.23 -5.14,3.84 -6.59,4.23zm-116.26 0.65c6.81,7.1 5.53,2.27 5.78,6.44 -3.83,2.95 -1.22,-1.68 -8.19,4.52 -0.9,0.61 -1.83,0.93 -2.54,1.44 -1.03,0.74 -1.15,1.4 -2.28,2.35 -3.37,1.58 -11.15,-5.76 -20.45,0.13 -5.77,3.65 -9.24,8.39 -9.06,15.48 0.29,11.11 14.97,17.82 8.37,23.59 -1.85,1.62 -0.91,1.63 -2.5,3.55 -1.7,2.05 -0.85,2.6 -1.03,5.29l5.21 0.6c-0.09,-1.81 -0.47,-6.19 -0.79,-7.01l1.49 -0.76c0.34,-1.72 -0.32,-0.22 1.22,-1.58 2.34,-2.06 2.01,-4.18 2.21,-7.46 2.02,-0.19 4.07,0.02 6.11,-0.42 2.03,-0.44 3.31,-1.49 5.13,-1.5 1.34,-2.72 3.13,-2.66 6.21,-2.31 6.81,0.77 14.34,3.3 20.49,4.36l1.48 2.44c1.9,-1 4.59,-1.64 4.19,1.17 -0.13,0.89 -2.05,3.07 -2.71,3.96l-3.95 5.61c-1.36,1.86 -0.42,1.18 -2,1.49l-1.94 1.2c-0.2,2.96 -0.34,2.54 -3.04,3.92 -2.17,1.11 -3.04,2.04 -5.49,2.64 -2.8,2.83 -13.16,4.57 -17.17,5.04 -12.53,1.49 -24.83,-3.17 -34.03,-11.3 -5.42,-4.79 -6.68,-6.36 -10.27,-12.56l-1.92 -1.12c-0.42,2.99 2.14,9.68 4.2,11.62 1.28,1.21 1.91,1.68 0.23,2.78 -0.34,-0.31 -4.17,-7.02 -4.6,-7.94 -1.52,-3.22 -2.44,-6.67 -3.53,-10.03 -2.13,-6.62 -0.79,-4.56 0.24,-10.09 0.69,-3.74 -0.33,-6.35 -2.55,-9.29 2.49,-5.69 2.72,-12.59 4.37,-18.72 1.87,-6.94 2.75,-3.47 5.15,-6.9 5.55,-7.92 0.87,-3.44 6.04,-5.43l0.39 -3.1c2.8,-1.77 1.29,-0.09 3.39,-2.87 1.89,-2.51 9.55,-2.72 11.68,-6.19 -5.23,-1.23 -5.22,0.85 -9.21,2.05 -2.96,0.89 -2.07,-0.03 -4.13,2.11 -1.24,1.28 -1.88,2.11 -3.6,2.24 1.97,-3.58 7.31,-5.07 10.58,-6.93 1.03,-3.6 0.16,-1.76 3.85,-2.96 3.99,-1.3 2.12,-1.24 7.14,-1.57 2.57,-0.17 4.85,-1.01 7.06,-1.17 3.02,-0.22 5.94,0.64 8.05,0.5 3.05,-0.21 2.58,-1.87 6.67,-0.93 1.98,0.46 5.14,0.85 6.8,1.55l9.59 5.15c1.61,1.14 0.69,0.19 1.05,1.33 -5.12,0.7 -11.22,-7.18 -17.24,-5.98l1.39 0.96c0.03,0.02 0.83,0.31 0.96,0.37 -2.77,-0.41 -3.09,-1.19 -6.73,-1.23l-8.07 -0.26c-2.77,0.24 -4.53,0.93 -7.54,1.06 -1.32,0.06 -2.62,0.05 -3.92,0.14 -2.83,0.2 -2.66,-0.38 -3.47,1.51 1.71,1.42 4.67,0.79 9.17,0.76 -2.06,0.21 -0.98,0.25 -1.33,1.17 4.33,1 3.27,-0.79 6.16,-1.16l14.21 -0.03c2.23,0.06 1.09,0.31 2.91,0.7 1.09,0.23 2.59,0.22 3.83,0.4 2.02,2.55 4.22,4.17 7.48,4.68 5.26,0.82 2.78,3.5 7.89,4.48l0.87 2.87c-3.07,0.21 -2.83,-0.82 -5.13,-1.53l-0.03 1.16c3.79,6.29 -19.12,-5.18 -8.83,5.54zm74.49 -80.7c1.48,1 5.34,2.95 6.24,3.99 1.51,1.74 3.34,3.56 4.61,5.25 8.09,4.69 11.85,12.57 27.88,19.69 8.64,3.84 31.84,9.58 31.66,15.55l-3.11 1.35c-0.27,4.46 1.34,8.26 -0.06,13.11l-45.01 10.04c-1.36,1.2 -1.98,0.92 -4.01,1.35 -4.2,0.89 -9.77,2.41 -13.2,1.49 0.46,-5.57 0.5,-11.92 2.64,-17.13 1.87,-3.44 1.45,-9.76 -0.03,-13.25 -1.86,-4.39 -2.66,-5.49 -6.25,-8.87 -5.37,-5.04 -11.41,-9.35 -16.7,-14.16l-0.68 -0.86c-1.7,-0.21 -11.25,-6.14 -14.55,-7.96 -1.59,-0.87 -4.32,-1.36 -5.12,-2.84 2.39,-1.23 5.5,-1.25 8.05,-2.46 8.48,-4.01 4.13,-3.52 15.73,-5.41 3.62,-0.59 5.28,-2.08 8.38,-2.12 1.61,2.11 2.24,1.65 3.53,3.24zm549.44 330.17c-6.37,-2.25 -14.99,-3.82 -21.75,-4.33 -7.5,-0.57 -15.01,-2.47 -22.59,-3.55 -25.93,-3.7 -53.58,-13.85 -85.04,-18.66 -24.8,-3.8 -19.46,-3.41 -42.06,-8.93 -10.26,-2.51 -27.98,-12.96 -36.2,-15.65 -6.23,-2.04 -12.67,-4.36 -18.63,-7.08 -5.95,-2.72 -11.35,-6.54 -17.19,-8.97 -12.52,-5.21 -28.42,-8.85 -41.94,-9.97 -3.98,-0.33 -7.66,-0.32 -11.65,-1 -3.68,-0.62 -7.6,-1.59 -11.3,-1.78 -11.4,-0.59 -10.82,0.56 -21.82,-3.82 -2.45,-0.53 -9.01,-3.64 -11.16,-4.99 -0.92,-0.58 -10.48,-4.22 -11.98,-4.66 -9.72,-2.8 -19.17,-2.8 -28.96,-4.88 -3.43,-0.73 -8.86,-2.88 -12.56,-3.98 -4.22,-1.26 -11.71,-0.94 -14.52,-2.6 -12.77,-7.51 -23.3,-2.87 -27.45,-5.88 0.94,-0.59 3.12,-0.86 4.42,-1.24 2.22,-0.64 2.67,-1.19 4.61,-2 7.95,-3.34 12.77,-8.01 18.02,-13.81 1.1,-1.22 2,-1.38 3.32,-3.2 2.3,-3.16 7.72,-13.4 8.7,-16.93 2.17,-7.81 1.94,-15.99 1.72,-24.07 -1.16,-14.78 -9.03,-28.36 -20.58,-37.46 -4.44,-3.49 -13.13,-9.15 -18.41,-10.62 -2.35,-0.65 -10.06,-2.45 -12.26,-2.58 -1.88,-0.11 -3.75,-0.08 -5.87,-0.2 -4,-0.24 -7.11,0.73 -10.74,1.51 -1.86,-0.46 -1.24,-1.02 -1.52,-3.35 -0.24,-1.98 -0.51,-3.33 -0.57,-5.39 -0.28,-3.45 -1.16,-6.62 -1.78,-9.95 -0.52,-2.8 -0.97,-8.91 -0.96,-11.85 -1.3,-1.23 -2.18,-0.26 -2.32,-3.01 -0.13,-2.36 0.19,-2.33 -0.26,-4.93 -1.25,-1.79 -0.36,-1.79 -0.84,-4.35 -1.14,-3.03 -2.25,-9.9 -2.96,-11.25 -1.09,-2.09 -1.44,0.06 -1.37,-3.71 5.87,-0.43 12.16,5.88 12.41,5.96l1.06 -0.11 -1.47 -2.51 -0.66 -1.2c1.55,-2.62 2.43,-1.05 4.39,-4.57 4.47,-8.04 1.14,-7.27 -2.17,-10.61 -1.63,-1.64 -0.87,-3.38 -2.54,-4.97 -5.89,-5.59 -23.76,-10.74 -28.01,-19.09l-2.92 -2.53c-2.55,-0.86 -7.62,-5.21 -10.68,-6.78 -7.82,-4.02 -11.13,-15.7 -13.96,-21.35l-7.08 -11.14c3.6,-2.62 5.12,1.65 8.35,7.39l5.75 11.46c8.36,1.68 6.9,-1.72 10.81,-3.16 1.09,-2.24 3.65,-4.52 2.57,-7.3 -2.03,-0.59 -2.74,-0.09 -4.35,-1.66 0.25,-1.69 2.14,-3.05 3.56,-3.98 0.4,-1.87 2.75,-4.93 3.69,-7.11 0.86,-1.99 2.16,-6.2 3.84,-7.08 1.46,-1.36 0.23,0.1 1.68,-0.93 1.46,-1.04 0.21,-0.4 1.49,-1.71 1.14,-1.54 9.15,2.9 14.41,1.9 -0.72,-3.27 -12.25,-12.96 -15.3,-16.15 -5.06,-5.3 -9.76,-10.96 -16.51,-14.18 -14.49,-6.93 -22.8,-2.17 -29.89,10.53 -1.49,2.68 -2.72,8.4 -4.66,9.96 -3.27,-2.53 -5.13,-1.82 -9.28,-1.2 -10.88,1.61 -27.55,8.48 -40.78,11.61 -4.34,1.03 -12.38,4.69 -15.39,5.12 -2.02,1.79 -11.2,7.51 -13.87,8.91 -4.03,2.1 -9.85,5.95 -13.12,9.03 -11.6,10.95 -3.49,9.09 -5.17,13.85 -0.46,1.31 -2.16,3.69 -2.91,8.34 -0.52,3.24 0.7,5.98 1.57,9.05 3.66,4.68 0.14,4.76 11.4,12.65 4.97,3.49 9.21,5.5 14.19,9.5 5.3,4.25 8.71,6.13 14.8,8.87 3.55,1.6 15.66,3.74 17.43,6.25l-9.64 7.42c-1.53,1.42 -2.85,2.78 -4.2,4.33 -2.2,2.51 -2.08,1.44 -4.21,4.88 -4.34,-0.71 -29.77,-27.53 -68.08,-9.08 -17.56,8.46 -29.69,27.96 -30.45,47.34 -0.12,3.14 0.83,7.75 -1.22,10.12 -5.3,-2.5 -2.13,0.14 -7.57,-2 -2.27,-0.89 -4.83,-1.53 -6.91,-2.48l-0.43 1.72c3.13,3.71 7.55,3.72 8.57,6.9 -3.85,-0.13 -7.06,-1.27 -10.42,-3.05 -3.43,-1.82 -0.8,0.42 -4.8,-0.56l-14.26 -5.54c-2.59,-1.29 -6.25,-4.21 -8.94,-4.04 0.88,5.12 23.79,20.66 24.18,21.08 -0.86,0.43 0.64,1.61 -4.29,-0.25 -1.57,-0.59 -2.73,-1.13 -4.34,-1.22 -0.13,3.59 2.24,2.59 4.94,5.89 -2.58,-0.03 -4.25,-1.13 -6.58,-2.16 -5.42,-2.4 -17.34,-4.65 -23.82,-4.84 -7.8,-0.23 -7.01,-1.6 -13.23,-4.98 -4.82,-2.61 -7.15,-4.58 -11.35,-7.88 -6.93,-5.46 -12.2,-6.38 -19.66,-9.01 -6.06,-2.14 -4.05,-4.98 -20.38,-8.42 -5.09,-1.07 -10.53,-3.5 -15.23,-4.18m374.56 28.49c15.27,-0.48 23.88,-0.38 36.92,9.2 15.48,11.38 11.31,23.83 16.45,32.21l-0.05 -4.62 1.95 -1.52 -0.99 -3.64c-3.36,-0.95 0.22,0.29 -2.73,-1.89l0.62 -0.38c1.31,-1.56 -0.75,-1.26 2.1,-1.96 1.6,2.84 -0.84,1.89 1.48,3.83 0.5,-1.07 -0.02,-2.83 -0.64,-4.08 -3.59,-7.28 -2.36,-8.88 -5.74,-9.75 -0.78,-2.45 -0.04,-2.26 -2.14,-3.91 -5.52,-4.35 1.82,-2.03 -9.3,-8.51 0.31,-3.74 3.36,1.37 -10.97,-6.33 -2.74,-1.47 -4.53,-1.11 -7.41,-2.18 -3.35,-1.24 -6.01,0.93 -5.77,-3.1 3.77,-1.05 12.39,1.72 16.16,3.32 3.29,1.4 2.72,2.53 12.3,6.12 1.69,4.18 0.84,1.24 3.62,3.94 1.16,1.13 2.84,2.21 3.7,3.49 1.45,2.16 -0.26,0.46 1.91,1.96 2.2,1.53 0.94,2.48 2.72,4.54 0.23,0.26 0.86,0.61 0.94,1.03 -0.99,-1.24 -0.61,-1.69 -1.27,-3 -1.12,-2.21 -4.75,-5.76 -5.8,-7.13 -2.63,-3.43 -5.05,-6.08 -9.18,-8.08 -3.84,-1.86 -9.04,-4.76 -11.93,-5.61 -4.09,-1.21 -10.29,-1.77 -13.88,-3.19l-1.27 1.45c-1.66,-0.52 -1.95,-1.05 -4.02,-0.94 -1.52,0.08 -0.36,-0.13 -1.87,0.76 -2.06,1.22 -0.97,-0.55 -1.46,1.41l7.44 0.14c2.87,0.52 0.91,-0.59 1.88,1.39 -0.8,1.67 1.35,1.13 -2.58,1.55l-8.2 -0.29c0.13,2.85 0.77,-0.91 0.85,2.72 -1.74,0.08 -3.42,-0.44 -3.83,1.05zm-221.92 10.43c-4.13,-16.5 -8.05,-25.5 0.96,-42.29 5.2,-9.68 17.9,-20.36 29.02,-21.61 3.62,-2.07 15.88,-2.46 19.34,-0.25 7.38,0.15 12.83,5.91 19.05,8.28l0.03 -1.16c2.3,0.72 2.06,1.74 5.13,1.53l-0.87 -2.87c-5.11,-0.98 -2.63,-3.66 -7.89,-4.48 -3.26,-0.51 -5.46,-2.13 -7.48,-4.68 -1.24,-0.18 -2.74,-0.17 -3.83,-0.4 -1.81,-0.39 -0.68,-0.63 -2.91,-0.7l-14.21 0.03c-2.89,0.37 -1.83,2.16 -6.16,1.16 0.34,-0.91 -0.73,-0.96 1.33,-1.17 -4.5,0.03 -7.45,0.66 -9.17,-0.76 0.81,-1.89 0.64,-1.31 3.47,-1.51 1.3,-0.09 2.6,-0.08 3.92,-0.14 3.01,-0.13 4.77,-0.82 7.54,-1.06l8.07 0.26c3.63,0.04 3.95,0.82 6.73,1.23 -0.12,-0.06 -0.93,-0.35 -0.96,-0.37l-1.39 -0.96c6.02,-1.2 12.12,6.68 17.24,5.98 -0.36,-1.14 0.55,-0.19 -1.05,-1.33l-9.59 -5.15c-1.66,-0.7 -4.82,-1.09 -6.8,-1.55 -4.09,-0.94 -3.63,0.72 -6.67,0.93 -2.11,0.14 -5.03,-0.72 -8.05,-0.5 -2.21,0.16 -4.5,1 -7.06,1.17 -5.02,0.33 -3.15,0.26 -7.14,1.57 -3.7,1.21 -2.82,-0.64 -3.85,2.96 -3.27,1.86 -8.61,3.35 -10.58,6.93 1.72,-0.13 2.37,-0.96 3.6,-2.24 2.06,-2.14 1.17,-1.22 4.13,-2.11 3.99,-1.2 3.98,-3.27 9.21,-2.05 -2.13,3.47 -9.78,3.68 -11.68,6.19 -2.1,2.79 -0.59,1.1 -3.39,2.87l-0.39 3.1c-5.17,1.99 -0.49,-2.49 -6.04,5.43 -2.4,3.43 -3.28,-0.04 -5.15,6.9 -1.65,6.13 -1.88,13.03 -4.37,18.72 2.21,2.94 3.24,5.54 2.55,9.29 -1.03,5.53 -2.37,3.47 -0.24,10.09 1.08,3.37 2,6.81 3.53,10.03 0.43,0.92 4.27,7.64 4.6,7.94 1.68,-1.1 1.05,-1.58 -0.23,-2.78 -2.06,-1.94 -4.63,-8.64 -4.2,-11.62l1.92 1.12z"/>
   </g>
   <g>
    <path class="fil0 str1" d="M224.54 155.48l-5.97 -3.62c-0.12,3.5 2.38,2.2 3.35,6.37l-1.58 0.29c1.73,1.16 0.96,0.19 2.16,1.57 -0.23,2.97 -1.16,2.52 -1.13,5.54 2.91,1.58 1.31,0.4 2.27,3.43 3.31,-1.76 -0.29,-3.68 0.33,-6.35 4.55,0.36 3.02,3.52 5.72,4.91 2.37,-1.24 0.24,-1.32 4.42,-2.66 3.73,-1.2 1.99,-1.33 4.08,-2.9 0.97,-0.73 1.33,-0.41 2.32,-1.23 1.03,-0.84 0.4,-0.94 1.68,-1.86 0.75,-0.53 3.05,-1.58 4.23,-2.3 2.96,-1.83 5.63,-3.76 8.71,-5.48 2.77,-1.55 6.17,-3.23 8.81,-4.88l-0.36 -2.61c3.13,-1.31 1.09,-0.42 2.62,-2.57l2.69 0.58 0.3 -3.48c-1.59,-0.2 -2.69,0.58 -3.59,1.69 -1.3,-0.71 0.29,-0.56 -2.01,-0.41 -0.77,0.05 -0.23,0.2 -1.73,0.33 1,-1.72 0.58,-0.98 2.03,-1.81 -1.73,-0.14 -1.24,0.13 -2.58,-0.56 1.56,-3.69 0.53,2.5 3.27,-3.7l-1.75 -1.79c-0.77,1.72 0.39,-0.18 -0.24,2.04 -3,1.3 -1,0.29 -4.12,0.4 0.41,2.52 0.8,0.31 0.6,2.15 -1.89,0.73 -3.94,-0.18 -5.13,1.9l-1.51 4.92 3.58 1.17 -2.1 2.02c-1.7,-1.18 -0.31,-0.69 -1.95,-1.77 -1.69,-1.11 -0.62,0.41 -1.75,-1.12 -2.09,1.27 -1.98,1.46 -4.19,2.16 -3,0.95 -1.24,1.38 -3.6,2.32 -3.88,1.54 -5.48,0.06 -6.21,5.31 -3.37,0.5 -0.16,0.99 -4.03,0.6 -1.73,3.09 0.15,0.4 -2.6,1.95l-1.28 0.68c-2.49,1.17 -1.69,2.99 -5.17,2.31l-0.55 -3.3 1.97 -0.26zm22.97 -114.71c1.4,0.93 0.37,0.76 2.84,0.73 4.89,-0.07 4.11,-3.25 7.8,-1.36 -1.3,2.42 -2.76,0.82 -6.15,2.76 -4.54,2.59 -1.71,-1.06 -5.19,2.48l2.07 0.69 -2.76 1.44c-2.45,0.51 0.01,-1 -3.12,0.01 -0.33,1.35 -0.97,0.72 0.69,2.09 -2.78,-0.17 0.07,-0.08 -2.19,-1.56 -1.97,-1.3 -0.93,0.97 -2.52,-1.54 2.37,-0.64 2.63,-0.6 4.97,-2.1 1.66,0.62 1.08,1.68 3.4,-0.24 -1.29,-1.06 -1.2,-0.84 -2.99,-1.08 1.22,-2.08 0.46,-1.11 -0.04,-1.97 -1.36,1.55 -5.26,4.26 -7.57,4.67 0.01,1.77 -0.4,1.05 0.9,1.82 -0.53,-0.01 -2.38,-1.46 -5.94,0.67l-0.53 -1.87c1.96,-0.46 3.38,-0.27 4.85,-1.35 0.52,-0.39 1.03,-1.08 1.51,-1.51 1.94,-1.76 0.92,0.41 1.72,-1.78 -1.63,0 -14.96,5.57 -15.61,11.5l2.9 0.18 -0.45 2.67 4.97 0.34c-0.53,1.15 -0.11,0.47 -1.52,1.41l2.01 0.74c-1.14,1.97 -1.01,1.53 -0.19,3.69l2.61 -1.65 1.72 0.89c1.34,-1.3 1.44,-2.15 3.72,-1.34 3.06,1.1 -0.09,2.14 3.64,1.34l1.11 1.91c-1.6,1.17 -1.14,0.08 -1.27,1.9 2.67,0.28 5.58,-0.28 8.3,0.12 2.34,0.34 3.98,0.82 5.96,-0.78l-2.14 -1.35c3.73,-4.39 5.4,-1.63 7.89,-3 1.56,-0.86 5.75,0.8 7.39,1.26 3.55,1 2.93,0.8 5.28,-1.46 1.52,-1.47 1.85,0.36 2.44,1.68 0.64,1.43 2.94,1.65 4.43,1.95 2.48,0.5 2.84,-0.8 5.26,-0.19 1.79,0.46 5.76,0.96 7.28,-0.18 -0.66,-1.51 -3.66,-0.37 -4.12,-3.37 1.81,-2.07 8.32,0.24 9.35,-5 1.55,2.4 2.51,3.46 4.17,0.12 1.47,-2.96 -4.57,-4.35 -4.35,-5.67 0.1,-0.6 1.67,-1.43 1.17,-3.11 -0.51,-1.71 -2.54,-2.18 -3.48,-3.57 -1.75,-2.59 4.24,-4.48 -0.39,-7.5 -6.53,-4.26 -4.89,-4.37 -6.71,-2.35 -1.83,2.03 -5.89,-0.44 -8.12,-1.2 -4.62,-1.58 -4.75,-2.06 -7.87,1.56 -3.26,3.77 -2.24,-2.13 -4.56,-3.2 -1.88,0.82 -3.36,3.12 -4.19,2.97 -2.46,-0.43 -3.38,-0.05 -5.09,1.95 -3.22,3.75 -9.64,3.1 -13.29,5.75zm-39.7 37.75c1.79,-2.2 2.65,-1.18 5.17,-2.21 -4.4,-2.14 -7.45,1.56 -9.2,3.5l-0.8 -2.3c-1.65,0.55 -0.6,0.42 -2.41,1.18l-0.32 3.22c-3.74,2.13 -1.11,3.61 -2.05,6.4 1.07,0.14 0.67,0.06 1.37,-0.15l1.56 -0.61c0.54,1.19 0.5,0.71 1.36,1.93 1.95,-0.68 -0.08,-0.35 2.08,-1.28 0.31,-0.14 2.04,-0.68 2.58,-0.91 0.09,0.12 0.17,0.3 0.23,0.37 0.06,0.07 0.16,0.26 0.23,0.34 1.06,1.19 0.78,0.45 2.57,1.4 0.1,0.05 0.59,0.45 0.87,0.6 6.74,-4.88 6.47,2.21 4.68,5.44 1.45,1.84 0.59,1.83 2.67,3.45 1.94,1.5 2.41,1.14 2.23,4l-2.95 0.91c0.49,2.03 3.32,2.28 5.12,4.29 2.87,3.2 3.67,1.45 7.14,2.36 24.9,6.55 10.27,1.72 19.39,1.99 2.99,0.09 2.94,-0.3 4.63,1.77 2.23,-1.11 1.54,-1.45 4.52,-0.91l0.09 2.56c-1.58,0.88 -1.48,0.45 -3.47,0.71l0.01 1.97c7.8,0.54 7.85,-1.15 7.89,-1.18l2.2 -0.96c2.95,-0.45 1.11,0.2 3.05,0.66l1.04 -0.97c-1.04,-0.59 -1.06,-0.54 -1.53,-2.41 1.24,-0.51 0.26,-1.58 1.53,0.49 0.21,-3.18 0.52,-2.63 2.66,-3.9 -2.67,-3.12 -2.81,-0.77 -5.84,-2.23 -3.29,-1.58 -2.88,0.82 -5.17,-1.76l1.84 -2c-0.88,-1.32 -4.33,-3.52 -4.14,-5.82 1.65,-0.7 1.57,-0.6 3.36,-0.13 -0.91,-2 -2.28,-2.58 -3.48,-4.33 -2.48,-3.58 -2.18,-1.05 -5.55,-3.32l2.5 -1.84c-3.5,-1.18 -2.37,-0.04 -4.5,1.22 -4.88,0.29 -4.42,-2.34 -6.81,-3.83 -1.55,-0.96 -2.48,-0.11 -4.58,-0.97 -1.82,-0.75 -0.75,-0.72 -3.06,-1 -2.24,-0.27 -6.64,-1.86 -7.7,-1.8 -1.62,0.09 -1.83,0.92 -2.62,0.1 -0.76,-0.79 -1.98,-1.68 -2.45,-2.46l2.59 -1.24c-1.92,-1.19 -6.67,-0.98 -9.09,-0.86 -2.89,0.15 -5.33,3.27 -6.58,0.12 -2.08,1.3 -1.54,1.13 -2.85,0.4zm-30.59 122.29c0.12,-6.05 -3.19,-3.14 -4.84,-14.49 -0.97,-6.67 3.14,-9.93 4.43,-14.2 -6.04,1.99 -7.44,7.94 -7.27,14.2 0.12,4.48 2.85,13.98 7.68,14.48zm242.38 50.15c-2.56,11.96 -10.19,15.27 -8.44,19.44 3.58,-1.3 6.86,-7.79 8.86,-11.07 3.61,-5.9 3.01,-9.36 5.15,-14.58 0.65,-5.73 -0.01,-11.96 -1.26,-17.04 -0.79,-3.18 -4.21,-11.4 -6.3,-12.58 -0.94,1.81 0.24,0.37 0.14,1.71 -0.12,1.79 0.19,-1.38 -0.64,1.25 2.24,2.89 0.95,0.79 3.03,7.01 2.02,6.08 2.49,19.51 -0.54,25.87zm-15.53 -39.69c-0.94,-3.32 -10.01,-7.03 -13.28,-6.34 0.81,1.98 4.26,2.84 6.18,3.55 2.18,0.81 5.15,2.65 7.1,2.79zm12.93 33.99l-0.22 3.23 2.16 -0.47c-0.34,-5.46 2.92,-11.15 -1.52,-23.4 -1.4,-3.87 -7.29,-14.16 -11.2,-15.35 1.82,7.59 12.91,10.67 10.78,35.99zm-56.52 1.5c2.42,1.82 -0.5,1.37 2.92,2.6 1.27,-1.9 0.55,0.18 0.76,-2.59 -4.82,-17.13 5.85,-19.78 5.24,-25.17 -3.37,0.82 -7.46,7.01 -8.28,10.13 -3.16,12.06 -1.18,4.74 -0.64,15.04z"/>
   </g>
  </g>
 </g>
</svg>
